{
.appVersion = "1161";
classes = (
{
automatic = 1;
code = "A Aacute Abreve Acircumflex Adieresis Agrave Amacron Aogonek Aring Aringacute Atilde AE AEacute B C Cacute Ccaron Ccedilla Ccircumflex Cdotaccent D Eth Dcaron Dcroat E Eacute Ebreve Ecaron Ecircumflex Edieresis Edotaccent Egrave Emacron Eogonek F G Gbreve Gcircumflex Gcommaaccent Gdotaccent H Hbar Hcircumflex I IJ Iacute Ibreve Icircumflex Idieresis Idotaccent Igrave Imacron Iogonek Itilde J Jcircumflex K Kcommaaccent L Lacute Lcaron Lcommaaccent Ldot Lslash M N Nacute Ncaron Ncommaaccent Eng Ntilde O Oacute Obreve Ocircumflex Odieresis Ograve Ohungarumlaut Omacron Oslash Oslashacute Otilde OE P Thorn Q R Racute Rcaron Rcommaaccent S Sacute Scaron Scedilla Scircumflex T Tbar Tcaron Tcommaaccent U Uacute Ubreve Ucircumflex Udieresis Ugrave Uhungarumlaut Umacron Uogonek Uring Utilde V W Wacute Wcircumflex Wdieresis Wgrave X Y Yacute Ycircumflex Ydieresis Ygrave Z Zacute Zcaron Zdotaccent A-cy Be-cy Ve-cy Ge-cy Gje-cy Gheupturn-cy De-cy Ie-cy Iegrave-cy Io-cy Zhe-cy Ze-cy Ii-cy Iishort-cy Iigrave-cy Ka-cy Kje-cy El-cy Em-cy En-cy O-cy Pe-cy Er-cy Es-cy Te-cy U-cy Ushort-cy Ef-cy Ha-cy Che-cy Tse-cy Sha-cy Shcha-cy Dzhe-cy Softsign-cy Hardsign-cy Yeru-cy Lje-cy Nje-cy Dze-cy E-cy Ereversed-cy I-cy Yi-cy Je-cy Tshe-cy Iu-cy Ia-cy Dje-cy Yat-cy Yusbig-cy Fita-cy Izhitsa-cy Ghestroke-cy Ghemiddlehook-cy Zhedescender-cy Zedescender-cy Kadescender-cy Kaverticalstroke-cy Kabashkir-cy Endescender-cy Esdescender-cy Ustrait-cy Ustraitstroke-cy Chedescender-cy Cheverticalstroke-cy Shha-cy Palochka-cy Zhebreve-cy Chekhakassian-cy Abreve-cy Adieresis-cy Iebreve-cy Schwa-cy Zhedieresis-cy Zedieresis-cy Imacron-cy Idieresis-cy Odieresis-cy Obarred-cy Umacron-cy Udieresis-cy Uhungarumlaut-cy Chedieresis-cy Gedescender-cy Yerudieresis-cy Qa-cy We-cy";
name = Uppercase;
}
);
copyright = "Copyright 2011 The Comfortaa Project Authors (https://github.com/alexeiva/comfortaa), with Reserved Font Name \"Comfortaa\".";

glyphs = (
{
glyphname = A;
layers = (
{
anchors = (
{
name = bottom;
position = "{352, 0}";
},
{
name = ogonek;
position = "{633, 40}";
},
{
name = top;
position = "{352, 781}";
}
);
layerId = UUID0;
paths = (
{
closed = 1;
nodes = (
"369 648 LINE",
"341 648 LINE",
"589 32 LINE SMOOTH",
"597 12 OFFCURVE",
"617 0 OFFCURVE",
"637 0 CURVE SMOOTH",
"675 0 OFFCURVE",
"699 36 OFFCURVE",
"684 73 CURVE SMOOTH",
"402 746 LINE",
"393 770 OFFCURVE",
"376 781 OFFCURVE",
"353 781 CURVE SMOOTH",
"331 781 OFFCURVE",
"314 770 OFFCURVE",
"304 746 CURVE",
"23 75 LINE SMOOTH",
"7 39 OFFCURVE",
"31 0 OFFCURVE",
"69 0 CURVE SMOOTH",
"88 0 OFFCURVE",
"108 11 OFFCURVE",
"117 32 CURVE SMOOTH"
);
},
{
closed = 1;
nodes = (
"122 172 LINE",
"594 172 LINE",
"554 258 LINE",
"162 258 LINE"
);
}
);
width = 703;
},
{
anchors = (
{
name = bottom;
position = "{352, 0}";
},
{
name = ogonek;
position = "{658, 29}";
},
{
name = top;
position = "{352, 781}";
}
);
background = {
paths = (
{
closed = 1;
nodes = (
"339 720 LINE",
"632 19 LINE",
"637 5 OFFCURVE",
"647 0 OFFCURVE",
"660 0 CURVE SMOOTH",
"677 0 OFFCURVE",
"690 13 OFFCURVE",
"690 30 CURVE SMOOTH",
"690 35 OFFCURVE",
"689 39 OFFCURVE",
"687 43 CURVE SMOOTH",
"384 760 LINE SMOOTH",
"379 773 OFFCURVE",
"370 781 OFFCURVE",
"355 781 CURVE SMOOTH",
"342 781 OFFCURVE",
"332 774 OFFCURVE",
"326 760 CURVE SMOOTH",
"22 43 LINE SMOOTH",
"20 39 OFFCURVE",
"19 35 OFFCURVE",
"19 30 CURVE SMOOTH",
"19 13 OFFCURVE",
"33 0 OFFCURVE",
"49 0 CURVE SMOOTH",
"62 0 OFFCURVE",
"71 5 OFFCURVE",
"77 19 CURVE",
"371 720 LINE"
);
}
);
};
layerId = "952115DE-4B60-44C8-B7C0-A1F0450151B4";
paths = (
{
closed = 1;
nodes = (
"370 720 LINE",
"338 720 LINE",
"632 19 LINE",
"638 5 OFFCURVE",
"647 0 OFFCURVE",
"660 0 CURVE SMOOTH",
"682 0 OFFCURVE",
"697 24 OFFCURVE",
"687 43 CURVE SMOOTH",
"383 760 LINE SMOOTH",
"377 774 OFFCURVE",
"367 781 OFFCURVE",
"354 781 CURVE SMOOTH",
"339 781 OFFCURVE",
"330 773 OFFCURVE",
"325 760 CURVE SMOOTH",
"22 43 LINE SMOOTH",
"13 26 OFFCURVE",
"24 0 OFFCURVE",
"49 0 CURVE SMOOTH",
"62 0 OFFCURVE",
"72 5 OFFCURVE",
"77 19 CURVE"
);
},
{
closed = 1;
nodes = (
"123 196 LINE",
"586 196 LINE",
"563 250 LINE",
"147 250 LINE"
);
}
);
width = 703;
}
);
leftKerningGroup = A;
rightKerningGroup = A;
unicode = 0041;
},
{
glyphname = AE;
layers = (
{
anchors = (
{
name = bottom;
position = "{501, 0}";
},
{
name = top;
position = "{641, 781}";
}
);
background = {
paths = (
{
closed = 1;
nodes = (
"861 0 LINE SMOOTH",
"877 0 OFFCURVE",
"891 13 OFFCURVE",
"891 30 CURVE SMOOTH",
"891 46 OFFCURVE",
"877 60 OFFCURVE",
"861 60 CURVE SMOOTH",
"530 60 LINE",
"530 360 LINE",
"741 360 LINE SMOOTH",
"758 360 OFFCURVE",
"771 374 OFFCURVE",
"771 391 CURVE SMOOTH",
"771 408 OFFCURVE",
"758 421 OFFCURVE",
"741 421 CURVE SMOOTH",
"530 421 LINE",
"530 721 LINE",
"861 721 LINE SMOOTH",
"877 721 OFFCURVE",
"891 735 OFFCURVE",
"891 751 CURVE SMOOTH",
"891 768 OFFCURVE",
"877 781 OFFCURVE",
"861 781 CURVE SMOOTH",
"500 781 LINE SMOOTH",
"483 781 OFFCURVE",
"470 768 OFFCURVE",
"470 751 CURVE SMOOTH",
"470 30 LINE SMOOTH",
"470 13 OFFCURVE",
"483 0 OFFCURVE",
"500 0 CURVE SMOOTH"
);
},
{
closed = 1;
nodes = (
"483 250 LINE",
"227 250 LINE",
"203 196 LINE",
"506 196 LINE"
);
},
{
closed = 1;
nodes = (
"528 760 LINE",
"522 774 OFFCURVE",
"512 781 OFFCURVE",
"499 781 CURVE SMOOTH",
"484 781 OFFCURVE",
"477 772 OFFCURVE",
"470 760 CURVE SMOOTH",
"77 43 LINE SMOOTH",
"68 26 OFFCURVE",
"79 0 OFFCURVE",
"104 0 CURVE SMOOTH",
"117 0 OFFCURVE",
"127 5 OFFCURVE",
"132 19 CURVE",
"515 720 LINE"
);
}
);
};
layerId = UUID0;
paths = (
{
closed = 1;
nodes = (
"90 0 OFFCURVE",
"107 12 OFFCURVE",
"119 32 CURVE SMOOTH",
"205 172 LINE",
"441 172 LINE",
"441 52 LINE SMOOTH",
"441 22 OFFCURVE",
"463 0 OFFCURVE",
"493 0 CURVE SMOOTH",
"905 0 LINE SMOOTH",
"935 0 OFFCURVE",
"956 20 OFFCURVE",
"956 49 CURVE SMOOTH",
"956 77 OFFCURVE",
"935 96 OFFCURVE",
"905 96 CURVE SMOOTH",
"545 96 LINE",
"545 346 LINE",
"792 346 LINE SMOOTH",
"822 346 OFFCURVE",
"843 366 OFFCURVE",
"843 394 CURVE SMOOTH",
"843 422 OFFCURVE",
"822 442 OFFCURVE",
"792 442 CURVE SMOOTH",
"545 442 LINE",
"545 685 LINE",
"905 685 LINE SMOOTH",
"935 685 OFFCURVE",
"956 704 OFFCURVE",
"956 732 CURVE SMOOTH",
"956 761 OFFCURVE",
"935 781 OFFCURVE",
"905 781 CURVE SMOOTH",
"500 781 LINE SMOOTH",
"474 781 OFFCURVE",
"457 768 OFFCURVE",
"445 749 CURVE SMOOTH",
"25 75 LINE SMOOTH",
"5 41 OFFCURVE",
"33 0 OFFCURVE",
"71 0 CURVE SMOOTH"
);
},
{
closed = 1;
nodes = (
"465 602 LINE",
"441 599 LINE",
"441 258 LINE",
"258 258 LINE"
);
}
);
width = 1001;
},
{
anchors = (
{
name = bottom;
position = "{467, 0}";
},
{
name = top;
position = "{567, 781}";
}
);
background = {
paths = (
{
closed = 1;
nodes = (
"471 258 LINE",
"179 258 LINE",
"139 172 LINE",
"491 172 LINE"
);
},
{
closed = 1;
nodes = (
"526 746 LINE",
"437 761 LINE",
"10 75 LINE SMOOTH",
"-11 42 OFFCURVE",
"17 0 OFFCURVE",
"56 0 CURVE SMOOTH",
"74 0 OFFCURVE",
"91 12 OFFCURVE",
"104 32 CURVE SMOOTH",
"484 648 LINE"
);
},
{
closed = 1;
nodes = (
"890 0 LINE SMOOTH",
"919 0 OFFCURVE",
"940 20 OFFCURVE",
"941 49 CURVE SMOOTH",
"940 77 OFFCURVE",
"919 96 OFFCURVE",
"890 96 CURVE SMOOTH",
"530 96 LINE",
"530 346 LINE",
"777 346 LINE SMOOTH",
"806 346 OFFCURVE",
"827 366 OFFCURVE",
"828 394 CURVE SMOOTH",
"827 422 OFFCURVE",
"806 442 OFFCURVE",
"777 442 CURVE SMOOTH",
"530 442 LINE",
"530 685 LINE",
"890 685 LINE SMOOTH",
"919 685 OFFCURVE",
"940 704 OFFCURVE",
"941 732 CURVE SMOOTH",
"940 761 OFFCURVE",
"919 781 OFFCURVE",
"890 781 CURVE SMOOTH",
"478 781 LINE SMOOTH",
"447 781 OFFCURVE",
"425 759 OFFCURVE",
"426 729 CURVE SMOOTH",
"426 52 LINE SMOOTH",
"425 22 OFFCURVE",
"447 0 OFFCURVE",
"478 0 CURVE SMOOTH"
);
}
);
};
layerId = "952115DE-4B60-44C8-B7C0-A1F0450151B4";
paths = (
{
closed = 1;
nodes = (
"63 0 OFFCURVE",
"73 5 OFFCURVE",
"78 19 CURVE",
"182 196 LINE",
"446 196 LINE",
"446 30 LINE SMOOTH",
"446 13 OFFCURVE",
"459 0 OFFCURVE",
"476 0 CURVE SMOOTH",
"857 0 LINE SMOOTH",
"873 0 OFFCURVE",
"887 13 OFFCURVE",
"887 30 CURVE SMOOTH",
"887 46 OFFCURVE",
"873 60 OFFCURVE",
"857 60 CURVE SMOOTH",
"506 60 LINE",
"506 360 LINE",
"737 360 LINE SMOOTH",
"754 360 OFFCURVE",
"767 374 OFFCURVE",
"767 391 CURVE SMOOTH",
"767 408 OFFCURVE",
"754 421 OFFCURVE",
"737 421 CURVE SMOOTH",
"506 421 LINE",
"506 721 LINE",
"857 721 LINE SMOOTH",
"873 721 OFFCURVE",
"887 735 OFFCURVE",
"887 751 CURVE SMOOTH",
"887 768 OFFCURVE",
"873 781 OFFCURVE",
"857 781 CURVE",
"494 781 LINE",
"467 781 OFFCURVE",
"453 773 OFFCURVE",
"441 753 CURVE SMOOTH",
"23 43 LINE SMOOTH",
"13 26 OFFCURVE",
"25 0 OFFCURVE",
"50 0 CURVE SMOOTH"
);
},
{
closed = 1;
nodes = (
"469 683 LINE",
"446 689 LINE",
"446 250 LINE",
"214 250 LINE"
);
}
);
width = 932;
}
);
leftKerningGroup = A;
leftMetricsKey = A;
rightKerningGroup = E;
rightMetricsKey = E;
unicode = 00C6;
},
{
glyphname = B;
layers = (
{
anchors = (
{
name = bottom;
position = "{362, 0}";
},
{
name = top;
position = "{362, 781}";
}
);
layerId = UUID0;
paths = (
{
closed = 1;
nodes = (
"152 781 LINE SMOOTH",
"122 781 OFFCURVE",
"100 759 OFFCURVE",
"100 729 CURVE SMOOTH",
"100 52 LINE SMOOTH",
"100 22 OFFCURVE",
"122 0 OFFCURVE",
"152 0 CURVE SMOOTH",
"412 0 LINE SMOOTH",
"562 0 OFFCURVE",
"668 98 OFFCURVE",
"668 236 CURVE SMOOTH",
"668 337 OFFCURVE",
"610 401 OFFCURVE",
"522 422 CURVE",
"583 453 OFFCURVE",
"621 507 OFFCURVE",
"621 573 CURVE SMOOTH",
"621 695 OFFCURVE",
"526 781 OFFCURVE",
"391 781 CURVE SMOOTH"
);
},
{
closed = 1;
nodes = (
"204 460 LINE",
"204 685 LINE",
"391 685 LINE SMOOTH",
"467 685 OFFCURVE",
"521 649 OFFCURVE",
"521 573 CURVE SMOOTH",
"521 497 OFFCURVE",
"467 460 OFFCURVE",
"391 460 CURVE SMOOTH"
);
},
{
closed = 1;
nodes = (
"204 96 LINE",
"204 364 LINE",
"412 364 LINE SMOOTH",
"503 364 OFFCURVE",
"568 321 OFFCURVE",
"568 236 CURVE SMOOTH",
"568 144 OFFCURVE",
"503 96 OFFCURVE",
"412 96 CURVE SMOOTH"
);
}
);
width = 723;
},
{
anchors = (
{
name = bottom;
position = "{338, 0}";
},
{
name = top;
position = "{338, 781}";
}
);
background = {
paths = (
{
closed = 1;
nodes = (
"390 0 LINE SMOOTH",
"524 0 OFFCURVE",
"620 94 OFFCURVE",
"620 227 CURVE SMOOTH",
"620 358 OFFCURVE",
"524 435 OFFCURVE",
"390 435 CURVE SMOOTH",
"346 435 LINE",
"346 451 LINE",
"145 451 LINE",
"145 391 LINE",
"390 391 LINE SMOOTH",
"489 391 OFFCURVE",
"560 323 OFFCURVE",
"560 227 CURVE SMOOTH",
"560 129 OFFCURVE",
"489 60 OFFCURVE",
"390 60 CURVE SMOOTH",
"144 60 LINE",
"139 0 LINE"
);
},
{
closed = 1;
nodes = (
"160 57 LINE",
"160 751 LINE SMOOTH",
"160 769 OFFCURVE",
"148 781 OFFCURVE",
"130 781 CURVE SMOOTH",
"112 781 OFFCURVE",
"100 769 OFFCURVE",
"100 751 CURVE SMOOTH",
"100 30 LINE SMOOTH",
"100 10 OFFCURVE",
"116 0 OFFCURVE",
"139 0 CURVE"
);
},
{
closed = 1;
nodes = (
"375 405 LINE SMOOTH",
"486 405 OFFCURVE",
"579 481 OFFCURVE",
"579 592 CURVE SMOOTH",
"579 702 OFFCURVE",
"486 781 OFFCURVE",
"375 781 CURVE SMOOTH",
"130 781 LINE",
"130 721 LINE",
"375 721 LINE SMOOTH",
"459 721 OFFCURVE",
"519 675 OFFCURVE",
"519 592 CURVE SMOOTH",
"519 507 OFFCURVE",
"459 451 OFFCURVE",
"375 451 CURVE SMOOTH",
"295 451 LINE",
"295 405 LINE"
);
}
);
};
layerId = "952115DE-4B60-44C8-B7C0-A1F0450151B4";
paths = (
{
closed = 1;
nodes = (
"130 781 LINE SMOOTH",
"112 781 OFFCURVE",
"100 769 OFFCURVE",
"100 751 CURVE SMOOTH",
"100 30 LINE SMOOTH",
"100 10 OFFCURVE",
"116 0 OFFCURVE",
"139 0 CURVE SMOOTH",
"390 0 LINE SMOOTH",
"524 0 OFFCURVE",
"620 94 OFFCURVE",
"620 227 CURVE SMOOTH",
"620 330 OFFCURVE",
"560 400 OFFCURVE",
"469 425 CURVE",
"534 454 OFFCURVE",
"579 515 OFFCURVE",
"579 592 CURVE SMOOTH",
"579 702 OFFCURVE",
"486 781 OFFCURVE",
"375 781 CURVE SMOOTH"
);
},
{
closed = 1;
nodes = (
"160 451 LINE",
"160 721 LINE",
"375 721 LINE SMOOTH",
"459 721 OFFCURVE",
"519 675 OFFCURVE",
"519 592 CURVE SMOOTH",
"519 507 OFFCURVE",
"459 451 OFFCURVE",
"375 451 CURVE SMOOTH"
);
},
{
closed = 1;
nodes = (
"160 60 LINE",
"160 391 LINE",
"390 391 LINE SMOOTH",
"489 391 OFFCURVE",
"560 323 OFFCURVE",
"560 227 CURVE SMOOTH",
"560 129 OFFCURVE",
"489 60 OFFCURVE",
"390 60 CURVE SMOOTH"
);
}
);
width = 675;
}
);
leftKerningGroup = H;
leftMetricsKey = H;
rightKerningGroup = B;
unicode = 0042;
},
{
glyphname = C;
layers = (
{
anchors = (
{
name = bottom;
position = "{439, 0}";
},
{
name = top;
position = "{449, 781}";
}
);
background = {
components = (
{
name = O;
}
);
};
layerId = UUID0;
paths = (
{
closed = 1;
nodes = (
"232 791 OFFCURVE",
"64 614 OFFCURVE",
"64 391 CURVE SMOOTH",
"64 165 OFFCURVE",
"233 -10 OFFCURVE",
"450 -10 CURVE SMOOTH",
"541 -10 OFFCURVE",
"623 19 OFFCURVE",
"695 77 CURVE SMOOTH",
"706 88 OFFCURVE",
"711 100 OFFCURVE",
"711 114 CURVE SMOOTH",
"711 157 OFFCURVE",
"669 177 OFFCURVE",
"634 151 CURVE SMOOTH",
"578 109 OFFCURVE",
"518 85 OFFCURVE",
"450 85 CURVE SMOOTH",
"292 85 OFFCURVE",
"164 220 OFFCURVE",
"164 391 CURVE SMOOTH",
"164 560 OFFCURVE",
"292 697 OFFCURVE",
"450 697 CURVE SMOOTH",
"537 697 OFFCURVE",
"581 674 OFFCURVE",
"631 631 CURVE SMOOTH",
"666 603 OFFCURVE",
"714 625 OFFCURVE",
"714 664 CURVE SMOOTH",
"714 681 OFFCURVE",
"710 692 OFFCURVE",
"694 705 CURVE SMOOTH",
"619 766 OFFCURVE",
"552 791 OFFCURVE",
"450 791 CURVE SMOOTH"
);
}
);
width = 777;
},
{
anchors = (
{
name = bottom;
position = "{443, 0}";
},
{
name = top;
position = "{444, 781}";
}
);
background = {
components = (
{
name = O;
}
);
};
layerId = "952115DE-4B60-44C8-B7C0-A1F0450151B4";
paths = (
{
closed = 1;
nodes = (
"233 791 OFFCURVE",
"60 608 OFFCURVE",
"60 391 CURVE SMOOTH",
"60 173 OFFCURVE",
"238 -10 OFFCURVE",
"451 -10 CURVE SMOOTH",
"542 -10 OFFCURVE",
"631 10 OFFCURVE",
"697 76 CURVE SMOOTH",
"703 83 OFFCURVE",
"704 89 OFFCURVE",
"704 97 CURVE SMOOTH",
"704 122 OFFCURVE",
"674 136 OFFCURVE",
"658 123 CURVE SMOOTH",
"598 74 OFFCURVE",
"529 50 OFFCURVE",
"451 50 CURVE SMOOTH",
"269 50 OFFCURVE",
"120 204 OFFCURVE",
"120 391 CURVE SMOOTH",
"120 572 OFFCURVE",
"271 731 OFFCURVE",
"451 731 CURVE SMOOTH",
"529 731 OFFCURVE",
"598 711 OFFCURVE",
"652 663 CURVE SMOOTH",
"661 655 OFFCURVE",
"669 651 OFFCURVE",
"677 651 CURVE SMOOTH",
"705 651 OFFCURVE",
"716 687 OFFCURVE",
"698 702 CURVE SMOOTH",
"626 762 OFFCURVE",
"543 791 OFFCURVE",
"451 791 CURVE SMOOTH"
);
}
);
width = 767;
}
);
leftKerningGroup = O;
leftMetricsKey = O;
rightKerningGroup = C;
rightMetricsKey = O;
unicode = 0043;
},
{
glyphname = D;
layers = (
{
anchors = (
{
name = bottom;
position = "{392, 0}";
},
{
name = center;
position = "{212, 391}";
},
{
name = top;
position = "{392, 781}";
}
);
layerId = UUID0;
paths = (
{
closed = 1;
nodes = (
"152 781 LINE SMOOTH",
"122 781 OFFCURVE",
"100 759 OFFCURVE",
"100 729 CURVE SMOOTH",
"100 52 LINE SMOOTH",
"100 22 OFFCURVE",
"122 0 OFFCURVE",
"152 0 CURVE SMOOTH",
"333 0 LINE SMOOTH",
"561 0 OFFCURVE",
"720 162 OFFCURVE",
"720 391 CURVE SMOOTH",
"720 619 OFFCURVE",
"561 781 OFFCURVE",
"333 781 CURVE SMOOTH"
);
},
{
closed = 1;
nodes = (
"204 92 LINE",
"204 689 LINE",
"333 689 LINE SMOOTH",
"501 689 OFFCURVE",
"620 566 OFFCURVE",
"620 391 CURVE SMOOTH",
"620 216 OFFCURVE",
"501 92 OFFCURVE",
"333 92 CURVE SMOOTH"
);
}
);
width = 783;
},
{
anchors = (
{
name = bottom;
position = "{381, 0}";
},
{
name = center;
position = "{181, 391}";
},
{
name = top;
position = "{381, 781}";
}
);
guideLines = (
{
angle = 90;
position = "{160, 668}";
}
);
layerId = "952115DE-4B60-44C8-B7C0-A1F0450151B4";
paths = (
{
closed = 1;
nodes = (
"130 781 LINE SMOOTH",
"112 781 OFFCURVE",
"100 769 OFFCURVE",
"100 751 CURVE SMOOTH",
"100 30 LINE SMOOTH",
"100 12 OFFCURVE",
"112 0 OFFCURVE",
"130 0 CURVE SMOOTH",
"310 0 LINE SMOOTH",
"539 0 OFFCURVE",
"701 162 OFFCURVE",
"701 391 CURVE SMOOTH",
"701 619 OFFCURVE",
"539 781 OFFCURVE",
"310 781 CURVE SMOOTH"
);
},
{
closed = 1;
nodes = (
"160 54 LINE",
"160 727 LINE",
"310 727 LINE SMOOTH",
"504 727 OFFCURVE",
"641 584 OFFCURVE",
"641 391 CURVE SMOOTH",
"641 197 OFFCURVE",
"504 54 OFFCURVE",
"310 54 CURVE SMOOTH"
);
}
);
width = 761;
}
);
leftKerningGroup = H;
leftMetricsKey = H;
rightKerningGroup = O;
rightMetricsKey = O;
unicode = 0044;
},
{
glyphname = Eth;
layers = (
{
components = (
{
name = D;
}
);
layerId = UUID0;
paths = (
{
closed = 1;
nodes = (
"50 436 LINE",
"20 436 OFFCURVE",
"-1 419 OFFCURVE",
"-1 391 CURVE SMOOTH",
"-1 363 OFFCURVE",
"20 346 OFFCURVE",
"50 346 CURVE",
"332 346 LINE",
"362 346 OFFCURVE",
"384 363 OFFCURVE",
"384 391 CURVE SMOOTH",
"384 419 OFFCURVE",
"362 436 OFFCURVE",
"332 436 CURVE"
);
}
);
width = 783;
},
{
components = (
{
name = D;
}
);
layerId = "952115DE-4B60-44C8-B7C0-A1F0450151B4";
paths = (
{
closed = 1;
nodes = (
"27 418 LINE SMOOTH",
"11 418 OFFCURVE",
"0 407 OFFCURVE",
"0 391 CURVE SMOOTH",
"0 375 OFFCURVE",
"11 364 OFFCURVE",
"27 364 CURVE SMOOTH",
"325 364 LINE SMOOTH",
"341 364 OFFCURVE",
"352 375 OFFCURVE",
"352 391 CURVE SMOOTH",
"352 407 OFFCURVE",
"341 418 OFFCURVE",
"325 418 CURVE SMOOTH"
);
}
);
width = 761;
}
);
leftKerningGroup = Hbar;
rightKerningGroup = E;
unicode = 00D0;
},
{
glyphname = E;
layers = (
{
anchors = (
{
name = bottom;
position = "{370, 0}";
},
{
name = ogonek;
position = "{630, 10}";
},
{
name = top;
position = "{390, 781}";
},
{
name = topleft;
position = "{20, 781}";
}
);
layerId = UUID0;
paths = (
{
closed = 1;
nodes = (
"204 96 LINE",
"204 346 LINE",
"491 346 LINE SMOOTH",
"521 346 OFFCURVE",
"542 366 OFFCURVE",
"542 394 CURVE SMOOTH",
"542 422 OFFCURVE",
"521 442 OFFCURVE",
"491 442 CURVE SMOOTH",
"204 442 LINE",
"204 685 LINE",
"604 685 LINE SMOOTH",
"634 685 OFFCURVE",
"655 704 OFFCURVE",
"655 732 CURVE SMOOTH",
"655 761 OFFCURVE",
"634 781 OFFCURVE",
"604 781 CURVE SMOOTH",
"152 781 LINE SMOOTH",
"122 781 OFFCURVE",
"100 759 OFFCURVE",
"100 729 CURVE SMOOTH",
"100 52 LINE SMOOTH",
"100 22 OFFCURVE",
"122 0 OFFCURVE",
"152 0 CURVE SMOOTH",
"604 0 LINE SMOOTH",
"634 0 OFFCURVE",
"655 20 OFFCURVE",
"655 49 CURVE SMOOTH",
"655 77 OFFCURVE",
"634 96 OFFCURVE",
"604 96 CURVE SMOOTH"
);
}
);
width = 700;
},
{
anchors = (
{
name = bottom;
position = "{354, 0}";
},
{
name = ogonek;
position = "{623, 10}";
},
{
name = top;
position = "{374, 781}";
},
{
name = topleft;
position = "{81, 781}";
}
);
layerId = "952115DE-4B60-44C8-B7C0-A1F0450151B4";
paths = (
{
closed = 1;
nodes = (
"160 60 LINE",
"160 360 LINE",
"491 360 LINE SMOOTH",
"508 360 OFFCURVE",
"521 374 OFFCURVE",
"521 391 CURVE SMOOTH",
"521 408 OFFCURVE",
"508 421 OFFCURVE",
"491 421 CURVE SMOOTH",
"160 421 LINE",
"160 721 LINE",
"611 721 LINE SMOOTH",
"627 721 OFFCURVE",
"641 735 OFFCURVE",
"641 751 CURVE SMOOTH",
"641 768 OFFCURVE",
"627 781 OFFCURVE",
"611 781 CURVE SMOOTH",
"130 781 LINE SMOOTH",
"113 781 OFFCURVE",
"100 768 OFFCURVE",
"100 751 CURVE SMOOTH",
"100 30 LINE SMOOTH",
"100 13 OFFCURVE",
"113 0 OFFCURVE",
"130 0 CURVE SMOOTH",
"611 0 LINE SMOOTH",
"627 0 OFFCURVE",
"641 13 OFFCURVE",
"641 30 CURVE SMOOTH",
"641 46 OFFCURVE",
"627 60 OFFCURVE",
"611 60 CURVE SMOOTH"
);
}
);
width = 686;
}
);
leftKerningGroup = H;
leftMetricsKey = H;
rightKerningGroup = E;
unicode = 0045;
},
{
glyphname = F;
layers = (
{
anchors = (
{
name = bottom;
position = "{313, 0}";
},
{
name = top;
position = "{313, 781}";
}
);
background = {
paths = (
{
closed = 1;
nodes = (
"141 196 LINE",
"141 346 LINE",
"428 346 LINE SMOOTH",
"458 346 OFFCURVE",
"479 366 OFFCURVE",
"479 394 CURVE SMOOTH",
"479 422 OFFCURVE",
"458 442 OFFCURVE",
"428 442 CURVE SMOOTH",
"141 442 LINE",
"141 685 LINE",
"541 685 LINE SMOOTH",
"571 685 OFFCURVE",
"592 704 OFFCURVE",
"592 732 CURVE SMOOTH",
"592 761 OFFCURVE",
"571 781 OFFCURVE",
"541 781 CURVE SMOOTH",
"89 781 LINE SMOOTH",
"59 781 OFFCURVE",
"37 759 OFFCURVE",
"37 729 CURVE SMOOTH",
"37 152 LINE"
);
}
);
};
layerId = UUID0;
paths = (
{
closed = 1;
nodes = (
"141 442 LINE",
"141 685 LINE",
"541 685 LINE SMOOTH",
"571 685 OFFCURVE",
"592 704 OFFCURVE",
"592 732 CURVE SMOOTH",
"592 761 OFFCURVE",
"571 781 OFFCURVE",
"541 781 CURVE SMOOTH",
"89 781 LINE SMOOTH",
"59 781 OFFCURVE",
"37 759 OFFCURVE",
"37 729 CURVE SMOOTH",
"37 52 LINE SMOOTH",
"37 23 OFFCURVE",
"60 0 OFFCURVE",
"89 0 CURVE SMOOTH",
"118 0 OFFCURVE",
"141 23 OFFCURVE",
"141 52 CURVE SMOOTH",
"141 346 LINE",
"428 346 LINE SMOOTH",
"458 346 OFFCURVE",
"479 366 OFFCURVE",
"479 394 CURVE SMOOTH",
"479 422 OFFCURVE",
"458 442 OFFCURVE",
"428 442 CURVE SMOOTH"
);
}
);
width = 625;
},
{
anchors = (
{
name = bottom;
position = "{313, 0}";
},
{
name = top;
position = "{313, 781}";
}
);
layerId = "952115DE-4B60-44C8-B7C0-A1F0450151B4";
paths = (
{
closed = 1;
nodes = (
"99 421 LINE",
"99 721 LINE",
"550 721 LINE SMOOTH",
"566 721 OFFCURVE",
"580 735 OFFCURVE",
"580 751 CURVE SMOOTH",
"580 768 OFFCURVE",
"566 781 OFFCURVE",
"550 781 CURVE SMOOTH",
"69 781 LINE SMOOTH",
"52 781 OFFCURVE",
"39 768 OFFCURVE",
"39 751 CURVE SMOOTH",
"39 30 LINE SMOOTH",
"39 13 OFFCURVE",
"52 0 OFFCURVE",
"69 0 CURVE SMOOTH",
"86 0 OFFCURVE",
"99 13 OFFCURVE",
"99 30 CURVE SMOOTH",
"99 360 LINE",
"430 360 LINE SMOOTH",
"447 360 OFFCURVE",
"460 374 OFFCURVE",
"460 391 CURVE SMOOTH",
"460 408 OFFCURVE",
"447 421 OFFCURVE",
"430 421 CURVE SMOOTH"
);
}
);
width = 625;
}
);
leftKerningGroup = H;
rightKerningGroup = F;
unicode = 0046;
},
{
glyphname = G;
layers = (
{
anchors = (
{
name = bottom;
position = "{429, 0}";
},
{
name = top;
position = "{449, 781}";
}
);
background = {
paths = (
{
closed = 1;
nodes = (
"541 -10 OFFCURVE",
"624 18 OFFCURVE",
"695 77 CURVE SMOOTH",
"707 87 OFFCURVE",
"711 100 OFFCURVE",
"711 114 CURVE SMOOTH",
"711 157 OFFCURVE",
"669 177 OFFCURVE",
"634 151 CURVE SMOOTH",
"578 109 OFFCURVE",
"518 85 OFFCURVE",
"450 85 CURVE SMOOTH",
"292 85 OFFCURVE",
"164 220 OFFCURVE",
"164 391 CURVE SMOOTH",
"164 560 OFFCURVE",
"292 697 OFFCURVE",
"450 697 CURVE SMOOTH",
"537 697 OFFCURVE",
"581 674 OFFCURVE",
"631 631 CURVE SMOOTH",
"665 602 OFFCURVE",
"714 625 OFFCURVE",
"714 664 CURVE SMOOTH",
"714 681 OFFCURVE",
"710 692 OFFCURVE",
"694 705 CURVE SMOOTH",
"619 766 OFFCURVE",
"552 791 OFFCURVE",
"450 791 CURVE SMOOTH",
"232 791 OFFCURVE",
"64 614 OFFCURVE",
"64 391 CURVE SMOOTH",
"64 165 OFFCURVE",
"233 -10 OFFCURVE",
"450 -10 CURVE SMOOTH"
);
},
{
closed = 1;
nodes = (
"711 114 LINE",
"711 353 LINE SMOOTH",
"711 383 OFFCURVE",
"690 405 OFFCURVE",
"660 405 CURVE SMOOTH",
"473 405 LINE SMOOTH",
"443 405 OFFCURVE",
"421 386 OFFCURVE",
"421 359 CURVE SMOOTH",
"421 332 OFFCURVE",
"443 313 OFFCURVE",
"473 313 CURVE SMOOTH",
"611 313 LINE",
"611 134 LINE"
);
}
);
};
layerId = UUID0;
paths = (
{
closed = 1;
nodes = (
"232 791 OFFCURVE",
"64 614 OFFCURVE",
"64 391 CURVE SMOOTH",
"64 165 OFFCURVE",
"233 -10 OFFCURVE",
"450 -10 CURVE SMOOTH",
"541 -10 OFFCURVE",
"624 18 OFFCURVE",
"695 77 CURVE SMOOTH",
"707 87 OFFCURVE",
"711 100 OFFCURVE",
"711 114 CURVE SMOOTH",
"711 157 OFFCURVE",
"669 177 OFFCURVE",
"634 151 CURVE SMOOTH",
"578 109 OFFCURVE",
"518 85 OFFCURVE",
"450 85 CURVE SMOOTH",
"292 85 OFFCURVE",
"164 220 OFFCURVE",
"164 391 CURVE SMOOTH",
"164 560 OFFCURVE",
"292 697 OFFCURVE",
"450 697 CURVE SMOOTH",
"537 697 OFFCURVE",
"581 674 OFFCURVE",
"631 631 CURVE SMOOTH",
"665 602 OFFCURVE",
"714 625 OFFCURVE",
"714 664 CURVE SMOOTH",
"714 681 OFFCURVE",
"710 692 OFFCURVE",
"694 705 CURVE SMOOTH",
"619 766 OFFCURVE",
"552 791 OFFCURVE",
"450 791 CURVE SMOOTH"
);
},
{
closed = 1;
nodes = (
"611 313 LINE",
"611 134 LINE",
"711 114 LINE",
"711 353 LINE SMOOTH",
"711 383 OFFCURVE",
"690 405 OFFCURVE",
"660 405 CURVE SMOOTH",
"473 405 LINE SMOOTH",
"443 405 OFFCURVE",
"421 386 OFFCURVE",
"421 359 CURVE SMOOTH",
"421 332 OFFCURVE",
"443 313 OFFCURVE",
"473 313 CURVE SMOOTH"
);
}
);
width = 777;
},
{
anchors = (
{
name = bottom;
position = "{434, 0}";
},
{
name = top;
position = "{434, 781}";
}
);
background = {
paths = (
{
closed = 1;
nodes = (
"542 -10 OFFCURVE",
"631 10 OFFCURVE",
"697 76 CURVE SMOOTH",
"704 83 OFFCURVE",
"704 89 OFFCURVE",
"704 97 CURVE SMOOTH",
"704 122 OFFCURVE",
"674 136 OFFCURVE",
"658 123 CURVE SMOOTH",
"598 74 OFFCURVE",
"529 50 OFFCURVE",
"451 50 CURVE SMOOTH",
"269 50 OFFCURVE",
"120 204 OFFCURVE",
"120 391 CURVE SMOOTH",
"120 572 OFFCURVE",
"271 731 OFFCURVE",
"451 731 CURVE SMOOTH",
"529 731 OFFCURVE",
"598 711 OFFCURVE",
"652 663 CURVE SMOOTH",
"661 655 OFFCURVE",
"669 651 OFFCURVE",
"677 651 CURVE SMOOTH",
"705 651 OFFCURVE",
"716 687 OFFCURVE",
"698 702 CURVE SMOOTH",
"626 762 OFFCURVE",
"543 791 OFFCURVE",
"451 791 CURVE SMOOTH",
"233 791 OFFCURVE",
"60 608 OFFCURVE",
"60 391 CURVE SMOOTH",
"60 173 OFFCURVE",
"238 -10 OFFCURVE",
"451 -10 CURVE SMOOTH"
);
},
{
closed = 1;
nodes = (
"704 97 LINE",
"704 351 LINE SMOOTH",
"704 367 OFFCURVE",
"690 380 OFFCURVE",
"674 380 CURVE SMOOTH",
"476 380 LINE SMOOTH",
"459 380 OFFCURVE",
"446 368 OFFCURVE",
"446 351 CURVE SMOOTH",
"446 333 OFFCURVE",
"459 320 OFFCURVE",
"476 320 CURVE SMOOTH",
"644 320 LINE",
"644 110 LINE"
);
}
);
};
layerId = "952115DE-4B60-44C8-B7C0-A1F0450151B4";
paths = (
{
closed = 1;
nodes = (
"233 791 OFFCURVE",
"60 608 OFFCURVE",
"60 391 CURVE SMOOTH",
"60 173 OFFCURVE",
"238 -10 OFFCURVE",
"451 -10 CURVE SMOOTH",
"542 -10 OFFCURVE",
"631 10 OFFCURVE",
"697 76 CURVE SMOOTH",
"704 83 OFFCURVE",
"704 89 OFFCURVE",
"704 97 CURVE SMOOTH",
"704 122 OFFCURVE",
"674 136 OFFCURVE",
"658 123 CURVE SMOOTH",
"598 74 OFFCURVE",
"529 50 OFFCURVE",
"451 50 CURVE SMOOTH",
"269 50 OFFCURVE",
"120 204 OFFCURVE",
"120 391 CURVE SMOOTH",
"120 572 OFFCURVE",
"271 731 OFFCURVE",
"451 731 CURVE SMOOTH",
"529 731 OFFCURVE",
"598 711 OFFCURVE",
"652 663 CURVE SMOOTH",
"661 655 OFFCURVE",
"669 651 OFFCURVE",
"677 651 CURVE SMOOTH",
"705 651 OFFCURVE",
"716 687 OFFCURVE",
"698 702 CURVE SMOOTH",
"626 762 OFFCURVE",
"543 791 OFFCURVE",
"451 791 CURVE SMOOTH"
);
},
{
closed = 1;
nodes = (
"644 326 LINE",
"644 110 LINE",
"704 97 LINE",
"704 351 LINE SMOOTH",
"704 368 OFFCURVE",
"692 380 OFFCURVE",
"674 380 CURVE SMOOTH",
"476 380 LINE SMOOTH",
"458 380 OFFCURVE",
"446 369 OFFCURVE",
"446 354 CURVE SMOOTH",
"446 338 OFFCURVE",
"458 326 OFFCURVE",
"476 326 CURVE SMOOTH"
);
}
);
width = 767;
}
);
leftKerningGroup = O;
leftMetricsKey = O;
rightKerningGroup = C;
rightMetricsKey = C;
unicode = 0047;
},
{
glyphname = H;
layers = (
{
anchors = (
{
name = bottom;
position = "{436, 0}";
},
{
name = center;
position = "{436, 601}";
},
{
name = top;
position = "{436, 781}";
},
{
name = topleft;
position = "{20, 781}";
}
);
background = {
paths = (
{
closed = 1;
nodes = (
"181 0 OFFCURVE",
"204 23 OFFCURVE",
"204 52 CURVE SMOOTH",
"204 578 LINE",
"640 18 LINE",
"651 6 OFFCURVE",
"665 0 OFFCURVE",
"680 0 CURVE SMOOTH",
"709 0 OFFCURVE",
"731 22 OFFCURVE",
"731 52 CURVE SMOOTH",
"731 729 LINE SMOOTH",
"731 758 OFFCURVE",
"709 781 OFFCURVE",
"680 781 CURVE SMOOTH",
"651 781 OFFCURVE",
"628 758 OFFCURVE",
"628 729 CURVE SMOOTH",
"628 202 LINE",
"192 762 LINE",
"181 775 OFFCURVE",
"167 781 OFFCURVE",
"152 781 CURVE SMOOTH",
"123 781 OFFCURVE",
"101 759 OFFCURVE",
"101 729 CURVE SMOOTH",
"101 52 LINE SMOOTH",
"101 23 OFFCURVE",
"124 0 OFFCURVE",
"152 0 CURVE SMOOTH"
);
}
);
};
layerId = UUID0;
paths = (
{
closed = 1;
nodes = (
"668 442 LINE",
"204 442 LINE",
"204 729 LINE SMOOTH",
"204 759 OFFCURVE",
"182 781 OFFCURVE",
"152 781 CURVE SMOOTH",
"122 781 OFFCURVE",
"100 759 OFFCURVE",
"100 729 CURVE SMOOTH",
"100 52 LINE SMOOTH",
"100 22 OFFCURVE",
"122 0 OFFCURVE",
"152 0 CURVE SMOOTH",
"182 0 OFFCURVE",
"204 22 OFFCURVE",
"204 52 CURVE SMOOTH",
"204 350 LINE",
"668 350 LINE",
"668 52 LINE SMOOTH",
"668 22 OFFCURVE",
"690 0 OFFCURVE",
"720 0 CURVE SMOOTH",
"750 0 OFFCURVE",
"771 22 OFFCURVE",
"771 52 CURVE SMOOTH",
"771 729 LINE SMOOTH",
"771 759 OFFCURVE",
"750 781 OFFCURVE",
"720 781 CURVE SMOOTH",
"690 781 OFFCURVE",
"668 759 OFFCURVE",
"668 729 CURVE SMOOTH"
);
}
);
width = 871;
},
{
anchors = (
{
name = bottom;
position = "{413, 0}";
},
{
name = center;
position = "{413, 631}";
},
{
name = top;
position = "{413, 781}";
},
{
name = topleft;
position = "{20, 781}";
}
);
background = {
paths = (
{
closed = 1;
nodes = (
"169 0 OFFCURVE",
"191 22 OFFCURVE",
"191 52 CURVE SMOOTH",
"191 346 LINE",
"615 346 LINE",
"615 52 LINE SMOOTH",
"615 22 OFFCURVE",
"637 0 OFFCURVE",
"667 0 CURVE SMOOTH",
"697 0 OFFCURVE",
"718 22 OFFCURVE",
"718 52 CURVE SMOOTH",
"718 729 LINE SMOOTH",
"718 759 OFFCURVE",
"697 781 OFFCURVE",
"667 781 CURVE SMOOTH",
"637 781 OFFCURVE",
"615 759 OFFCURVE",
"615 729 CURVE SMOOTH",
"615 442 LINE",
"191 442 LINE",
"191 729 LINE SMOOTH",
"191 759 OFFCURVE",
"169 781 OFFCURVE",
"139 781 CURVE SMOOTH",
"109 781 OFFCURVE",
"87 759 OFFCURVE",
"87 729 CURVE SMOOTH",
"87 52 LINE SMOOTH",
"87 22 OFFCURVE",
"109 0 OFFCURVE",
"139 0 CURVE SMOOTH"
);
}
);
};
layerId = "952115DE-4B60-44C8-B7C0-A1F0450151B4";
paths = (
{
closed = 1;
nodes = (
"665 421 LINE",
"160 421 LINE",
"160 751 LINE SMOOTH",
"160 768 OFFCURVE",
"147 781 OFFCURVE",
"130 781 CURVE SMOOTH",
"113 781 OFFCURVE",
"100 768 OFFCURVE",
"100 751 CURVE SMOOTH",
"100 30 LINE SMOOTH",
"100 13 OFFCURVE",
"113 0 OFFCURVE",
"130 0 CURVE SMOOTH",
"147 0 OFFCURVE",
"160 13 OFFCURVE",
"160 30 CURVE SMOOTH",
"160 367 LINE",
"665 367 LINE",
"665 30 LINE SMOOTH",
"665 13 OFFCURVE",
"678 0 OFFCURVE",
"695 0 CURVE SMOOTH",
"711 0 OFFCURVE",
"725 13 OFFCURVE",
"725 30 CURVE SMOOTH",
"725 751 LINE SMOOTH",
"725 768 OFFCURVE",
"711 781 OFFCURVE",
"695 781 CURVE SMOOTH",
"678 781 OFFCURVE",
"665 768 OFFCURVE",
"665 751 CURVE SMOOTH"
);
}
);
width = 825;
},
{
associatedMasterId = "952115DE-4B60-44C8-B7C0-A1F0450151B4";
background = {
paths = (
{
closed = 1;
nodes = (
"86 0 OFFCURVE",
"99 13 OFFCURVE",
"99 30 CURVE SMOOTH",
"99 360 LINE",
"520 360 LINE",
"520 30 LINE SMOOTH",
"520 13 OFFCURVE",
"533 0 OFFCURVE",
"550 0 CURVE SMOOTH",
"566 0 OFFCURVE",
"580 13 OFFCURVE",
"580 30 CURVE SMOOTH",
"580 751 LINE SMOOTH",
"580 768 OFFCURVE",
"566 781 OFFCURVE",
"550 781 CURVE SMOOTH",
"533 781 OFFCURVE",
"520 768 OFFCURVE",
"520 751 CURVE SMOOTH",
"520 421 LINE",
"99 421 LINE",
"99 751 LINE SMOOTH",
"99 768 OFFCURVE",
"86 781 OFFCURVE",
"69 781 CURVE SMOOTH",
"52 781 OFFCURVE",
"39 768 OFFCURVE",
"39 751 CURVE SMOOTH",
"39 30 LINE SMOOTH",
"39 13 OFFCURVE",
"52 0 OFFCURVE",
"69 0 CURVE SMOOTH"
);
}
);
};
layerId = "128D6D89-96C2-44DD-B506-EDFB7B8D18CA";
name = "Oct 19 16, 15:45";
paths = (
{
closed = 1;
nodes = (
"520 421 LINE",
"99 421 LINE",
"99 751 LINE SMOOTH",
"99 768 OFFCURVE",
"86 781 OFFCURVE",
"69 781 CURVE SMOOTH",
"52 781 OFFCURVE",
"39 768 OFFCURVE",
"39 751 CURVE SMOOTH",
"39 30 LINE SMOOTH",
"39 13 OFFCURVE",
"52 0 OFFCURVE",
"69 0 CURVE SMOOTH",
"86 0 OFFCURVE",
"99 13 OFFCURVE",
"99 30 CURVE SMOOTH",
"99 360 LINE",
"520 360 LINE",
"520 30 LINE SMOOTH",
"520 13 OFFCURVE",
"533 0 OFFCURVE",
"550 0 CURVE SMOOTH",
"566 0 OFFCURVE",
"580 13 OFFCURVE",
"580 30 CURVE SMOOTH",
"580 751 LINE SMOOTH",
"580 768 OFFCURVE",
"566 781 OFFCURVE",
"550 781 CURVE SMOOTH",
"533 781 OFFCURVE",
"520 768 OFFCURVE",
"520 751 CURVE SMOOTH"
);
}
);
width = 625;
}
);
leftKerningGroup = H;
rightKerningGroup = H;
unicode = 0048;
},
{
glyphname = I;
layers = (
{
anchors = (
{
name = bottom;
position = "{152, 0}";
},
{
name = ogonek;
position = "{152, 10}";
},
{
name = top;
position = "{152, 781}";
},
{
name = topleft;
position = "{20, 781}";
}
);
layerId = UUID0;
paths = (
{
closed = 1;
nodes = (
"100 52 LINE SMOOTH",
"100 22 OFFCURVE",
"122 0 OFFCURVE",
"152 0 CURVE SMOOTH",
"182 0 OFFCURVE",
"204 22 OFFCURVE",
"204 52 CURVE SMOOTH",
"204 729 LINE SMOOTH",
"204 759 OFFCURVE",
"182 781 OFFCURVE",
"152 781 CURVE SMOOTH",
"122 781 OFFCURVE",
"100 759 OFFCURVE",
"100 729 CURVE SMOOTH"
);
}
);
width = 304;
},
{
anchors = (
{
name = bottom;
position = "{130, 0}";
},
{
name = ogonek;
position = "{130, 10}";
},
{
name = top;
position = "{130, 781}";
},
{
name = topleft;
position = "{20, 781}";
}
);
layerId = "952115DE-4B60-44C8-B7C0-A1F0450151B4";
paths = (
{
closed = 1;
nodes = (
"100 30 LINE SMOOTH",
"100 13 OFFCURVE",
"113 0 OFFCURVE",
"130 0 CURVE SMOOTH",
"147 0 OFFCURVE",
"160 13 OFFCURVE",
"160 30 CURVE SMOOTH",
"160 751 LINE SMOOTH",
"160 768 OFFCURVE",
"147 781 OFFCURVE",
"130 781 CURVE SMOOTH",
"113 781 OFFCURVE",
"100 768 OFFCURVE",
"100 751 CURVE SMOOTH"
);
}
);
width = 260;
}
);
leftKerningGroup = H;
rightKerningGroup = H;
unicode = 0049;
},
{
glyphname = IJ;
layers = (
{
guideLines = (
{
angle = 90;
position = "{204, 325}";
}
);
layerId = UUID0;
paths = (
{
closed = 1;
nodes = (
"551 729 LINE SMOOTH",
"551 759 OFFCURVE",
"529 781 OFFCURVE",
"498 781 CURVE SMOOTH",
"468 781 OFFCURVE",
"447 759 OFFCURVE",
"447 729 CURVE SMOOTH",
"447 230 LINE SMOOTH",
"447 144 OFFCURVE",
"390 84 OFFCURVE",
"310 84 CURVE SMOOTH",
"248 84 OFFCURVE",
"204 119 OFFCURVE",
"204 170 CURVE SMOOTH",
"204 200 OFFCURVE",
"182 222 OFFCURVE",
"152 222 CURVE SMOOTH",
"122 222 OFFCURVE",
"100 200 OFFCURVE",
"100 170 CURVE SMOOTH",
"100 64 OFFCURVE",
"187 -10 OFFCURVE",
"310 -10 CURVE SMOOTH",
"451 -10 OFFCURVE",
"551 89 OFFCURVE",
"551 230 CURVE SMOOTH"
);
},
{
closed = 1;
nodes = (
"100 342 LINE SMOOTH",
"100 312 OFFCURVE",
"122 290 OFFCURVE",
"152 290 CURVE SMOOTH",
"182 290 OFFCURVE",
"204 312 OFFCURVE",
"204 342 CURVE SMOOTH",
"204 729 LINE SMOOTH",
"204 759 OFFCURVE",
"182 781 OFFCURVE",
"152 781 CURVE SMOOTH",
"122 781 OFFCURVE",
"100 759 OFFCURVE",
"100 729 CURVE SMOOTH"
);
}
);
width = 651;
},
{
guideLines = (
{
angle = 90;
position = "{160, 260}";
}
);
layerId = "952115DE-4B60-44C8-B7C0-A1F0450151B4";
paths = (
{
closed = 1;
nodes = (
"531 751 LINE SMOOTH",
"531 768 OFFCURVE",
"518 781 OFFCURVE",
"501 781 CURVE SMOOTH",
"485 781 OFFCURVE",
"471 768 OFFCURVE",
"471 751 CURVE SMOOTH",
"471 220 LINE SMOOTH",
"471 128 OFFCURVE",
"404 50 OFFCURVE",
"321 50 CURVE SMOOTH",
"233 50 OFFCURVE",
"160 86 OFFCURVE",
"160 180 CURVE SMOOTH",
"160 198 OFFCURVE",
"147 210 OFFCURVE",
"130 210 CURVE SMOOTH",
"113 210 OFFCURVE",
"100 198 OFFCURVE",
"100 180 CURVE SMOOTH",
"100 55 OFFCURVE",
"199 -10 OFFCURVE",
"321 -10 CURVE SMOOTH",
"436 -10 OFFCURVE",
"531 94 OFFCURVE",
"531 220 CURVE SMOOTH"
);
},
{
closed = 1;
nodes = (
"100 320 LINE SMOOTH",
"100 303 OFFCURVE",
"113 290 OFFCURVE",
"130 290 CURVE SMOOTH",
"147 290 OFFCURVE",
"160 303 OFFCURVE",
"160 320 CURVE SMOOTH",
"160 751 LINE SMOOTH",
"160 768 OFFCURVE",
"147 781 OFFCURVE",
"130 781 CURVE SMOOTH",
"113 781 OFFCURVE",
"100 768 OFFCURVE",
"100 751 CURVE SMOOTH"
);
}
);
width = 631;
}
);
leftKerningGroup = IJ;
leftMetricsKey = H;
rightKerningGroup = IJ;
rightMetricsKey = H;
unicode = 0132;
},
{
glyphname = J;
layers = (
{
anchors = (
{
name = bottom;
position = "{313, 0}";
},
{
name = top;
position = "{474, 781}";
}
);
background = {
components = (
{
name = O;
transform = "{1, 0, 0, 1, -171, 0}";
}
);
};
layerId = UUID0;
paths = (
{
closed = 1;
nodes = (
"526 729 LINE SMOOTH",
"526 759 OFFCURVE",
"504 781 OFFCURVE",
"473 781 CURVE SMOOTH",
"443 781 OFFCURVE",
"422 759 OFFCURVE",
"422 729 CURVE SMOOTH",
"422 230 LINE SMOOTH",
"422 144 OFFCURVE",
"365 84 OFFCURVE",
"285 84 CURVE SMOOTH",
"205 84 OFFCURVE",
"149 144 OFFCURVE",
"149 230 CURVE SMOOTH",
"149 260 OFFCURVE",
"127 282 OFFCURVE",
"97 282 CURVE SMOOTH",
"67 282 OFFCURVE",
"45 260 OFFCURVE",
"45 230 CURVE SMOOTH",
"45 89 OFFCURVE",
"144 -10 OFFCURVE",
"285 -10 CURVE SMOOTH",
"426 -10 OFFCURVE",
"526 89 OFFCURVE",
"526 230 CURVE SMOOTH"
);
}
);
width = 626;
},
{
anchors = (
{
name = bottom;
position = "{303, 0}";
},
{
name = top;
position = "{476, 781}";
}
);
background = {
components = (
{
name = O;
transform = "{1, 0, 0, 1, -174, 0}";
}
);
};
layerId = "952115DE-4B60-44C8-B7C0-A1F0450151B4";
paths = (
{
closed = 1;
nodes = (
"506 751 LINE SMOOTH",
"506 768 OFFCURVE",
"493 781 OFFCURVE",
"476 781 CURVE SMOOTH",
"460 781 OFFCURVE",
"446 768 OFFCURVE",
"446 751 CURVE SMOOTH",
"446 220 LINE SMOOTH",
"446 128 OFFCURVE",
"370 50 OFFCURVE",
"276 50 CURVE SMOOTH",
"183 50 OFFCURVE",
"105 126 OFFCURVE",
"105 220 CURVE SMOOTH",
"105 238 OFFCURVE",
"92 250 OFFCURVE",
"75 250 CURVE SMOOTH",
"58 250 OFFCURVE",
"45 238 OFFCURVE",
"45 220 CURVE SMOOTH",
"45 95 OFFCURVE",
"148 -10 OFFCURVE",
"276 -10 CURVE SMOOTH",
"402 -10 OFFCURVE",
"506 94 OFFCURVE",
"506 220 CURVE SMOOTH"
);
}
);
width = 606;
}
);
leftKerningGroup = J;
rightKerningGroup = U;
rightMetricsKey = H;
unicode = 004A;
},
{
glyphname = K;
layers = (
{
anchors = (
{
name = bottom;
position = "{334, 0}";
},
{
name = top;
position = "{334, 781}";
}
);
layerId = UUID0;
paths = (
{
closed = 1;
nodes = (
"204 293 LINE",
"276 365 LINE",
"529 22 LINE",
"539 7 OFFCURVE",
"553 0 OFFCURVE",
"572 0 CURVE SMOOTH",
"611 0 OFFCURVE",
"631 49 OFFCURVE",
"608 83 CURVE",
"348 437 LINE",
"603 693 LINE SMOOTH",
"635 726 OFFCURVE",
"628 781 OFFCURVE",
"578 781 CURVE SMOOTH",
"563 781 OFFCURVE",
"551 776 OFFCURVE",
"535 760 CURVE SMOOTH",
"204 429 LINE",
"204 729 LINE SMOOTH",
"204 758 OFFCURVE",
"181 781 OFFCURVE",
"152 781 CURVE SMOOTH",
"124 781 OFFCURVE",
"100 758 OFFCURVE",
"100 729 CURVE SMOOTH",
"100 52 LINE SMOOTH",
"100 23 OFFCURVE",
"124 0 OFFCURVE",
"152 0 CURVE SMOOTH",
"181 0 OFFCURVE",
"204 23 OFFCURVE",
"204 52 CURVE SMOOTH"
);
}
);
width = 667;
},
{
anchors = (
{
name = bottom;
position = "{324, 0}";
},
{
name = top;
position = "{324, 781}";
}
);
layerId = "952115DE-4B60-44C8-B7C0-A1F0450151B4";
paths = (
{
closed = 1;
nodes = (
"160 297 LINE",
"261 398 LINE",
"546 13 LINE SMOOTH",
"552 4 OFFCURVE",
"561 0 OFFCURVE",
"572 0 CURVE SMOOTH",
"593 0 OFFCURVE",
"610 25 OFFCURVE",
"595 48 CURVE SMOOTH",
"305 442 LINE",
"592 729 LINE",
"611 751 OFFCURVE",
"597 781 OFFCURVE",
"571 781 CURVE SMOOTH",
"562 781 OFFCURVE",
"555 778 OFFCURVE",
"548 772 CURVE SMOOTH",
"160 384 LINE",
"160 751 LINE SMOOTH",
"160 768 OFFCURVE",
"147 781 OFFCURVE",
"130 781 CURVE SMOOTH",
"114 781 OFFCURVE",
"100 768 OFFCURVE",
"100 751 CURVE SMOOTH",
"100 30 LINE SMOOTH",
"100 13 OFFCURVE",
"114 0 OFFCURVE",
"130 0 CURVE SMOOTH",
"147 0 OFFCURVE",
"160 13 OFFCURVE",
"160 30 CURVE SMOOTH"
);
}
);
width = 647;
}
);
leftKerningGroup = H;
leftMetricsKey = H;
rightKerningGroup = K;
unicode = 004B;
},
{
glyphname = L;
layers = (
{
anchors = (
{
name = bottom;
position = "{331, 0}";
},
{
name = center;
position = "{161, 391}";
},
{
name = top;
position = "{151, 781}";
},
{
name = topright;
position = "{382, 781}";
}
);
layerId = UUID0;
paths = (
{
closed = 1;
nodes = (
"203 104 LINE",
"203 729 LINE SMOOTH",
"203 758 OFFCURVE",
"180 781 OFFCURVE",
"151 781 CURVE SMOOTH",
"123 781 OFFCURVE",
"100 758 OFFCURVE",
"100 729 CURVE SMOOTH",
"100 52 LINE SMOOTH",
"100 22 OFFCURVE",
"122 0 OFFCURVE",
"151 0 CURVE SMOOTH",
"565 0 LINE SMOOTH",
"594 0 OFFCURVE",
"617 23 OFFCURVE",
"617 52 CURVE SMOOTH",
"617 81 OFFCURVE",
"594 104 OFFCURVE",
"565 104 CURVE SMOOTH"
);
}
);
width = 642;
},
{
anchors = (
{
name = bottom;
position = "{323, 0}";
},
{
name = center;
position = "{133, 391}";
},
{
name = top;
position = "{130, 781}";
},
{
name = topright;
position = "{346, 781}";
}
);
layerId = "952115DE-4B60-44C8-B7C0-A1F0450151B4";
paths = (
{
closed = 1;
nodes = (
"160 54 LINE",
"160 751 LINE SMOOTH",
"160 768 OFFCURVE",
"147 781 OFFCURVE",
"130 781 CURVE SMOOTH",
"114 781 OFFCURVE",
"100 768 OFFCURVE",
"100 751 CURVE SMOOTH",
"100 30 LINE SMOOTH",
"100 13 OFFCURVE",
"114 0 OFFCURVE",
"130 0 CURVE SMOOTH",
"571 0 LINE SMOOTH",
"589 0 OFFCURVE",
"601 11 OFFCURVE",
"601 27 CURVE SMOOTH",
"601 43 OFFCURVE",
"589 54 OFFCURVE",
"571 54 CURVE SMOOTH"
);
}
);
width = 626;
}
);
leftKerningGroup = H;
leftMetricsKey = H;
rightKerningGroup = L;
unicode = 004C;
},
{
glyphname = Lslash;
layers = (
{
layerId = UUID0;
paths = (
{
closed = 1;
nodes = (
"216 104 LINE",
"216 371 LINE",
"412 559 LINE SMOOTH",
"422 569 OFFCURVE",
"427 581 OFFCURVE",
"427 595 CURVE SMOOTH",
"427 622 OFFCURVE",
"404 648 OFFCURVE",
"375 648 CURVE SMOOTH",
"361 648 OFFCURVE",
"348 643 OFFCURVE",
"338 633 CURVE SMOOTH",
"216 516 LINE",
"216 729 LINE SMOOTH",
"216 759 OFFCURVE",
"193 781 OFFCURVE",
"164 781 CURVE SMOOTH",
"135 781 OFFCURVE",
"112 759 OFFCURVE",
"112 729 CURVE SMOOTH",
"112 414 LINE",
"26 328 LINE SMOOTH",
"16 318 OFFCURVE",
"11 306 OFFCURVE",
"11 292 CURVE SMOOTH",
"11 262 OFFCURVE",
"35 240 OFFCURVE",
"65 240 CURVE SMOOTH",
"79 240 OFFCURVE",
"90 245 OFFCURVE",
"100 255 CURVE SMOOTH",
"112 268 LINE",
"112 52 LINE SMOOTH",
"112 22 OFFCURVE",
"135 0 OFFCURVE",
"164 0 CURVE SMOOTH",
"578 0 LINE SMOOTH",
"607 0 OFFCURVE",
"630 22 OFFCURVE",
"630 52 CURVE SMOOTH",
"630 81 OFFCURVE",
"607 104 OFFCURVE",
"578 104 CURVE SMOOTH"
);
}
);
width = 664;
},
{
layerId = "952115DE-4B60-44C8-B7C0-A1F0450151B4";
paths = (
{
closed = 1;
nodes = (
"180 60 LINE",
"180 379 LINE",
"333 532 LINE SMOOTH",
"339 538 OFFCURVE",
"342 545 OFFCURVE",
"342 553 CURVE SMOOTH",
"342 569 OFFCURVE",
"328 584 OFFCURVE",
"312 584 CURVE SMOOTH",
"303 584 OFFCURVE",
"297 579 OFFCURVE",
"291 574 CURVE SMOOTH",
"180 464 LINE",
"180 751 LINE SMOOTH",
"180 768 OFFCURVE",
"167 781 OFFCURVE",
"150 781 CURVE SMOOTH",
"133 781 OFFCURVE",
"120 768 OFFCURVE",
"120 751 CURVE SMOOTH",
"120 405 LINE",
"21 307 LINE SMOOTH",
"16 301 OFFCURVE",
"13 294 OFFCURVE",
"13 286 CURVE SMOOTH",
"13 268 OFFCURVE",
"27 255 OFFCURVE",
"42 255 CURVE SMOOTH",
"51 255 OFFCURVE",
"58 258 OFFCURVE",
"63 264 CURVE",
"120 320 LINE",
"120 30 LINE SMOOTH",
"120 13 OFFCURVE",
"133 0 OFFCURVE",
"150 0 CURVE SMOOTH",
"591 0 LINE SMOOTH",
"608 0 OFFCURVE",
"621 13 OFFCURVE",
"621 30 CURVE SMOOTH",
"621 46 OFFCURVE",
"608 60 OFFCURVE",
"591 60 CURVE SMOOTH"
);
}
);
width = 664;
}
);
leftKerningGroup = Hbar;
rightKerningGroup = L;
unicode = 0141;
},
{
glyphname = M;
layers = (
{
anchors = (
{
name = bottom;
position = "{491, 0}";
},
{
name = top;
position = "{491, 781}";
}
);
layerId = UUID0;
paths = (
{
closed = 1;
nodes = (
"204 585 LINE",
"184 580 LINE",
"443 61 LINE SMOOTH",
"453 40 OFFCURVE",
"469 30 OFFCURVE",
"491 30 CURVE SMOOTH",
"511 30 OFFCURVE",
"525 39 OFFCURVE",
"536 56 CURVE",
"798 590 LINE",
"778 585 LINE",
"778 52 LINE SMOOTH",
"778 23 OFFCURVE",
"801 0 OFFCURVE",
"830 0 CURVE SMOOTH",
"858 0 OFFCURVE",
"882 23 OFFCURVE",
"882 52 CURVE SMOOTH",
"882 729 LINE SMOOTH",
"882 759 OFFCURVE",
"859 781 OFFCURVE",
"830 781 CURVE SMOOTH",
"811 781 OFFCURVE",
"795 772 OFFCURVE",
"784 753 CURVE",
"479 126 LINE",
"511 126 LINE",
"198 753 LINE",
"187 772 OFFCURVE",
"172 781 OFFCURVE",
"152 781 CURVE SMOOTH",
"123 781 OFFCURVE",
"100 759 OFFCURVE",
"100 729 CURVE SMOOTH",
"100 52 LINE SMOOTH",
"100 23 OFFCURVE",
"123 0 OFFCURVE",
"152 0 CURVE SMOOTH",
"181 0 OFFCURVE",
"204 23 OFFCURVE",
"204 52 CURVE SMOOTH"
);
}
);
width = 982;
},
{
anchors = (
{
name = bottom;
position = "{491, 0}";
},
{
name = top;
position = "{491, 781}";
}
);
background = {
paths = (
{
closed = 1;
nodes = (
"868 0 OFFCURVE",
"881 13 OFFCURVE",
"881 30 CURVE SMOOTH",
"881 751 LINE SMOOTH",
"881 768 OFFCURVE",
"868 781 OFFCURVE",
"851 781 CURVE SMOOTH",
"838 781 OFFCURVE",
"830 776 OFFCURVE",
"824 766 CURVE SMOOTH",
"470 57 LINE",
"505 57 LINE",
"156 766 LINE",
"150 776 OFFCURVE",
"142 781 OFFCURVE",
"129 781 CURVE SMOOTH",
"112 781 OFFCURVE",
"100 768 OFFCURVE",
"100 751 CURVE SMOOTH",
"100 30 LINE SMOOTH",
"100 13 OFFCURVE",
"112 0 OFFCURVE",
"129 0 CURVE SMOOTH",
"147 0 OFFCURVE",
"160 13 OFFCURVE",
"160 30 CURVE SMOOTH",
"160 669 LINE",
"145 664 LINE",
"464 14 LINE SMOOTH",
"469 4 OFFCURVE",
"479 0 OFFCURVE",
"490 0 CURVE SMOOTH",
"503 0 OFFCURVE",
"513 6 OFFCURVE",
"518 19 CURVE SMOOTH",
"841 664 LINE",
"821 669 LINE",
"821 30 LINE SMOOTH",
"821 13 OFFCURVE",
"834 0 OFFCURVE",
"851 0 CURVE SMOOTH"
);
}
);
};
layerId = "952115DE-4B60-44C8-B7C0-A1F0450151B4";
paths = (
{
closed = 1;
nodes = (
"160 679 LINE",
"140 674 LINE",
"463 29 LINE SMOOTH",
"469 17 OFFCURVE",
"478 10 OFFCURVE",
"491 10 CURVE SMOOTH",
"502 10 OFFCURVE",
"512 14 OFFCURVE",
"517 24 CURVE SMOOTH",
"836 674 LINE",
"821 679 LINE",
"821 30 LINE SMOOTH",
"821 13 OFFCURVE",
"834 0 OFFCURVE",
"852 0 CURVE SMOOTH",
"869 0 OFFCURVE",
"881 13 OFFCURVE",
"881 30 CURVE SMOOTH",
"881 751 LINE SMOOTH",
"881 768 OFFCURVE",
"869 781 OFFCURVE",
"852 781 CURVE SMOOTH",
"839 781 OFFCURVE",
"831 776 OFFCURVE",
"825 766 CURVE",
"476 67 LINE",
"511 67 LINE",
"157 766 LINE SMOOTH",
"152 776 OFFCURVE",
"143 781 OFFCURVE",
"130 781 CURVE SMOOTH",
"113 781 OFFCURVE",
"100 768 OFFCURVE",
"100 751 CURVE SMOOTH",
"100 30 LINE SMOOTH",
"100 13 OFFCURVE",
"113 0 OFFCURVE",
"130 0 CURVE SMOOTH",
"147 0 OFFCURVE",
"160 13 OFFCURVE",
"160 30 CURVE SMOOTH"
);
}
);
width = 981;
}
);
leftKerningGroup = H;
leftMetricsKey = H;
rightKerningGroup = H;
rightMetricsKey = H;
unicode = 004D;
},
{
glyphname = N;
layers = (
{
anchors = (
{
name = bottom;
position = "{415, 0}";
},
{
name = top;
position = "{415, 781}";
}
);
layerId = UUID0;
paths = (
{
closed = 1;
nodes = (
"627 182 LINE",
"191 762 LINE",
"182 773 OFFCURVE",
"165 781 OFFCURVE",
"151 781 CURVE SMOOTH",
"121 781 OFFCURVE",
"100 759 OFFCURVE",
"100 729 CURVE SMOOTH",
"100 52 LINE SMOOTH",
"100 22 OFFCURVE",
"121 0 OFFCURVE",
"151 0 CURVE SMOOTH",
"181 0 OFFCURVE",
"203 22 OFFCURVE",
"203 52 CURVE SMOOTH",
"203 598 LINE",
"639 18 LINE SMOOTH",
"648 6 OFFCURVE",
"665 0 OFFCURVE",
"679 0 CURVE SMOOTH",
"709 0 OFFCURVE",
"730 22 OFFCURVE",
"730 52 CURVE SMOOTH",
"730 729 LINE SMOOTH",
"730 759 OFFCURVE",
"709 781 OFFCURVE",
"679 781 CURVE SMOOTH",
"649 781 OFFCURVE",
"627 759 OFFCURVE",
"627 729 CURVE SMOOTH"
);
}
);
width = 830;
},
{
anchors = (
{
name = bottom;
position = "{411, 0}";
},
{
name = top;
position = "{411, 781}";
}
);
layerId = "952115DE-4B60-44C8-B7C0-A1F0450151B4";
paths = (
{
closed = 1;
nodes = (
"661 110 LINE",
"153 771 LINE SMOOTH",
"147 778 OFFCURVE",
"140 781 OFFCURVE",
"130 781 CURVE SMOOTH",
"113 781 OFFCURVE",
"100 768 OFFCURVE",
"100 751 CURVE SMOOTH",
"100 30 LINE SMOOTH",
"100 13 OFFCURVE",
"113 0 OFFCURVE",
"130 0 CURVE SMOOTH",
"147 0 OFFCURVE",
"160 13 OFFCURVE",
"160 30 CURVE SMOOTH",
"160 671 LINE",
"669 9 LINE",
"674 3 OFFCURVE",
"682 0 OFFCURVE",
"691 0 CURVE SMOOTH",
"707 0 OFFCURVE",
"721 13 OFFCURVE",
"721 30 CURVE SMOOTH",
"721 751 LINE SMOOTH",
"721 768 OFFCURVE",
"707 781 OFFCURVE",
"691 781 CURVE SMOOTH",
"674 781 OFFCURVE",
"661 768 OFFCURVE",
"661 751 CURVE SMOOTH"
);
}
);
width = 821;
}
);
leftKerningGroup = H;
leftMetricsKey = H;
rightKerningGroup = H;
rightMetricsKey = H;
unicode = 004E;
},
{
glyphname = Eng;
layers = (
{
background = {
components = (
{
name = n;
transform = "{1, 0, 0, 1, 20, 230}";
}
);
};
layerId = UUID0;
paths = (
{
closed = 1;
nodes = (
"679 456 LINE SMOOTH",
"679 647 OFFCURVE",
"573 782 OFFCURVE",
"393 782 CURVE SMOOTH",
"308 782 OFFCURVE",
"250 744 OFFCURVE",
"203 679 CURVE",
"203 527 LINE",
"203 620 OFFCURVE",
"275 685 OFFCURVE",
"386 685 CURVE SMOOTH",
"511 685 OFFCURVE",
"576 601 OFFCURVE",
"576 456 CURVE SMOOTH",
"576 377 LINE SMOOTH",
"576 183 OFFCURVE",
"542 89 OFFCURVE",
"433 89 CURVE SMOOTH",
"397 89 OFFCURVE",
"359 100 OFFCURVE",
"346 131 CURVE SMOOTH",
"335 157 OFFCURVE",
"311 170 OFFCURVE",
"286 161 CURVE SMOOTH",
"263 153 OFFCURVE",
"253 129 OFFCURVE",
"262 104 CURVE SMOOTH",
"290 26 OFFCURVE",
"361 -10 OFFCURVE",
"439 -10 CURVE SMOOTH",
"594 -10 OFFCURVE",
"679 124 OFFCURVE",
"679 377 CURVE SMOOTH"
);
},
{
closed = 1;
nodes = (
"100 52 LINE SMOOTH",
"100 22 OFFCURVE",
"122 0 OFFCURVE",
"151 0 CURVE SMOOTH",
"180 0 OFFCURVE",
"203 22 OFFCURVE",
"203 52 CURVE SMOOTH",
"203 729 LINE SMOOTH",
"203 759 OFFCURVE",
"181 781 OFFCURVE",
"151 781 CURVE SMOOTH",
"122 781 OFFCURVE",
"100 759 OFFCURVE",
"100 729 CURVE SMOOTH"
);
}
);
width = 749;
},
{
background = {
paths = (
{
closed = 1;
nodes = (
"171 729 LINE SMOOTH",
"171 759 OFFCURVE",
"149 781 OFFCURVE",
"119 781 CURVE SMOOTH",
"90 781 OFFCURVE",
"68 759 OFFCURVE",
"68 729 CURVE SMOOTH",
"68 52 LINE SMOOTH",
"68 22 OFFCURVE",
"90 0 OFFCURVE",
"119 0 CURVE SMOOTH",
"149 0 OFFCURVE",
"171 22 OFFCURVE",
"171 52 CURVE SMOOTH"
);
},
{
closed = 1;
nodes = (
"286 753 OFFCURVE",
"218 715 OFFCURVE",
"171 650 CURVE",
"171 498 LINE",
"171 591 OFFCURVE",
"243 656 OFFCURVE",
"345 656 CURVE SMOOTH",
"479 656 OFFCURVE",
"544 572 OFFCURVE",
"544 427 CURVE SMOOTH",
"544 378 LINE SMOOTH",
"544 184 OFFCURVE",
"500 90 OFFCURVE",
"403 90 CURVE SMOOTH",
"355 90 OFFCURVE",
"327 101 OFFCURVE",
"314 132 CURVE SMOOTH",
"303 158 OFFCURVE",
"277 171 OFFCURVE",
"254 162 CURVE SMOOTH",
"231 153 OFFCURVE",
"221 130 OFFCURVE",
"230 105 CURVE SMOOTH",
"258 27 OFFCURVE",
"329 -9 OFFCURVE",
"415 -9 CURVE SMOOTH",
"562 -9 OFFCURVE",
"647 125 OFFCURVE",
"647 378 CURVE SMOOTH",
"647 427 LINE SMOOTH",
"647 618 OFFCURVE",
"531 753 OFFCURVE",
"368 753 CURVE SMOOTH"
);
}
);
};
layerId = "952115DE-4B60-44C8-B7C0-A1F0450151B4";
paths = (
{
closed = 1;
nodes = (
"623 496 LINE SMOOTH",
"623 668 OFFCURVE",
"504 781 OFFCURVE",
"360 781 CURVE SMOOTH",
"275 781 OFFCURVE",
"203 745 OFFCURVE",
"160 686 CURVE",
"160 563 LINE",
"160 656 OFFCURVE",
"243 721 OFFCURVE",
"360 721 CURVE SMOOTH",
"490 721 OFFCURVE",
"563 623 OFFCURVE",
"563 486 CURVE SMOOTH",
"563 318 LINE SMOOTH",
"563 135 OFFCURVE",
"511 47 OFFCURVE",
"412 47 CURVE SMOOTH",
"362 47 OFFCURVE",
"307 70 OFFCURVE",
"290 103 CURVE SMOOTH",
"283 117 OFFCURVE",
"271 127 OFFCURVE",
"259 127 CURVE SMOOTH",
"241 127 OFFCURVE",
"231 115 OFFCURVE",
"235 98 CURVE SMOOTH",
"250 36 OFFCURVE",
"328 -9 OFFCURVE",
"412 -9 CURVE SMOOTH",
"546 -9 OFFCURVE",
"623 103 OFFCURVE",
"623 318 CURVE SMOOTH"
);
},
{
closed = 1;
nodes = (
"100 30 LINE SMOOTH",
"100 13 OFFCURVE",
"113 0 OFFCURVE",
"130 0 CURVE SMOOTH",
"147 0 OFFCURVE",
"160 13 OFFCURVE",
"160 30 CURVE SMOOTH",
"160 751 LINE SMOOTH",
"160 768 OFFCURVE",
"147 781 OFFCURVE",
"130 781 CURVE SMOOTH",
"113 781 OFFCURVE",
"100 768 OFFCURVE",
"100 751 CURVE SMOOTH"
);
}
);
width = 693;
},
{
associatedMasterId = UUID0;
background = {
paths = (
{
closed = 1;
nodes = (
"256 753 OFFCURVE",
"188 722 OFFCURVE",
"141 670 CURVE",
"141 498 LINE",
"141 591 OFFCURVE",
"213 656 OFFCURVE",
"315 656 CURVE SMOOTH",
"423 656 OFFCURVE",
"499 574 OFFCURVE",
"499 457 CURVE SMOOTH",
"499 388 LINE SMOOTH",
"499 176 OFFCURVE",
"443 89 OFFCURVE",
"353 89 CURVE SMOOTH",
"294 89 OFFCURVE",
"261 104 OFFCURVE",
"244 141 CURVE SMOOTH",
"233 167 OFFCURVE",
"207 180 OFFCURVE",
"184 171 CURVE SMOOTH",
"161 161 OFFCURVE",
"151 139 OFFCURVE",
"160 114 CURVE SMOOTH",
"191 29 OFFCURVE",
"270 -10 OFFCURVE",
"365 -10 CURVE SMOOTH",
"512 -10 OFFCURVE",
"617 124 OFFCURVE",
"617 388 CURVE SMOOTH",
"617 457 LINE SMOOTH",
"617 630 OFFCURVE",
"501 753 OFFCURVE",
"338 753 CURVE SMOOTH"
);
}
);
};
layerId = "3D948E44-0D0C-49CE-8759-1CC4DEDD9C7C";
name = "Oct 21 16, 17:10";
paths = (
{
closed = 1;
nodes = (
"668 466 LINE SMOOTH",
"668 638 OFFCURVE",
"525 781 OFFCURVE",
"353 781 CURVE SMOOTH",
"265 781 OFFCURVE",
"191 750 OFFCURVE",
"129 687 CURVE",
"142 449 LINE",
"132 573 OFFCURVE",
"229 678 OFFCURVE",
"353 678 CURVE SMOOTH",
"470 678 OFFCURVE",
"565 582 OFFCURVE",
"565 466 CURVE SMOOTH",
"565 240 LINE SMOOTH",
"565 166 OFFCURVE",
"504 104 OFFCURVE",
"428 104 CURVE SMOOTH",
"389 104 OFFCURVE",
"359 117 OFFCURVE",
"332 144 CURVE SMOOTH",
"321 154 OFFCURVE",
"309 159 OFFCURVE",
"295 159 CURVE SMOOTH",
"267 159 OFFCURVE",
"243 136 OFFCURVE",
"243 107 CURVE SMOOTH",
"243 92 OFFCURVE",
"249 81 OFFCURVE",
"259 71 CURVE SMOOTH",
"306 23 OFFCURVE",
"361 0 OFFCURVE",
"428 0 CURVE SMOOTH",
"561 0 OFFCURVE",
"668 109 OFFCURVE",
"668 240 CURVE SMOOTH"
);
},
{
closed = 1;
nodes = (
"38 52 LINE SMOOTH",
"38 22 OFFCURVE",
"60 0 OFFCURVE",
"89 0 CURVE SMOOTH",
"119 0 OFFCURVE",
"141 22 OFFCURVE",
"141 52 CURVE SMOOTH",
"141 729 LINE SMOOTH",
"141 759 OFFCURVE",
"119 781 OFFCURVE",
"89 781 CURVE SMOOTH",
"60 781 OFFCURVE",
"38 759 OFFCURVE",
"38 729 CURVE SMOOTH"
);
}
);
width = 703;
},
{
associatedMasterId = "952115DE-4B60-44C8-B7C0-A1F0450151B4";
layerId = "B7524261-E046-4E55-BFD0-F769E8CE2D05";
name = "Oct 21 16, 17:11";
paths = (
{
closed = 1;
nodes = (
"661 471 LINE SMOOTH",
"661 640 OFFCURVE",
"520 781 OFFCURVE",
"350 781 CURVE SMOOTH",
"246 781 OFFCURVE",
"173 738 OFFCURVE",
"100 657 CURVE",
"100 751 LINE SMOOTH",
"100 768 OFFCURVE",
"87 781 OFFCURVE",
"70 781 CURVE SMOOTH",
"53 781 OFFCURVE",
"40 768 OFFCURVE",
"40 751 CURVE SMOOTH",
"40 30 LINE SMOOTH",
"40 13 OFFCURVE",
"53 0 OFFCURVE",
"70 0 CURVE SMOOTH",
"87 0 OFFCURVE",
"100 13 OFFCURVE",
"100 30 CURVE SMOOTH",
"100 471 LINE SMOOTH",
"100 608 OFFCURVE",
"214 721 OFFCURVE",
"350 721 CURVE SMOOTH",
"488 721 OFFCURVE",
"601 607 OFFCURVE",
"601 471 CURVE SMOOTH",
"601 230 LINE SMOOTH",
"601 138 OFFCURVE",
"524 60 OFFCURVE",
"430 60 CURVE SMOOTH",
"383 60 OFFCURVE",
"344 77 OFFCURVE",
"310 111 CURVE SMOOTH",
"305 116 OFFCURVE",
"296 119 OFFCURVE",
"289 119 CURVE SMOOTH",
"271 119 OFFCURVE",
"259 105 OFFCURVE",
"259 89 CURVE SMOOTH",
"259 81 OFFCURVE",
"262 74 OFFCURVE",
"268 68 CURVE SMOOTH",
"312 22 OFFCURVE",
"366 0 OFFCURVE",
"430 0 CURVE SMOOTH",
"559 0 OFFCURVE",
"661 104 OFFCURVE",
"661 230 CURVE SMOOTH"
);
}
);
width = 703;
}
);
leftKerningGroup = H;
leftMetricsKey = H;
rightKerningGroup = H;
unicode = 014A;
},
{
glyphname = O;
layers = (
{
anchors = (
{
name = bottom;
position = "{461, 0}";
},
{
name = center;
position = "{461, 391}";
},
{
name = ogonek;
position = "{459, 10}";
},
{
name = top;
position = "{461, 781}";
},
{
name = topleft;
position = "{20, 781}";
},
{
name = topright;
position = "{658, 742}";
}
);
background = {
paths = (
{
closed = 1;
nodes = (
"679 0 OFFCURVE",
"851 174 OFFCURVE",
"851 391 CURVE SMOOTH",
"851 610 OFFCURVE",
"676 781 OFFCURVE",
"461 781 CURVE SMOOTH",
"243 781 OFFCURVE",
"70 608 OFFCURVE",
"70 391 CURVE SMOOTH",
"70 172 OFFCURVE",
"242 0 OFFCURVE",
"461 0 CURVE SMOOTH"
);
},
{
closed = 1;
nodes = (
"303 104 OFFCURVE",
"174 233 OFFCURVE",
"174 391 CURVE SMOOTH",
"174 548 OFFCURVE",
"303 678 OFFCURVE",
"461 678 CURVE SMOOTH",
"618 678 OFFCURVE",
"748 547 OFFCURVE",
"748 391 CURVE SMOOTH",
"748 233 OFFCURVE",
"618 104 OFFCURVE",
"461 104 CURVE SMOOTH"
);
}
);
};
layerId = UUID0;
paths = (
{
closed = 1;
nodes = (
"226 791 OFFCURVE",
"64 625 OFFCURVE",
"64 391 CURVE SMOOTH",
"64 156 OFFCURVE",
"226 -10 OFFCURVE",
"461 -10 CURVE SMOOTH",
"695 -10 OFFCURVE",
"858 156 OFFCURVE",
"858 391 CURVE SMOOTH",
"858 625 OFFCURVE",
"695 791 OFFCURVE",
"461 791 CURVE SMOOTH"
);
},
{
closed = 1;
nodes = (
"635 697 OFFCURVE",
"758 565 OFFCURVE",
"758 391 CURVE SMOOTH",
"758 217 OFFCURVE",
"635 84 OFFCURVE",
"461 84 CURVE SMOOTH",
"287 84 OFFCURVE",
"164 217 OFFCURVE",
"164 391 CURVE SMOOTH",
"164 565 OFFCURVE",
"287 697 OFFCURVE",
"461 697 CURVE SMOOTH"
);
}
);
width = 921;
},
{
anchors = (
{
name = bottom;
position = "{461, 0}";
},
{
name = center;
position = "{461, 391}";
},
{
name = ogonek;
position = "{461, 10}";
},
{
name = top;
position = "{461, 781}";
},
{
name = topleft;
position = "{20, 781}";
},
{
name = topright;
position = "{642, 749}";
}
);
layerId = "952115DE-4B60-44C8-B7C0-A1F0450151B4";
paths = (
{
closed = 1;
nodes = (
"232 791 OFFCURVE",
"60 619 OFFCURVE",
"60 391 CURVE SMOOTH",
"60 162 OFFCURVE",
"232 -10 OFFCURVE",
"461 -10 CURVE SMOOTH",
"689 -10 OFFCURVE",
"861 162 OFFCURVE",
"861 391 CURVE SMOOTH",
"861 619 OFFCURVE",
"689 791 OFFCURVE",
"461 791 CURVE SMOOTH"
);
},
{
closed = 1;
nodes = (
"654 731 OFFCURVE",
"801 584 OFFCURVE",
"801 391 CURVE SMOOTH",
"801 197 OFFCURVE",
"654 50 OFFCURVE",
"461 50 CURVE SMOOTH",
"267 50 OFFCURVE",
"120 197 OFFCURVE",
"120 391 CURVE SMOOTH",
"120 584 OFFCURVE",
"267 731 OFFCURVE",
"461 731 CURVE SMOOTH"
);
}
);
width = 921;
},
{
associatedMasterId = "952115DE-4B60-44C8-B7C0-A1F0450151B4";
layerId = "C6ADB0AB-265E-4DE4-9438-1102989ED6CC";
name = "Oct 19 16, 15:46";
paths = (
{
closed = 1;
nodes = (
"212 781 OFFCURVE",
"39 608 OFFCURVE",
"39 391 CURVE SMOOTH",
"39 178 OFFCURVE",
"217 0 OFFCURVE",
"430 0 CURVE SMOOTH",
"650 0 OFFCURVE",
"820 175 OFFCURVE",
"820 391 CURVE SMOOTH",
"820 603 OFFCURVE",
"644 781 OFFCURVE",
"430 781 CURVE SMOOTH"
);
},
{
closed = 1;
nodes = (
"609 721 OFFCURVE",
"760 572 OFFCURVE",
"760 391 CURVE SMOOTH",
"760 209 OFFCURVE",
"611 60 OFFCURVE",
"430 60 CURVE SMOOTH",
"249 60 OFFCURVE",
"99 208 OFFCURVE",
"99 391 CURVE SMOOTH",
"99 574 OFFCURVE",
"251 721 OFFCURVE",
"430 721 CURVE SMOOTH"
);
}
);
width = 859;
}
);
leftKerningGroup = O;
rightKerningGroup = O;
unicode = 004F;
},
{
glyphname = Oslash;
layers = (
{
components = (
{
name = O;
}
);
layerId = UUID0;
paths = (
{
closed = 1;
nodes = (
"723 693 LINE",
"695 672 LINE",
"191 168 LINE",
"159 144 LINE",
"66 51 LINE SMOOTH",
"48 33 OFFCURVE",
"60 0 OFFCURVE",
"89 0 CURVE SMOOTH",
"97 0 OFFCURVE",
"104 2 OFFCURVE",
"110 8 CURVE SMOOTH",
"204 102 LINE",
"232 122 LINE",
"741 631 LINE",
"767 650 LINE",
"848 731 LINE SMOOTH",
"869 752 OFFCURVE",
"850 781 OFFCURVE",
"825 781 CURVE SMOOTH",
"817 781 OFFCURVE",
"810 779 OFFCURVE",
"804 773 CURVE SMOOTH"
);
}
);
width = 921;
},
{
background = {
components = (
{
name = O;
}
);
};
components = (
{
name = O;
}
);
layerId = "952115DE-4B60-44C8-B7C0-A1F0450151B4";
paths = (
{
closed = 1;
nodes = (
"723 693 LINE",
"695 672 LINE",
"191 168 LINE",
"159 144 LINE",
"66 51 LINE SMOOTH",
"48 33 OFFCURVE",
"60 0 OFFCURVE",
"89 0 CURVE SMOOTH",
"97 0 OFFCURVE",
"104 2 OFFCURVE",
"110 8 CURVE SMOOTH",
"204 102 LINE",
"232 122 LINE",
"741 631 LINE",
"767 650 LINE",
"848 731 LINE SMOOTH",
"869 752 OFFCURVE",
"850 781 OFFCURVE",
"825 781 CURVE SMOOTH",
"817 781 OFFCURVE",
"810 779 OFFCURVE",
"804 773 CURVE SMOOTH"
);
}
);
width = 859;
}
);
leftKerningGroup = O;
rightKerningGroup = O;
unicode = 00D8;
},
{
glyphname = OE;
layers = (
{
background = {
paths = (
{
closed = 1;
nodes = (
"663 781 LINE",
"608 781 OFFCURVE",
"547 791 OFFCURVE",
"481 791 CURVE SMOOTH",
"252 791 OFFCURVE",
"80 619 OFFCURVE",
"80 391 CURVE SMOOTH",
"80 162 OFFCURVE",
"252 -10 OFFCURVE",
"481 -10 CURVE SMOOTH",
"548 -10 OFFCURVE",
"609 1 OFFCURVE",
"664 1 CURVE",
"664 71 LINE",
"612 57 OFFCURVE",
"549 50 OFFCURVE",
"481 50 CURVE SMOOTH",
"287 50 OFFCURVE",
"140 197 OFFCURVE",
"140 391 CURVE SMOOTH",
"140 584 OFFCURVE",
"287 731 OFFCURVE",
"481 731 CURVE SMOOTH",
"549 731 OFFCURVE",
"611 724 OFFCURVE",
"663 712 CURVE"
);
},
{
closed = 1;
nodes = (
"1092 0 LINE SMOOTH",
"1108 0 OFFCURVE",
"1122 13 OFFCURVE",
"1122 30 CURVE SMOOTH",
"1122 46 OFFCURVE",
"1108 60 OFFCURVE",
"1092 60 CURVE SMOOTH",
"681 60 LINE",
"681 360 LINE",
"972 360 LINE SMOOTH",
"989 360 OFFCURVE",
"1002 374 OFFCURVE",
"1002 391 CURVE SMOOTH",
"1002 408 OFFCURVE",
"989 421 OFFCURVE",
"972 421 CURVE SMOOTH",
"681 421 LINE",
"681 721 LINE",
"1092 721 LINE SMOOTH",
"1108 721 OFFCURVE",
"1122 735 OFFCURVE",
"1122 751 CURVE SMOOTH",
"1122 768 OFFCURVE",
"1108 781 OFFCURVE",
"1092 781 CURVE SMOOTH",
"651 781 LINE SMOOTH",
"634 781 OFFCURVE",
"621 768 OFFCURVE",
"621 751 CURVE SMOOTH",
"621 30 LINE SMOOTH",
"621 13 OFFCURVE",
"634 0 OFFCURVE",
"651 0 CURVE SMOOTH"
);
}
);
};
layerId = UUID0;
paths = (
{
closed = 1;
nodes = (
"695 96 LINE",
"695 346 LINE",
"952 346 LINE SMOOTH",
"982 346 OFFCURVE",
"1003 366 OFFCURVE",
"1003 394 CURVE SMOOTH",
"1003 422 OFFCURVE",
"982 442 OFFCURVE",
"952 442 CURVE SMOOTH",
"695 442 LINE",
"695 685 LINE",
"1065 685 LINE SMOOTH",
"1095 685 OFFCURVE",
"1116 704 OFFCURVE",
"1116 732 CURVE SMOOTH",
"1116 761 OFFCURVE",
"1095 781 OFFCURVE",
"1065 781 CURVE SMOOTH",
"643 781 LINE SMOOTH",
"613 781 OFFCURVE",
"591 759 OFFCURVE",
"591 729 CURVE SMOOTH",
"591 52 LINE SMOOTH",
"591 22 OFFCURVE",
"613 0 OFFCURVE",
"643 0 CURVE SMOOTH",
"1065 0 LINE SMOOTH",
"1095 0 OFFCURVE",
"1116 20 OFFCURVE",
"1116 49 CURVE SMOOTH",
"1116 77 OFFCURVE",
"1095 96 OFFCURVE",
"1065 96 CURVE SMOOTH"
);
},
{
closed = 1;
nodes = (
"671 781 LINE",
"611 781 OFFCURVE",
"540 791 OFFCURVE",
"461 791 CURVE SMOOTH",
"226 791 OFFCURVE",
"64 625 OFFCURVE",
"64 391 CURVE SMOOTH",
"64 156 OFFCURVE",
"226 -10 OFFCURVE",
"461 -10 CURVE SMOOTH",
"539 -10 OFFCURVE",
"609 1 OFFCURVE",
"668 0 CURVE",
"668 113 LINE",
"616 94 OFFCURVE",
"544 84 OFFCURVE",
"461 84 CURVE SMOOTH",
"287 84 OFFCURVE",
"164 217 OFFCURVE",
"164 391 CURVE SMOOTH",
"164 565 OFFCURVE",
"287 697 OFFCURVE",
"461 697 CURVE SMOOTH",
"546 697 OFFCURVE",
"618 686 OFFCURVE",
"671 666 CURVE"
);
}
);
width = 1161;
},
{
background = {
paths = (
{
closed = 1;
nodes = (
"643 781 LINE",
"588 781 OFFCURVE",
"527 791 OFFCURVE",
"461 791 CURVE SMOOTH",
"232 791 OFFCURVE",
"60 619 OFFCURVE",
"60 391 CURVE SMOOTH",
"60 162 OFFCURVE",
"232 -10 OFFCURVE",
"461 -10 CURVE SMOOTH",
"528 -10 OFFCURVE",
"589 1 OFFCURVE",
"644 1 CURVE",
"644 71 LINE",
"592 57 OFFCURVE",
"529 50 OFFCURVE",
"461 50 CURVE SMOOTH",
"267 50 OFFCURVE",
"120 197 OFFCURVE",
"120 391 CURVE SMOOTH",
"120 584 OFFCURVE",
"267 731 OFFCURVE",
"461 731 CURVE SMOOTH",
"529 731 OFFCURVE",
"591 724 OFFCURVE",
"643 712 CURVE"
);
},
{
closed = 1;
nodes = (
"1072 0 LINE SMOOTH",
"1088 0 OFFCURVE",
"1102 13 OFFCURVE",
"1102 30 CURVE SMOOTH",
"1102 46 OFFCURVE",
"1088 60 OFFCURVE",
"1072 60 CURVE SMOOTH",
"661 60 LINE",
"661 360 LINE",
"952 360 LINE SMOOTH",
"969 360 OFFCURVE",
"982 374 OFFCURVE",
"982 391 CURVE SMOOTH",
"982 408 OFFCURVE",
"969 421 OFFCURVE",
"952 421 CURVE SMOOTH",
"661 421 LINE",
"661 721 LINE",
"1072 721 LINE SMOOTH",
"1088 721 OFFCURVE",
"1102 735 OFFCURVE",
"1102 751 CURVE SMOOTH",
"1102 768 OFFCURVE",
"1088 781 OFFCURVE",
"1072 781 CURVE SMOOTH",
"631 781 LINE SMOOTH",
"614 781 OFFCURVE",
"601 768 OFFCURVE",
"601 751 CURVE SMOOTH",
"601 30 LINE SMOOTH",
"601 13 OFFCURVE",
"614 0 OFFCURVE",
"631 0 CURVE SMOOTH"
);
}
);
};
layerId = "952115DE-4B60-44C8-B7C0-A1F0450151B4";
paths = (
{
closed = 1;
nodes = (
"661 60 LINE",
"661 360 LINE",
"952 360 LINE SMOOTH",
"969 360 OFFCURVE",
"982 374 OFFCURVE",
"982 391 CURVE SMOOTH",
"982 408 OFFCURVE",
"969 421 OFFCURVE",
"952 421 CURVE SMOOTH",
"661 421 LINE",
"661 721 LINE",
"1072 721 LINE SMOOTH",
"1088 721 OFFCURVE",
"1102 735 OFFCURVE",
"1102 751 CURVE SMOOTH",
"1102 768 OFFCURVE",
"1088 781 OFFCURVE",
"1072 781 CURVE SMOOTH",
"631 781 LINE SMOOTH",
"614 781 OFFCURVE",
"601 768 OFFCURVE",
"601 751 CURVE SMOOTH",
"601 30 LINE SMOOTH",
"601 13 OFFCURVE",
"614 0 OFFCURVE",
"631 0 CURVE SMOOTH",
"1072 0 LINE SMOOTH",
"1088 0 OFFCURVE",
"1102 13 OFFCURVE",
"1102 30 CURVE SMOOTH",
"1102 46 OFFCURVE",
"1088 60 OFFCURVE",
"1072 60 CURVE SMOOTH"
);
},
{
closed = 1;
nodes = (
"643 781 LINE",
"588 781 OFFCURVE",
"527 791 OFFCURVE",
"461 791 CURVE SMOOTH",
"232 791 OFFCURVE",
"60 619 OFFCURVE",
"60 391 CURVE SMOOTH",
"60 162 OFFCURVE",
"232 -10 OFFCURVE",
"461 -10 CURVE SMOOTH",
"528 -10 OFFCURVE",
"589 1 OFFCURVE",
"644 1 CURVE",
"644 71 LINE",
"592 57 OFFCURVE",
"529 50 OFFCURVE",
"461 50 CURVE SMOOTH",
"267 50 OFFCURVE",
"120 197 OFFCURVE",
"120 391 CURVE SMOOTH",
"120 584 OFFCURVE",
"267 731 OFFCURVE",
"461 731 CURVE SMOOTH",
"529 731 OFFCURVE",
"591 724 OFFCURVE",
"643 712 CURVE"
);
}
);
width = 1147;
}
);
leftKerningGroup = O;
leftMetricsKey = O;
rightKerningGroup = E;
rightMetricsKey = E;
unicode = 0152;
},
{
glyphname = P;
layers = (
{
anchors = (
{
name = bottom;
position = "{152, 0}";
},
{
name = top;
position = "{312, 781}";
}
);
layerId = UUID0;
paths = (
{
closed = 1;
nodes = (
"204 271 LINE",
"352 271 LINE SMOOTH",
"502 271 OFFCURVE",
"608 375 OFFCURVE",
"608 522 CURVE SMOOTH",
"608 674 OFFCURVE",
"502 781 OFFCURVE",
"352 781 CURVE SMOOTH",
"152 781 LINE SMOOTH",
"122 781 OFFCURVE",
"100 759 OFFCURVE",
"100 729 CURVE SMOOTH",
"100 52 LINE SMOOTH",
"100 22 OFFCURVE",
"122 0 OFFCURVE",
"152 0 CURVE SMOOTH",
"182 0 OFFCURVE",
"204 22 OFFCURVE",
"204 52 CURVE SMOOTH"
);
},
{
closed = 1;
nodes = (
"204 367 LINE",
"204 685 LINE",
"352 685 LINE SMOOTH",
"443 685 OFFCURVE",
"508 617 OFFCURVE",
"508 522 CURVE SMOOTH",
"508 431 OFFCURVE",
"443 367 OFFCURVE",
"352 367 CURVE SMOOTH"
);
}
);
width = 623;
},
{
anchors = (
{
name = bottom;
position = "{130, 0}";
},
{
name = top;
position = "{303, 781}";
}
);
layerId = "952115DE-4B60-44C8-B7C0-A1F0450151B4";
paths = (
{
closed = 1;
nodes = (
"160 280 LINE",
"330 280 LINE SMOOTH",
"476 280 OFFCURVE",
"580 384 OFFCURVE",
"580 531 CURVE SMOOTH",
"580 677 OFFCURVE",
"476 781 OFFCURVE",
"330 781 CURVE SMOOTH",
"130 781 LINE SMOOTH",
"112 781 OFFCURVE",
"100 769 OFFCURVE",
"100 751 CURVE SMOOTH",
"100 30 LINE SMOOTH",
"100 12 OFFCURVE",
"112 0 OFFCURVE",
"130 0 CURVE SMOOTH",
"148 0 OFFCURVE",
"160 12 OFFCURVE",
"160 30 CURVE SMOOTH"
);
},
{
closed = 1;
nodes = (
"160 340 LINE",
"160 721 LINE",
"330 721 LINE SMOOTH",
"441 721 OFFCURVE",
"520 642 OFFCURVE",
"520 531 CURVE SMOOTH",
"520 419 OFFCURVE",
"441 340 OFFCURVE",
"330 340 CURVE SMOOTH"
);
}
);
width = 605;
}
);
leftKerningGroup = H;
leftMetricsKey = H;
rightKerningGroup = P;
unicode = 0050;
},
{
glyphname = Thorn;
layers = (
{
background = {
anchors = (
{
name = bottom;
position = "{152, 0}";
},
{
name = ogonek;
position = "{152, 10}";
},
{
name = top;
position = "{312, 781}";
},
{
name = topleft;
position = "{20, 781}";
}
);
paths = (
{
closed = 1;
nodes = (
"204 671 LINE",
"204 729 LINE SMOOTH",
"204 759 OFFCURVE",
"182 781 OFFCURVE",
"152 781 CURVE SMOOTH",
"122 781 OFFCURVE",
"100 759 OFFCURVE",
"100 729 CURVE SMOOTH",
"100 52 LINE SMOOTH",
"100 22 OFFCURVE",
"122 0 OFFCURVE",
"152 0 CURVE SMOOTH",
"182 0 OFFCURVE",
"204 22 OFFCURVE",
"204 52 CURVE SMOOTH",
"204 161 LINE",
"352 161 LINE SMOOTH",
"502 161 OFFCURVE",
"608 265 OFFCURVE",
"608 412 CURVE SMOOTH",
"608 564 OFFCURVE",
"502 671 OFFCURVE",
"352 671 CURVE SMOOTH"
);
},
{
closed = 1;
nodes = (
"204 257 LINE",
"204 575 LINE",
"352 575 LINE SMOOTH",
"443 575 OFFCURVE",
"508 507 OFFCURVE",
"508 412 CURVE SMOOTH",
"508 321 OFFCURVE",
"443 257 OFFCURVE",
"352 257 CURVE SMOOTH"
);
}
);
};
layerId = UUID0;
paths = (
{
closed = 1;
nodes = (
"204 177 LINE",
"352 177 LINE SMOOTH",
"502 177 OFFCURVE",
"608 267 OFFCURVE",
"608 402 CURVE SMOOTH",
"608 542 OFFCURVE",
"502 635 OFFCURVE",
"352 635 CURVE SMOOTH",
"204 635 LINE",
"204 729 LINE SMOOTH",
"204 759 OFFCURVE",
"182 781 OFFCURVE",
"152 781 CURVE SMOOTH",
"122 781 OFFCURVE",
"100 759 OFFCURVE",
"100 729 CURVE SMOOTH",
"100 52 LINE SMOOTH",
"100 22 OFFCURVE",
"122 0 OFFCURVE",
"152 0 CURVE SMOOTH",
"182 0 OFFCURVE",
"204 22 OFFCURVE",
"204 52 CURVE SMOOTH"
);
},
{
closed = 1;
nodes = (
"204 267 LINE",
"204 545 LINE",
"352 545 LINE SMOOTH",
"443 545 OFFCURVE",
"508 485 OFFCURVE",
"508 402 CURVE SMOOTH",
"508 323 OFFCURVE",
"443 267 OFFCURVE",
"352 267 CURVE SMOOTH"
);
}
);
width = 623;
},
{
background = {
anchors = (
{
name = bottom;
position = "{130, 0}";
},
{
name = ogonek;
position = "{130, 10}";
},
{
name = top;
position = "{130, 781}";
},
{
name = topleft;
position = "{20, 781}";
}
);
paths = (
{
closed = 1;
nodes = (
"147 0 OFFCURVE",
"160 13 OFFCURVE",
"160 30 CURVE SMOOTH",
"160 751 LINE SMOOTH",
"160 768 OFFCURVE",
"147 781 OFFCURVE",
"130 781 CURVE SMOOTH",
"113 781 OFFCURVE",
"100 768 OFFCURVE",
"100 751 CURVE SMOOTH",
"100 30 LINE SMOOTH",
"100 13 OFFCURVE",
"113 0 OFFCURVE",
"130 0 CURVE SMOOTH"
);
}
);
};
layerId = "952115DE-4B60-44C8-B7C0-A1F0450151B4";
paths = (
{
closed = 1;
nodes = (
"160 190 LINE",
"330 190 LINE SMOOTH",
"476 190 OFFCURVE",
"580 286 OFFCURVE",
"580 421 CURVE SMOOTH",
"580 555 OFFCURVE",
"476 651 OFFCURVE",
"330 651 CURVE SMOOTH",
"160 651 LINE",
"160 751 LINE SMOOTH",
"160 768 OFFCURVE",
"147 781 OFFCURVE",
"130 781 CURVE SMOOTH",
"113 781 OFFCURVE",
"100 768 OFFCURVE",
"100 751 CURVE SMOOTH",
"100 30 LINE SMOOTH",
"100 12 OFFCURVE",
"112 0 OFFCURVE",
"130 0 CURVE SMOOTH",
"148 0 OFFCURVE",
"160 12 OFFCURVE",
"160 30 CURVE SMOOTH"
);
},
{
closed = 1;
nodes = (
"160 244 LINE",
"160 597 LINE",
"330 597 LINE SMOOTH",
"441 597 OFFCURVE",
"520 520 OFFCURVE",
"520 421 CURVE SMOOTH",
"520 321 OFFCURVE",
"441 244 OFFCURVE",
"330 244 CURVE SMOOTH"
);
}
);
width = 605;
}
);
leftKerningGroup = H;
leftMetricsKey = H;
rightKerningGroup = P;
rightMetricsKey = P;
unicode = 00DE;
},
{
glyphname = Q;
layers = (
{
anchors = (
{
name = bottom;
position = "{461, 0}";
},
{
name = top;
position = "{461, 781}";
}
);
background = {
paths = (
{
closed = 0;
nodes = (
"525 294 LINE",
"805 14 LINE"
);
}
);
};
components = (
{
name = O;
}
);
layerId = UUID0;
paths = (
{
closed = 1;
nodes = (
"734 16 LINE SMOOTH",
"755 -5 OFFCURVE",
"784 -5 OFFCURVE",
"805 16 CURVE SMOOTH",
"826 37 OFFCURVE",
"825 65 OFFCURVE",
"805 86 CURVE SMOOTH",
"596 296 LINE SMOOTH",
"575 317 OFFCURVE",
"546 317 OFFCURVE",
"525 296 CURVE SMOOTH",
"504 275 OFFCURVE",
"504 246 OFFCURVE",
"525 225 CURVE SMOOTH"
);
}
);
width = 921;
},
{
anchors = (
{
name = bottom;
position = "{461, 0}";
},
{
name = top;
position = "{461, 781}";
}
);
background = {
paths = (
{
closed = 0;
nodes = (
"548 271 LINE",
"811 10 LINE"
);
}
);
};
components = (
{
name = O;
}
);
layerId = "952115DE-4B60-44C8-B7C0-A1F0450151B4";
paths = (
{
closed = 1;
nodes = (
"770 9 LINE SMOOTH",
"782 -3 OFFCURVE",
"799 -3 OFFCURVE",
"811 9 CURVE SMOOTH",
"823 21 OFFCURVE",
"823 38 OFFCURVE",
"811 50 CURVE SMOOTH",
"589 270 LINE SMOOTH",
"577 282 OFFCURVE",
"560 282 OFFCURVE",
"548 270 CURVE SMOOTH",
"536 258 OFFCURVE",
"536 241 OFFCURVE",
"548 229 CURVE SMOOTH"
);
}
);
width = 921;
}
);
leftKerningGroup = O;
leftMetricsKey = O;
rightKerningGroup = O;
rightMetricsKey = O;
unicode = 0051;
},
{
glyphname = R;
layers = (
{
anchors = (
{
name = bottom;
position = "{348, 0}";
},
{
name = top;
position = "{348, 781}";
}
);
background = {
paths = (
{
closed = 1;
nodes = (
"182 0 OFFCURVE",
"204 22 OFFCURVE",
"204 52 CURVE SMOOTH",
"204 301 LINE",
"332 301 LINE SMOOTH",
"482 301 OFFCURVE",
"588 398 OFFCURVE",
"588 535 CURVE SMOOTH",
"588 680 OFFCURVE",
"482 781 OFFCURVE",
"332 781 CURVE SMOOTH",
"152 781 LINE SMOOTH",
"122 781 OFFCURVE",
"100 759 OFFCURVE",
"100 729 CURVE SMOOTH",
"100 52 LINE SMOOTH",
"100 22 OFFCURVE",
"122 0 OFFCURVE",
"152 0 CURVE SMOOTH"
);
},
{
closed = 1;
nodes = (
"204 685 LINE",
"332 685 LINE SMOOTH",
"423 685 OFFCURVE",
"488 623 OFFCURVE",
"488 535 CURVE SMOOTH",
"488 454 OFFCURVE",
"423 397 OFFCURVE",
"332 397 CURVE SMOOTH",
"204 397 LINE"
);
}
);
};
layerId = UUID0;
paths = (
{
closed = 1;
nodes = (
"204 301 LINE",
"332 301 LINE SMOOTH",
"482 301 OFFCURVE",
"588 398 OFFCURVE",
"588 535 CURVE SMOOTH",
"588 680 OFFCURVE",
"482 781 OFFCURVE",
"332 781 CURVE SMOOTH",
"152 781 LINE SMOOTH",
"122 781 OFFCURVE",
"100 759 OFFCURVE",
"100 729 CURVE SMOOTH",
"100 52 LINE SMOOTH",
"100 22 OFFCURVE",
"122 0 OFFCURVE",
"152 0 CURVE SMOOTH",
"182 0 OFFCURVE",
"204 22 OFFCURVE",
"204 52 CURVE SMOOTH"
);
},
{
closed = 1;
nodes = (
"443 344 LINE",
"342 315 LINE",
"522 25 LINE SMOOTH",
"533 8 OFFCURVE",
"548 0 OFFCURVE",
"567 0 CURVE SMOOTH",
"610 0 OFFCURVE",
"631 41 OFFCURVE",
"607 80 CURVE SMOOTH"
);
},
{
closed = 1;
nodes = (
"204 397 LINE",
"204 685 LINE",
"332 685 LINE SMOOTH",
"423 685 OFFCURVE",
"488 623 OFFCURVE",
"488 535 CURVE SMOOTH",
"488 454 OFFCURVE",
"423 397 OFFCURVE",
"332 397 CURVE SMOOTH"
);
}
);
width = 632;
},
{
anchors = (
{
name = bottom;
position = "{304, 0}";
},
{
name = top;
position = "{304, 781}";
}
);
background = {
paths = (
{
closed = 1;
nodes = (
"148 0 OFFCURVE",
"160 12 OFFCURVE",
"160 30 CURVE SMOOTH",
"160 310 LINE",
"321 310 LINE SMOOTH",
"467 310 OFFCURVE",
"571 407 OFFCURVE",
"571 544 CURVE SMOOTH",
"571 683 OFFCURVE",
"467 781 OFFCURVE",
"321 781 CURVE SMOOTH",
"130 781 LINE SMOOTH",
"112 781 OFFCURVE",
"100 769 OFFCURVE",
"100 751 CURVE SMOOTH",
"100 30 LINE SMOOTH",
"100 12 OFFCURVE",
"112 0 OFFCURVE",
"130 0 CURVE SMOOTH"
);
},
{
closed = 1;
nodes = (
"160 721 LINE",
"321 721 LINE SMOOTH",
"432 721 OFFCURVE",
"511 648 OFFCURVE",
"511 544 CURVE SMOOTH",
"511 442 OFFCURVE",
"432 370 OFFCURVE",
"321 370 CURVE SMOOTH",
"160 370 LINE"
);
}
);
};
layerId = "952115DE-4B60-44C8-B7C0-A1F0450151B4";
paths = (
{
closed = 1;
nodes = (
"160 310 LINE",
"321 310 LINE SMOOTH",
"467 310 OFFCURVE",
"571 407 OFFCURVE",
"571 544 CURVE SMOOTH",
"571 683 OFFCURVE",
"467 781 OFFCURVE",
"321 781 CURVE SMOOTH",
"130 781 LINE SMOOTH",
"112 781 OFFCURVE",
"100 769 OFFCURVE",
"100 751 CURVE SMOOTH",
"100 30 LINE SMOOTH",
"100 12 OFFCURVE",
"112 0 OFFCURVE",
"130 0 CURVE SMOOTH",
"148 0 OFFCURVE",
"160 12 OFFCURVE",
"160 30 CURVE SMOOTH"
);
},
{
closed = 1;
nodes = (
"386 348 LINE",
"324 334 LINE",
"523 16 LINE SMOOTH",
"529 7 OFFCURVE",
"535 0 OFFCURVE",
"550 0 CURVE SMOOTH",
"581 0 OFFCURVE",
"592 19 OFFCURVE",
"575 46 CURVE SMOOTH"
);
},
{
closed = 1;
nodes = (
"160 370 LINE",
"160 721 LINE",
"321 721 LINE SMOOTH",
"432 721 OFFCURVE",
"511 648 OFFCURVE",
"511 544 CURVE SMOOTH",
"511 442 OFFCURVE",
"432 370 OFFCURVE",
"321 370 CURVE SMOOTH"
);
}
);
width = 608;
}
);
leftKerningGroup = H;
leftMetricsKey = H;
rightKerningGroup = R;
rightMetricsKey = P;
unicode = 0052;
},
{
glyphname = S;
layers = (
{
anchors = (
{
name = bottom;
position = "{344, 0}";
},
{
name = top;
position = "{344, 781}";
}
);
background = {
components = (
{
name = O;
transform = "{1, 0, 0, 1, -100, 0}";
}
);
paths = (
{
closed = 0;
nodes = (
"544 640 LINE",
"506 703 OFFCURVE",
"442 733 OFFCURVE",
"363 733 CURVE SMOOTH",
"248 733 OFFCURVE",
"167 681 OFFCURVE",
"165 597 CURVE SMOOTH",
"164 510 OFFCURVE",
"226 437 OFFCURVE",
"368 411 CURVE SMOOTH",
"518 384 OFFCURVE",
"568 300 OFFCURVE",
"568 203 CURVE SMOOTH",
"568 108 OFFCURVE",
"505 37 OFFCURVE",
"364 37 CURVE SMOOTH",
"250 37 OFFCURVE",
"153 101 OFFCURVE",
"124 189 CURVE SMOOTH"
);
}
);
};
layerId = UUID0;
paths = (
{
closed = 1;
nodes = (
"205 790 OFFCURVE",
"83 715 OFFCURVE",
"83 584 CURVE SMOOTH",
"83 464 OFFCURVE",
"183 376 OFFCURVE",
"349 360 CURVE SMOOTH",
"475 347 OFFCURVE",
"527 284 OFFCURVE",
"527 213 CURVE SMOOTH",
"527 129 OFFCURVE",
"443 84 OFFCURVE",
"348 84 CURVE SMOOTH",
"261 84 OFFCURVE",
"183 127 OFFCURVE",
"160 177 CURVE SMOOTH",
"148 202 OFFCURVE",
"122 216 OFFCURVE",
"98 211 CURVE SMOOTH",
"64 204 OFFCURVE",
"49 177 OFFCURVE",
"62 149 CURVE SMOOTH",
"102 54 OFFCURVE",
"220 -10 OFFCURVE",
"348 -10 CURVE SMOOTH",
"492 -10 OFFCURVE",
"629 65 OFFCURVE",
"629 216 CURVE SMOOTH",
"629 348 OFFCURVE",
"536 432 OFFCURVE",
"377 448 CURVE SMOOTH",
"220 464 OFFCURVE",
"185 521 OFFCURVE",
"185 581 CURVE SMOOTH",
"185 660 OFFCURVE",
"260 697 OFFCURVE",
"359 696 CURVE SMOOTH",
"442 695 OFFCURVE",
"492 661 OFFCURVE",
"525 604 CURVE SMOOTH",
"540 578 OFFCURVE",
"574 567 OFFCURVE",
"599 583 CURVE SMOOTH",
"622 598 OFFCURVE",
"626 625 OFFCURVE",
"607 655 CURVE SMOOTH",
"556 736 OFFCURVE",
"483 790 OFFCURVE",
"362 790 CURVE SMOOTH"
);
}
);
width = 688;
},
{
anchors = (
{
name = bottom;
position = "{322, 0}";
},
{
name = top;
position = "{322, 781}";
}
);
background = {
components = (
{
name = O;
transform = "{1, 0, 0, 1, -139, 0}";
}
);
};
layerId = "952115DE-4B60-44C8-B7C0-A1F0450151B4";
paths = (
{
closed = 1;
nodes = (
"184 791 OFFCURVE",
"89 713 OFFCURVE",
"89 595 CURVE SMOOTH",
"89 487 OFFCURVE",
"178 406 OFFCURVE",
"327 385 CURVE SMOOTH",
"456 367 OFFCURVE",
"519 303 OFFCURVE",
"519 215 CURVE SMOOTH",
"519 109 OFFCURVE",
"448 50 OFFCURVE",
"334 50 CURVE SMOOTH",
"232 50 OFFCURVE",
"160 90 OFFCURVE",
"125 155 CURVE SMOOTH",
"117 170 OFFCURVE",
"101 177 OFFCURVE",
"86 172 CURVE SMOOTH",
"68 166 OFFCURVE",
"60 150 OFFCURVE",
"68 134 CURVE SMOOTH",
"112 46 OFFCURVE",
"207 -10 OFFCURVE",
"334 -10 CURVE SMOOTH",
"480 -10 OFFCURVE",
"579 75 OFFCURVE",
"579 215 CURVE SMOOTH",
"579 334 OFFCURVE",
"509 412 OFFCURVE",
"337 441 CURVE SMOOTH",
"206 463 OFFCURVE",
"149 517 OFFCURVE",
"149 589 CURVE SMOOTH",
"149 679 OFFCURVE",
"215 731 OFFCURVE",
"325 731 CURVE SMOOTH",
"419 731 OFFCURVE",
"468 685 OFFCURVE",
"496 644 CURVE SMOOTH",
"505 631 OFFCURVE",
"521 625 OFFCURVE",
"536 631 CURVE SMOOTH",
"553 638 OFFCURVE",
"558 657 OFFCURVE",
"549 672 CURVE SMOOTH",
"513 732 OFFCURVE",
"428 791 OFFCURVE",
"325 791 CURVE SMOOTH"
);
}
);
width = 644;
},
{
associatedMasterId = UUID0;
background = {
paths = (
{
closed = 0;
nodes = (
"418 640 LINE",
"386 703 OFFCURVE",
"330 733 OFFCURVE",
"267 733 CURVE SMOOTH",
"170 733 OFFCURVE",
"102 681 OFFCURVE",
"100 597 CURVE SMOOTH",
"99 515 OFFCURVE",
"146 459 OFFCURVE",
"271 421 CURVE SMOOTH",
"396 387 OFFCURVE",
"459 314 OFFCURVE",
"459 221 CURVE SMOOTH",
"459 120 OFFCURVE",
"397 49 OFFCURVE",
"256 49 CURVE SMOOTH",
"147 49 OFFCURVE",
"51 113 OFFCURVE",
"23 196 CURVE SMOOTH"
);
}
);
};
layerId = "BD378E97-6715-4C70-9C8D-1058DFB8D0AE";
name = "Oct 21 16, 11:52";
paths = (
{
closed = 1;
nodes = (
"145 732 LINE",
"98 692 OFFCURVE",
"73 641 OFFCURVE",
"73 577 CURVE SMOOTH",
"73 503 OFFCURVE",
"109 421 OFFCURVE",
"245 380 CURVE SMOOTH",
"372 343 OFFCURVE",
"384 286 OFFCURVE",
"384 241 CURVE SMOOTH",
"384 166 OFFCURVE",
"323 104 OFFCURVE",
"249 104 CURVE SMOOTH",
"202 104 OFFCURVE",
"158 125 OFFCURVE",
"131 167 CURVE SMOOTH",
"121 184 OFFCURVE",
"107 191 OFFCURVE",
"88 191 CURVE SMOOTH",
"59 191 OFFCURVE",
"36 169 OFFCURVE",
"36 140 CURVE SMOOTH",
"36 127 OFFCURVE",
"40 117 OFFCURVE",
"46 108 CURVE",
"93 39 OFFCURVE",
"173 0 OFFCURVE",
"250 0 CURVE SMOOTH",
"307 0 OFFCURVE",
"358 19 OFFCURVE",
"404 58 CURVE",
"403 58 LINE",
"459 105 OFFCURVE",
"488 167 OFFCURVE",
"488 243 CURVE SMOOTH",
"488 325 OFFCURVE",
"443 433 OFFCURVE",
"269 482 CURVE SMOOTH",
"201 501 OFFCURVE",
"177 528 OFFCURVE",
"177 578 CURVE SMOOTH",
"177 634 OFFCURVE",
"226 677 OFFCURVE",
"275 677 CURVE SMOOTH",
"306 677 OFFCURVE",
"335 666 OFFCURVE",
"351 643 CURVE SMOOTH",
"367 619 OFFCURVE",
"379 603 OFFCURVE",
"405 603 CURVE SMOOTH",
"435 603 OFFCURVE",
"457 625 OFFCURVE",
"457 654 CURVE SMOOTH",
"457 665 OFFCURVE",
"455 674 OFFCURVE",
"450 682 CURVE SMOOTH",
"408 749 OFFCURVE",
"341 781 OFFCURVE",
"276 781 CURVE SMOOTH",
"226 781 OFFCURVE",
"182 765 OFFCURVE",
"144 732 CURVE"
);
}
);
width = 518;
},
{
associatedMasterId = "952115DE-4B60-44C8-B7C0-A1F0450151B4";
layerId = "BDAFB9B8-B4AD-44B2-B125-21DD816C398E";
name = "Oct 21 16, 12:09";
paths = (
{
closed = 0;
nodes = (
"44 189 LINE SMOOTH",
"73 101 OFFCURVE",
"160 37 OFFCURVE",
"283 37 CURVE SMOOTH",
"415 37 OFFCURVE",
"488 108 OFFCURVE",
"488 215 CURVE SMOOTH",
"488 300 OFFCURVE",
"438 384 OFFCURVE",
"288 411 CURVE SMOOTH",
"153 437 OFFCURVE",
"93 510 OFFCURVE",
"95 591 CURVE SMOOTH",
"97 681 OFFCURVE",
"174 733 OFFCURVE",
"281 733 CURVE SMOOTH",
"362 733 OFFCURVE",
"426 703 OFFCURVE",
"464 640 CURVE"
);
}
);
width = 518;
}
);
leftKerningGroup = S;
rightKerningGroup = S;
unicode = 0053;
},
{
glyphname = Germandbls;
layers = (
{
background = {
paths = (
{
closed = 1;
nodes = (
"335 481 LINE",
"335 421 LINE",
"390 421 LINE SMOOTH",
"497 421 OFFCURVE",
"560 342 OFFCURVE",
"560 237 CURVE SMOOTH",
"560 136 OFFCURVE",
"487 54 OFFCURVE",
"390 54 CURVE SMOOTH",
"333 54 OFFCURVE",
"268 77 OFFCURVE",
"239 100 CURVE",
"239 40 LINE",
"268 17 OFFCURVE",
"333 -6 OFFCURVE",
"390 -6 CURVE SMOOTH",
"521 -6 OFFCURVE",
"620 102 OFFCURVE",
"620 237 CURVE SMOOTH",
"620 376 OFFCURVE",
"528 481 OFFCURVE",
"383 481 CURVE SMOOTH"
);
},
{
closed = 1;
nodes = (
"349 421 LINE",
"564 654 LINE",
"529 729 OFFCURVE",
"429 781 OFFCURVE",
"338 781 CURVE SMOOTH",
"204 781 OFFCURVE",
"100 713 OFFCURVE",
"100 551 CURVE SMOOTH",
"100 0 LINE",
"160 0 LINE",
"160 531 LINE SMOOTH",
"160 666 OFFCURVE",
"229 725 OFFCURVE",
"335 725 CURVE SMOOTH",
"395 725 OFFCURVE",
"462 694 OFFCURVE",
"490 654 CURVE",
"335 481 LINE"
);
}
);
};
layerId = "952115DE-4B60-44C8-B7C0-A1F0450151B4";
paths = (
{
closed = 1;
nodes = (
"349 481 LINE SMOOTH",
"333 481 OFFCURVE",
"320 468 OFFCURVE",
"320 451 CURVE SMOOTH",
"320 434 OFFCURVE",
"333 421 OFFCURVE",
"349 421 CURVE SMOOTH",
"390 421 LINE SMOOTH",
"497 421 OFFCURVE",
"560 342 OFFCURVE",
"560 237 CURVE SMOOTH",
"560 136 OFFCURVE",
"487 54 OFFCURVE",
"390 54 CURVE SMOOTH",
"335 54 OFFCURVE",
"317 67 OFFCURVE",
"278 85 CURVE SMOOTH",
"255 96 OFFCURVE",
"233 80 OFFCURVE",
"233 61 CURVE SMOOTH",
"233 44 OFFCURVE",
"240 38 OFFCURVE",
"253 30 CURVE SMOOTH",
"281 13 OFFCURVE",
"329 -6 OFFCURVE",
"390 -6 CURVE SMOOTH",
"521 -6 OFFCURVE",
"620 102 OFFCURVE",
"620 237 CURVE SMOOTH",
"620 376 OFFCURVE",
"528 481 OFFCURVE",
"383 481 CURVE SMOOTH"
);
},
{
closed = 1;
nodes = (
"330 474 LINE",
"349 421 LINE",
"531 619 LINE SMOOTH",
"544 634 OFFCURVE",
"554 657 OFFCURVE",
"542 678 CURVE SMOOTH",
"512 731 OFFCURVE",
"422 781 OFFCURVE",
"338 781 CURVE SMOOTH",
"204 781 OFFCURVE",
"100 713 OFFCURVE",
"100 551 CURVE SMOOTH",
"100 27 LINE SMOOTH",
"100 13 OFFCURVE",
"109 0 OFFCURVE",
"129 0 CURVE SMOOTH",
"148 0 OFFCURVE",
"160 12 OFFCURVE",
"160 27 CURVE SMOOTH",
"160 531 LINE SMOOTH",
"160 666 OFFCURVE",
"229 725 OFFCURVE",
"335 725 CURVE SMOOTH",
"395 725 OFFCURVE",
"462 694 OFFCURVE",
"490 654 CURVE"
);
}
);
width = 675;
},
{
background = {
paths = (
{
closed = 1;
nodes = (
"379 481 LINE SMOOTH",
"363 481 OFFCURVE",
"350 468 OFFCURVE",
"350 451 CURVE SMOOTH",
"350 434 OFFCURVE",
"363 421 OFFCURVE",
"379 421 CURVE SMOOTH",
"420 421 LINE SMOOTH",
"527 421 OFFCURVE",
"590 342 OFFCURVE",
"590 237 CURVE SMOOTH",
"590 136 OFFCURVE",
"517 54 OFFCURVE",
"420 54 CURVE SMOOTH",
"365 54 OFFCURVE",
"347 66 OFFCURVE",
"308 85 CURVE SMOOTH",
"285 96 OFFCURVE",
"263 80 OFFCURVE",
"263 61 CURVE SMOOTH",
"263 44 OFFCURVE",
"270 38 OFFCURVE",
"283 30 CURVE SMOOTH",
"311 13 OFFCURVE",
"359 -6 OFFCURVE",
"420 -6 CURVE SMOOTH",
"551 -6 OFFCURVE",
"650 102 OFFCURVE",
"650 237 CURVE SMOOTH",
"650 376 OFFCURVE",
"558 481 OFFCURVE",
"413 481 CURVE SMOOTH"
);
},
{
closed = 1;
nodes = (
"379 421 LINE",
"561 619 LINE SMOOTH",
"574 634 OFFCURVE",
"584 657 OFFCURVE",
"572 678 CURVE SMOOTH",
"542 731 OFFCURVE",
"452 781 OFFCURVE",
"368 781 CURVE SMOOTH",
"234 781 OFFCURVE",
"130 713 OFFCURVE",
"130 551 CURVE SMOOTH",
"130 27 LINE SMOOTH",
"130 13 OFFCURVE",
"139 0 OFFCURVE",
"159 0 CURVE SMOOTH",
"178 0 OFFCURVE",
"190 12 OFFCURVE",
"190 27 CURVE SMOOTH",
"190 531 LINE SMOOTH",
"190 666 OFFCURVE",
"259 725 OFFCURVE",
"365 725 CURVE SMOOTH",
"425 725 OFFCURVE",
"492 694 OFFCURVE",
"520 654 CURVE",
"357 470 LINE"
);
}
);
};
guideLines = (
{
angle = 90;
position = "{289, 132}";
}
);
layerId = UUID0;
paths = (
{
closed = 1;
nodes = (
"369 460 LINE SMOOTH",
"342 460 OFFCURVE",
"322 440 OFFCURVE",
"322 411 CURVE SMOOTH",
"322 384 OFFCURVE",
"342 364 OFFCURVE",
"369 364 CURVE SMOOTH",
"412 364 LINE SMOOTH",
"503 364 OFFCURVE",
"568 321 OFFCURVE",
"568 236 CURVE SMOOTH",
"568 144 OFFCURVE",
"503 96 OFFCURVE",
"412 96 CURVE SMOOTH",
"391 96 OFFCURVE",
"369 97 OFFCURVE",
"348 102 CURVE SMOOTH",
"315 109 OFFCURVE",
"289 94 OFFCURVE",
"289 63 CURVE SMOOTH",
"289 37 OFFCURVE",
"296 25 OFFCURVE",
"309 18 CURVE",
"341 3 OFFCURVE",
"378 0 OFFCURVE",
"412 0 CURVE SMOOTH",
"562 0 OFFCURVE",
"668 98 OFFCURVE",
"668 236 CURVE SMOOTH",
"668 377 OFFCURVE",
"562 460 OFFCURVE",
"437 460 CURVE SMOOTH"
);
},
{
closed = 1;
nodes = (
"332 443 LINE",
"388 389 LINE",
"562 570 LINE SMOOTH",
"581 590 OFFCURVE",
"593 604 OFFCURVE",
"593 641 CURVE SMOOTH",
"593 710 OFFCURVE",
"492 781 OFFCURVE",
"361 781 CURVE SMOOTH",
"212 781 OFFCURVE",
"100 677 OFFCURVE",
"100 539 CURVE SMOOTH",
"100 47 LINE SMOOTH",
"100 20 OFFCURVE",
"115 0 OFFCURVE",
"150 0 CURVE SMOOTH",
"184 0 OFFCURVE",
"204 20 OFFCURVE",
"204 47 CURVE SMOOTH",
"204 537 LINE SMOOTH",
"204 621 OFFCURVE",
"272 685 OFFCURVE",
"362 685 CURVE SMOOTH",
"426 685 OFFCURVE",
"470 670 OFFCURVE",
"505 631 CURVE"
);
}
);
width = 723;
}
);
leftKerningGroup = H;
leftMetricsKey = H;
rightKerningGroup = Germandbls;
rightMetricsKey = B;
unicode = 1E9E;
},
{
glyphname = Schwa;
layers = (
{
background = {
components = (
{
name = H;
transform = "{1, 0, 0, 1, 9, 0}";
}
);
};
layerId = "952115DE-4B60-44C8-B7C0-A1F0450151B4";
paths = (
{
closed = 1;
nodes = (
"86 367 LINE",
"722 367 LINE",
"722 421 LINE",
"102 421 LINE SMOOTH",
"78 421 OFFCURVE",
"60 405 OFFCURVE",
"60 381 CURVE SMOOTH",
"60 155 OFFCURVE",
"191 -10 OFFCURVE",
"410 -10 CURVE SMOOTH",
"621 -10 OFFCURVE",
"770 153 OFFCURVE",
"770 388 CURVE SMOOTH",
"770 623 OFFCURVE",
"607 791 OFFCURVE",
"378 791 CURVE SMOOTH",
"277 791 OFFCURVE",
"191 757 OFFCURVE",
"132 706 CURVE SMOOTH",
"123 698 OFFCURVE",
"118 679 OFFCURVE",
"131 665 CURVE SMOOTH",
"144 651 OFFCURVE",
"163 656 OFFCURVE",
"176 666 CURVE SMOOTH",
"231 708 OFFCURVE",
"303 731 OFFCURVE",
"378 731 CURVE SMOOTH",
"575 731 OFFCURVE",
"709 587 OFFCURVE",
"709 388 CURVE SMOOTH",
"709 193 OFFCURVE",
"587 50 OFFCURVE",
"410 50 CURVE SMOOTH",
"233 50 OFFCURVE",
"113 194 OFFCURVE",
"119 387 CURVE"
);
}
);
width = 830;
},
{
background = {
components = (
{
name = H;
transform = "{1, 0, 0, 1, -10, -6}";
}
);
};
layerId = UUID0;
paths = (
{
closed = 1;
nodes = (
"107 344 LINE",
"736 344 LINE",
"736 436 LINE",
"131 436 LINE SMOOTH",
"92 436 OFFCURVE",
"64 410 OFFCURVE",
"64 373 CURVE SMOOTH",
"64 155 OFFCURVE",
"224 -9 OFFCURVE",
"437 -9 CURVE SMOOTH",
"636 -9 OFFCURVE",
"787 161 OFFCURVE",
"787 386 CURVE SMOOTH",
"787 620 OFFCURVE",
"617 790 OFFCURVE",
"395 790 CURVE SMOOTH",
"294 790 OFFCURVE",
"214 760 OFFCURVE",
"146 706 CURVE SMOOTH",
"127 691 OFFCURVE",
"127 664 OFFCURVE",
"143 646 CURVE SMOOTH",
"159 628 OFFCURVE",
"184 625 OFFCURVE",
"205 640 CURVE SMOOTH",
"257 675 OFFCURVE",
"318 696 OFFCURVE",
"385 696 CURVE SMOOTH",
"559 696 OFFCURVE",
"689 568 OFFCURVE",
"689 386 CURVE SMOOTH",
"689 214 OFFCURVE",
"581 84 OFFCURVE",
"437 84 CURVE SMOOTH",
"288 84 OFFCURVE",
"171 203 OFFCURVE",
"166 361 CURVE"
);
}
);
width = 850;
}
);
leftKerningGroup = O;
leftMetricsKey = O;
rightKerningGroup = O;
rightMetricsKey = O;
unicode = 018F;
},
{
glyphname = T;
layers = (
{
anchors = (
{
name = bottom;
position = "{331, 0}";
},
{
name = center;
position = "{331, 391}";
},
{
name = top;
position = "{331, 781}";
}
);
background = {
paths = (
{
closed = 1;
nodes = (
"578 685 LINE SMOOTH",
"606 685 OFFCURVE",
"626 705 OFFCURVE",
"626 733 CURVE SMOOTH",
"626 761 OFFCURVE",
"606 781 OFFCURVE",
"578 781 CURVE SMOOTH",
"83 781 LINE SMOOTH",
"55 781 OFFCURVE",
"35 761 OFFCURVE",
"35 733 CURVE SMOOTH",
"35 705 OFFCURVE",
"55 685 OFFCURVE",
"83 685 CURVE SMOOTH"
);
}
);
};
layerId = UUID0;
paths = (
{
closed = 1;
nodes = (
"63 781 LINE SMOOTH",
"35 781 OFFCURVE",
"15 761 OFFCURVE",
"15 733 CURVE SMOOTH",
"15 705 OFFCURVE",
"35 685 OFFCURVE",
"63 685 CURVE SMOOTH",
"598 685 LINE SMOOTH",
"626 685 OFFCURVE",
"646 705 OFFCURVE",
"646 733 CURVE SMOOTH",
"646 761 OFFCURVE",
"626 781 OFFCURVE",
"598 781 CURVE SMOOTH"
);
},
{
closed = 1;
nodes = (
"383 781 LINE",
"279 781 LINE",
"279 52 LINE SMOOTH",
"279 23 OFFCURVE",
"302 0 OFFCURVE",
"331 0 CURVE SMOOTH",
"360 0 OFFCURVE",
"383 23 OFFCURVE",
"383 52 CURVE SMOOTH"
);
}
);
width = 661;
},
{
anchors = (
{
name = bottom;
position = "{325, 0}";
},
{
name = center;
position = "{325, 391}";
},
{
name = top;
position = "{325, 781}";
}
);
background = {
paths = (
{
closed = 1;
nodes = (
"588 727 LINE SMOOTH",
"604 727 OFFCURVE",
"615 738 OFFCURVE",
"615 754 CURVE SMOOTH",
"615 770 OFFCURVE",
"604 781 OFFCURVE",
"588 781 CURVE SMOOTH",
"62 781 LINE SMOOTH",
"46 781 OFFCURVE",
"35 770 OFFCURVE",
"35 754 CURVE SMOOTH",
"35 738 OFFCURVE",
"46 727 OFFCURVE",
"62 727 CURVE SMOOTH"
);
}
);
};
layerId = "952115DE-4B60-44C8-B7C0-A1F0450151B4";
paths = (
{
closed = 1;
nodes = (
"42 781 LINE SMOOTH",
"26 781 OFFCURVE",
"15 770 OFFCURVE",
"15 754 CURVE SMOOTH",
"15 738 OFFCURVE",
"26 727 OFFCURVE",
"42 727 CURVE SMOOTH",
"608 727 LINE SMOOTH",
"624 727 OFFCURVE",
"635 738 OFFCURVE",
"635 754 CURVE SMOOTH",
"635 770 OFFCURVE",
"624 781 OFFCURVE",
"608 781 CURVE SMOOTH"
);
},
{
closed = 1;
nodes = (
"355 781 LINE",
"295 781 LINE",
"295 30 LINE SMOOTH",
"295 13 OFFCURVE",
"308 0 OFFCURVE",
"325 0 CURVE SMOOTH",
"342 0 OFFCURVE",
"355 13 OFFCURVE",
"355 30 CURVE SMOOTH"
);
}
);
width = 650;
}
);
leftKerningGroup = T;
rightKerningGroup = T;
unicode = 0054;
},
{
glyphname = U;
layers = (
{
anchors = (
{
name = bottom;
position = "{423, 0}";
},
{
name = ogonek;
position = "{520, 70}";
},
{
name = top;
position = "{423, 781}";
},
{
name = topright;
position = "{694, 781}";
}
);
background = {
components = (
{
name = O;
transform = "{1, 0, 0, 1, -40, 0}";
}
);
};
layerId = UUID0;
paths = (
{
closed = 1;
nodes = (
"100 262 LINE SMOOTH",
"100 99 OFFCURVE",
"235 -16 OFFCURVE",
"427 -16 CURVE SMOOTH",
"613 -16 OFFCURVE",
"745 99 OFFCURVE",
"745 262 CURVE SMOOTH",
"745 729 LINE SMOOTH",
"745 759 OFFCURVE",
"724 781 OFFCURVE",
"694 781 CURVE SMOOTH",
"664 781 OFFCURVE",
"642 759 OFFCURVE",
"642 729 CURVE SMOOTH",
"642 262 LINE SMOOTH",
"642 154 OFFCURVE",
"553 78 OFFCURVE",
"427 78 CURVE SMOOTH",
"296 78 OFFCURVE",
"204 154 OFFCURVE",
"204 262 CURVE SMOOTH",
"204 729 LINE SMOOTH",
"204 759 OFFCURVE",
"182 781 OFFCURVE",
"152 781 CURVE SMOOTH",
"122 781 OFFCURVE",
"100 759 OFFCURVE",
"100 729 CURVE SMOOTH"
);
}
);
width = 845;
},
{
anchors = (
{
name = bottom;
position = "{401, 0}";
},
{
name = ogonek;
position = "{502, 50}";
},
{
name = top;
position = "{401, 781}";
},
{
name = topright;
position = "{671, 781}";
}
);
background = {
components = (
{
name = O;
transform = "{1, 0, 0, 1, -60, 0}";
}
);
};
layerId = "952115DE-4B60-44C8-B7C0-A1F0450151B4";
paths = (
{
closed = 1;
nodes = (
"100 255 LINE SMOOTH",
"100 96 OFFCURVE",
"224 -16 OFFCURVE",
"400 -16 CURVE SMOOTH",
"576 -16 OFFCURVE",
"701 96 OFFCURVE",
"701 255 CURVE SMOOTH",
"701 751 LINE SMOOTH",
"701 769 OFFCURVE",
"689 781 OFFCURVE",
"671 781 CURVE SMOOTH",
"653 781 OFFCURVE",
"641 769 OFFCURVE",
"641 751 CURVE SMOOTH",
"641 255 LINE SMOOTH",
"641 131 OFFCURVE",
"541 44 OFFCURVE",
"400 44 CURVE SMOOTH",
"259 44 OFFCURVE",
"160 131 OFFCURVE",
"160 255 CURVE SMOOTH",
"160 751 LINE SMOOTH",
"160 769 OFFCURVE",
"148 781 OFFCURVE",
"130 781 CURVE SMOOTH",
"112 781 OFFCURVE",
"100 769 OFFCURVE",
"100 751 CURVE SMOOTH"
);
}
);
width = 801;
}
);
leftKerningGroup = U;
leftMetricsKey = H;
rightKerningGroup = U;
rightMetricsKey = H;
unicode = 0055;
},
{
glyphname = V;
layers = (
{
anchors = (
{
name = bottom;
position = "{367, 0}";
},
{
name = top;
position = "{367, 781}";
}
);
layerId = UUID0;
paths = (
{
closed = 1;
nodes = (
"361 133 LINE",
"372 133 LINE",
"115 750 LINE",
"106 771 OFFCURVE",
"90 781 OFFCURVE",
"67 781 CURVE SMOOTH",
"25 781 OFFCURVE",
"9 748 OFFCURVE",
"28 703 CURVE SMOOTH",
"321 33 LINE SMOOTH",
"331 11 OFFCURVE",
"345 0 OFFCURVE",
"368 0 CURVE SMOOTH",
"391 0 OFFCURVE",
"406 11 OFFCURVE",
"415 33 CURVE SMOOTH",
"711 712 LINE SMOOTH",
"727 747 OFFCURVE",
"710 781 OFFCURVE",
"670 781 CURVE SMOOTH",
"646 781 OFFCURVE",
"633 774 OFFCURVE",
"623 750 CURVE SMOOTH"
);
}
);
width = 737;
},
{
anchors = (
{
name = bottom;
position = "{354, 0}";
},
{
name = top;
position = "{354, 781}";
}
);
layerId = "952115DE-4B60-44C8-B7C0-A1F0450151B4";
paths = (
{
closed = 1;
nodes = (
"339 71 LINE",
"368 71 LINE",
"80 760 LINE SMOOTH",
"73 775 OFFCURVE",
"65 781 OFFCURVE",
"51 781 CURVE SMOOTH",
"28 781 OFFCURVE",
"12 763 OFFCURVE",
"25 732 CURVE SMOOTH",
"325 19 LINE",
"331 5 OFFCURVE",
"339 0 OFFCURVE",
"352 0 CURVE SMOOTH",
"361 0 OFFCURVE",
"372 4 OFFCURVE",
"379 19 CURVE SMOOTH",
"678 732 LINE SMOOTH",
"688 757 OFFCURVE",
"680 781 OFFCURVE",
"656 781 CURVE SMOOTH",
"640 781 OFFCURVE",
"630 774 OFFCURVE",
"623 756 CURVE SMOOTH"
);
}
);
width = 702;
}
);
leftKerningGroup = V;
rightKerningGroup = V;
unicode = 0056;
},
{
glyphname = W;
layers = (
{
anchors = (
{
name = bottom;
position = "{469, 0}";
},
{
name = top;
position = "{469, 781}";
}
);
background = {
components = (
{
name = V;
}
);
};
layerId = UUID0;
paths = (
{
closed = 1;
nodes = (
"660 132 LINE",
"680 132 LINE",
"517 737 LINE SMOOTH",
"511 759 OFFCURVE",
"489 771 OFFCURVE",
"468 771 CURVE SMOOTH",
"444 771 OFFCURVE",
"423 756 OFFCURVE",
"418 736 CURVE SMOOTH",
"256 132 LINE",
"278 132 LINE",
"103 742 LINE SMOOTH",
"95 769 OFFCURVE",
"74 781 OFFCURVE",
"52 781 CURVE SMOOTH",
"17 781 OFFCURVE",
"0 753 OFFCURVE",
"13 709 CURVE SMOOTH",
"214 41 LINE",
"222 15 OFFCURVE",
"242 0 OFFCURVE",
"266 0 CURVE SMOOTH",
"290 0 OFFCURVE",
"309 17 OFFCURVE",
"318 42 CURVE",
"481 663 LINE",
"457 663 LINE",
"618 41 LINE",
"626 18 OFFCURVE",
"645 0 OFFCURVE",
"670 0 CURVE SMOOTH",
"694 0 OFFCURVE",
"713 17 OFFCURVE",
"722 42 CURVE",
"923 709 LINE SMOOTH",
"934 747 OFFCURVE",
"924 781 OFFCURVE",
"887 781 CURVE SMOOTH",
"859 781 OFFCURVE",
"843 771 OFFCURVE",
"836 747 CURVE SMOOTH"
);
}
);
width = 938;
},
{
anchors = (
{
name = bottom;
position = "{469, 0}";
},
{
name = top;
position = "{469, 781}";
}
);
layerId = "952115DE-4B60-44C8-B7C0-A1F0450151B4";
paths = (
{
closed = 1;
nodes = (
"657 90 LINE",
"681 90 LINE",
"497 731 LINE",
"493 743 OFFCURVE",
"481 751 OFFCURVE",
"468 751 CURVE SMOOTH",
"456 751 OFFCURVE",
"443 743 OFFCURVE",
"440 732 CURVE SMOOTH",
"256 90 LINE",
"280 90 LINE",
"87 758 LINE SMOOTH",
"82 776 OFFCURVE",
"71 781 OFFCURVE",
"58 781 CURVE SMOOTH",
"35 781 OFFCURVE",
"23 760 OFFCURVE",
"30 736 CURVE SMOOTH",
"237 26 LINE SMOOTH",
"241 12 OFFCURVE",
"253 0 OFFCURVE",
"268 0 CURVE SMOOTH",
"283 0 OFFCURVE",
"294 10 OFFCURVE",
"300 26 CURVE",
"480 670 LINE",
"456 670 LINE",
"638 26 LINE SMOOTH",
"642 11 OFFCURVE",
"653 0 OFFCURVE",
"669 0 CURVE SMOOTH",
"682 0 OFFCURVE",
"695 9 OFFCURVE",
"700 26 CURVE SMOOTH",
"906 736 LINE SMOOTH",
"913 761 OFFCURVE",
"901 781 OFFCURVE",
"879 781 CURVE SMOOTH",
"865 781 OFFCURVE",
"853 773 OFFCURVE",
"850 761 CURVE SMOOTH"
);
}
);
width = 938;
}
);
leftKerningGroup = V;
rightKerningGroup = V;
unicode = 0057;
},
{
glyphname = X;
layers = (
{
anchors = (
{
name = bottom;
position = "{358, 0}";
},
{
name = top;
position = "{358, 781}";
}
);
layerId = UUID0;
paths = (
{
closed = 1;
nodes = (
"359 460 LINE",
"314 420 LINE",
"62 84 LINE SMOOTH",
"38 52 OFFCURVE",
"50 0 OFFCURVE",
"97 0 CURVE SMOOTH",
"111 0 OFFCURVE",
"123 5 OFFCURVE",
"133 15 CURVE SMOOTH",
"375 337 LINE",
"418 375 LINE",
"661 699 LINE",
"684 734 OFFCURVE",
"668 781 OFFCURVE",
"626 781 CURVE SMOOTH",
"611 781 OFFCURVE",
"598 776 OFFCURVE",
"589 766 CURVE"
);
},
{
closed = 1;
nodes = (
"310 373 LINE",
"347 342 LINE",
"580 19 LINE SMOOTH",
"590 6 OFFCURVE",
"603 0 OFFCURVE",
"620 0 CURVE SMOOTH",
"664 0 OFFCURVE",
"681 51 OFFCURVE",
"657 84 CURVE SMOOTH",
"410 427 LINE",
"372 458 LINE",
"150 766 LINE SMOOTH",
"142 777 OFFCURVE",
"129 781 OFFCURVE",
"113 781 CURVE SMOOTH",
"71 781 OFFCURVE",
"52 731 OFFCURVE",
"75 699 CURVE SMOOTH"
);
}
);
width = 716;
},
{
anchors = (
{
name = bottom;
position = "{351, 0}";
},
{
name = top;
position = "{351, 781}";
}
);
layerId = "952115DE-4B60-44C8-B7C0-A1F0450151B4";
paths = (
{
closed = 1;
nodes = (
"348 439 LINE",
"319 418 LINE",
"52 49 LINE",
"36 25 OFFCURVE",
"50 0 OFFCURVE",
"75 0 CURVE SMOOTH",
"85 0 OFFCURVE",
"92 3 OFFCURVE",
"98 10 CURVE",
"360 373 LINE",
"388 393 LINE",
"635 734 LINE SMOOTH",
"646 749 OFFCURVE",
"637 781 OFFCURVE",
"610 781 CURVE SMOOTH",
"601 781 OFFCURVE",
"591 776 OFFCURVE",
"585 768 CURVE SMOOTH"
);
},
{
closed = 1;
nodes = (
"319 389 LINE",
"346 370 LINE",
"606 10 LINE SMOOTH",
"611 3 OFFCURVE",
"622 0 OFFCURVE",
"629 0 CURVE SMOOTH",
"655 0 OFFCURVE",
"665 30 OFFCURVE",
"650 49 CURVE SMOOTH",
"381 420 LINE",
"360 431 LINE",
"116 768 LINE SMOOTH",
"109 777 OFFCURVE",
"101 781 OFFCURVE",
"91 781 CURVE SMOOTH",
"66 781 OFFCURVE",
"55 754 OFFCURVE",
"70 734 CURVE SMOOTH"
);
}
);
width = 701;
}
);
leftKerningGroup = X;
rightKerningGroup = X;
unicode = 0058;
},
{
glyphname = Y;
layers = (
{
anchors = (
{
name = bottom;
position = "{335, 0}";
},
{
name = top;
position = "{335, 781}";
},
{
name = topleft;
position = "{20, 781}";
}
);
background = {
paths = (
{
closed = 1;
nodes = (
"363 0 OFFCURVE",
"386 23 OFFCURVE",
"386 52 CURVE SMOOTH",
"386 285 LINE",
"654 700 LINE SMOOTH",
"681 741 OFFCURVE",
"652 781 OFFCURVE",
"613 781 CURVE SMOOTH",
"591 781 OFFCURVE",
"579 771 OFFCURVE",
"567 752 CURVE SMOOTH",
"312 349 LINE",
"352 349 LINE",
"95 756 LINE SMOOTH",
"85 772 OFFCURVE",
"71 781 OFFCURVE",
"49 781 CURVE SMOOTH",
"13 781 OFFCURVE",
"-9 737 OFFCURVE",
"15 700 CURVE SMOOTH",
"283 285 LINE",
"283 52 LINE SMOOTH",
"283 23 OFFCURVE",
"306 0 OFFCURVE",
"335 0 CURVE SMOOTH"
);
}
);
};
layerId = UUID0;
paths = (
{
closed = 1;
nodes = (
"317 349 LINE",
"357 349 LINE",
"103 752 LINE SMOOTH",
"91 771 OFFCURVE",
"79 781 OFFCURVE",
"57 781 CURVE SMOOTH",
"18 781 OFFCURVE",
"-11 741 OFFCURVE",
"16 700 CURVE SMOOTH",
"283 285 LINE",
"283 52 LINE SMOOTH",
"283 23 OFFCURVE",
"306 0 OFFCURVE",
"334 0 CURVE SMOOTH",
"363 0 OFFCURVE",
"386 23 OFFCURVE",
"386 52 CURVE SMOOTH",
"386 285 LINE",
"655 700 LINE SMOOTH",
"678 737 OFFCURVE",
"657 781 OFFCURVE",
"621 781 CURVE SMOOTH",
"599 781 OFFCURVE",
"585 772 OFFCURVE",
"575 756 CURVE SMOOTH"
);
}
);
width = 670;
},
{
anchors = (
{
name = bottom;
position = "{317, 0}";
},
{
name = top;
position = "{317, 781}";
},
{
name = topleft;
position = "{20, 781}";
}
);
layerId = "952115DE-4B60-44C8-B7C0-A1F0450151B4";
paths = (
{
closed = 1;
nodes = (
"295 311 LINE",
"339 311 LINE",
"58 769 LINE",
"51 777 OFFCURVE",
"44 781 OFFCURVE",
"34 781 CURVE SMOOTH",
"10 781 OFFCURVE",
"-3 757 OFFCURVE",
"11 734 CURVE SMOOTH",
"287 292 LINE",
"287 30 LINE SMOOTH",
"287 13 OFFCURVE",
"300 0 OFFCURVE",
"317 0 CURVE SMOOTH",
"334 0 OFFCURVE",
"347 13 OFFCURVE",
"347 30 CURVE SMOOTH",
"347 292 LINE",
"623 734 LINE",
"636 756 OFFCURVE",
"624 781 OFFCURVE",
"601 781 CURVE SMOOTH",
"589 781 OFFCURVE",
"581 777 OFFCURVE",
"572 762 CURVE SMOOTH"
);
}
);
width = 633;
}
);
leftKerningGroup = Y;
rightKerningGroup = Y;
unicode = 0059;
},
{
glyphname = Z;
layers = (
{
anchors = (
{
name = bottom;
position = "{371, 0}";
},
{
name = top;
position = "{371, 781}";
}
);
layerId = UUID0;
paths = (
{
closed = 1;
nodes = (
"554 689 LINE",
"65 84 LINE SMOOTH",
"41 54 OFFCURVE",
"60 0 OFFCURVE",
"106 0 CURVE SMOOTH",
"634 0 LINE SMOOTH",
"664 0 OFFCURVE",
"685 18 OFFCURVE",
"685 47 CURVE SMOOTH",
"685 71 OFFCURVE",
"664 92 OFFCURVE",
"634 92 CURVE SMOOTH",
"185 92 LINE",
"676 699 LINE SMOOTH",
"701 729 OFFCURVE",
"680 781 OFFCURVE",
"634 781 CURVE SMOOTH",
"118 781 LINE SMOOTH",
"88 781 OFFCURVE",
"66 761 OFFCURVE",
"67 733 CURVE SMOOTH",
"66 707 OFFCURVE",
"83 689 OFFCURVE",
"116 689 CURVE SMOOTH"
);
}
);
width = 742;
},
{
anchors = (
{
name = bottom;
position = "{356, 0}";
},
{
name = top;
position = "{356, 781}";
}
);
layerId = "952115DE-4B60-44C8-B7C0-A1F0450151B4";
paths = (
{
closed = 1;
nodes = (
"587 727 LINE",
"52 49 LINE SMOOTH",
"36 29 OFFCURVE",
"49 0 OFFCURVE",
"75 0 CURVE SMOOTH",
"636 0 LINE SMOOTH",
"652 0 OFFCURVE",
"666 13 OFFCURVE",
"666 27 CURVE SMOOTH",
"666 46 OFFCURVE",
"652 54 OFFCURVE",
"636 54 CURVE SMOOTH",
"122 54 LINE",
"661 734 LINE SMOOTH",
"673 749 OFFCURVE",
"663 781 OFFCURVE",
"636 781 CURVE SMOOTH",
"75 781 LINE SMOOTH",
"58 781 OFFCURVE",
"45 768 OFFCURVE",
"45 754 CURVE SMOOTH",
"45 735 OFFCURVE",
"58 727 OFFCURVE",
"75 727 CURVE SMOOTH"
);
}
);
width = 711;
}
);
leftKerningGroup = Z;
rightKerningGroup = Z;
unicode = 005A;
},
{
glyphname = a;
layers = (
{
anchors = (
{
name = bottom;
position = "{338, 0}";
},
{
name = ogonek;
position = "{607, 10}";
},
{
name = top;
position = "{338, 547}";
}
);
background = {
paths = (
{
closed = 1;
nodes = (
"451 -6 OFFCURVE",
"537 62 OFFCURVE",
"571 167 CURVE",
"608 188 LINE",
"615 215 OFFCURVE",
"619 243 OFFCURVE",
"619 273 CURVE SMOOTH",
"619 437 OFFCURVE",
"503 553 OFFCURVE",
"340 553 CURVE SMOOTH",
"176 553 OFFCURVE",
"60 437 OFFCURVE",
"60 273 CURVE SMOOTH",
"60 110 OFFCURVE",
"176 -6 OFFCURVE",
"340 -6 CURVE SMOOTH"
);
}
);
};
layerId = UUID0;
paths = (
{
closed = 1;
nodes = (
"613 273 LINE",
"612 431 OFFCURVE",
"494 551 OFFCURVE",
"338 551 CURVE SMOOTH",
"181 551 OFFCURVE",
"62 431 OFFCURVE",
"62 273 CURVE",
"62 115 OFFCURVE",
"172 -4 OFFCURVE",
"318 -4 CURVE SMOOTH",
"464 -4 OFFCURVE",
"574 115 OFFCURVE",
"574 273 CURVE"
);
},
{
closed = 1;
nodes = (
"439 461 OFFCURVE",
"515 380 OFFCURVE",
"515 273 CURVE SMOOTH",
"515 166 OFFCURVE",
"439 86 OFFCURVE",
"338 86 CURVE SMOOTH",
"237 86 OFFCURVE",
"160 166 OFFCURVE",
"160 273 CURVE SMOOTH",
"160 380 OFFCURVE",
"237 461 OFFCURVE",
"338 461 CURVE SMOOTH"
);
},
{
closed = 1;
nodes = (
"613 273 LINE",
"530 309 LINE",
"511 203 LINE",
"511 50 LINE SMOOTH",
"511 21 OFFCURVE",
"533 -1 OFFCURVE",
"562 -1 CURVE SMOOTH",
"591 -1 OFFCURVE",
"613 21 OFFCURVE",
"613 50 CURVE SMOOTH"
);
}
);
width = 675;
},
{
anchors = (
{
name = bottom;
position = "{340, 0}";
},
{
name = ogonek;
position = "{611, 10}";
},
{
name = top;
position = "{340, 547}";
}
);
background = {
paths = (
{
closed = 1;
nodes = (
"462 486 OFFCURVE",
"558 391 OFFCURVE",
"558 273 CURVE SMOOTH",
"558 156 OFFCURVE",
"462 61 OFFCURVE",
"346 61 CURVE SMOOTH",
"229 61 OFFCURVE",
"133 157 OFFCURVE",
"133 273 CURVE SMOOTH",
"133 390 OFFCURVE",
"229 486 OFFCURVE",
"346 486 CURVE SMOOTH"
);
},
{
closed = 1;
nodes = (
"558 30 LINE SMOOTH",
"558 13 OFFCURVE",
"572 0 OFFCURVE",
"589 0 CURVE SMOOTH",
"606 0 OFFCURVE",
"619 13 OFFCURVE",
"619 30 CURVE SMOOTH",
"619 273 LINE SMOOTH",
"619 423 OFFCURVE",
"495 547 OFFCURVE",
"346 547 CURVE SMOOTH",
"196 547 OFFCURVE",
"72 423 OFFCURVE",
"72 273 CURVE SMOOTH",
"72 124 OFFCURVE",
"196 0 OFFCURVE",
"346 0 CURVE SMOOTH",
"421 0 OFFCURVE",
"492 33 OFFCURVE",
"558 99 CURVE"
);
}
);
};
layerId = "952115DE-4B60-44C8-B7C0-A1F0450151B4";
paths = (
{
closed = 1;
nodes = (
"619 273 LINE",
"619 433 OFFCURVE",
"499 553 OFFCURVE",
"340 553 CURVE SMOOTH",
"180 553 OFFCURVE",
"60 433 OFFCURVE",
"60 273 CURVE SMOOTH",
"60 114 OFFCURVE",
"180 -6 OFFCURVE",
"340 -6 CURVE SMOOTH",
"485 -6 OFFCURVE",
"594 97 OFFCURVE",
"594 233 CURVE"
);
},
{
closed = 1;
nodes = (
"465 497 OFFCURVE",
"559 401 OFFCURVE",
"559 273 CURVE SMOOTH",
"559 146 OFFCURVE",
"465 50 OFFCURVE",
"340 50 CURVE SMOOTH",
"215 50 OFFCURVE",
"120 146 OFFCURVE",
"120 273 CURVE SMOOTH",
"120 401 OFFCURVE",
"215 497 OFFCURVE",
"340 497 CURVE SMOOTH"
);
},
{
closed = 1;
nodes = (
"619 273 LINE",
"578 273 LINE",
"559 213 LINE",
"559 30 LINE SMOOTH",
"559 12 OFFCURVE",
"571 0 OFFCURVE",
"589 0 CURVE SMOOTH",
"607 0 OFFCURVE",
"619 12 OFFCURVE",
"619 30 CURVE SMOOTH"
);
}
);
width = 679;
},
{
anchors = (
{
name = bottom;
position = "{340, 0}";
},
{
name = ogonek;
position = "{611, 10}";
},
{
name = top;
position = "{340, 547}";
}
);
associatedMasterId = "952115DE-4B60-44C8-B7C0-A1F0450151B4";
background = {
paths = (
{
closed = 1;
nodes = (
"462 486 OFFCURVE",
"558 391 OFFCURVE",
"558 273 CURVE SMOOTH",
"558 156 OFFCURVE",
"462 61 OFFCURVE",
"346 61 CURVE SMOOTH",
"229 61 OFFCURVE",
"133 157 OFFCURVE",
"133 273 CURVE SMOOTH",
"133 390 OFFCURVE",
"229 486 OFFCURVE",
"346 486 CURVE SMOOTH"
);
},
{
closed = 1;
nodes = (
"558 30 LINE SMOOTH",
"558 13 OFFCURVE",
"572 0 OFFCURVE",
"589 0 CURVE SMOOTH",
"606 0 OFFCURVE",
"619 13 OFFCURVE",
"619 30 CURVE SMOOTH",
"619 273 LINE SMOOTH",
"619 423 OFFCURVE",
"495 547 OFFCURVE",
"346 547 CURVE SMOOTH",
"196 547 OFFCURVE",
"72 423 OFFCURVE",
"72 273 CURVE SMOOTH",
"72 124 OFFCURVE",
"196 0 OFFCURVE",
"346 0 CURVE SMOOTH",
"421 0 OFFCURVE",
"492 33 OFFCURVE",
"558 99 CURVE"
);
}
);
};
layerId = "E1B736A7-5162-4797-9149-62AF53E920AD";
name = OLD;
paths = (
{
closed = 1;
nodes = (
"619 273 LINE",
"619 433 OFFCURVE",
"499 553 OFFCURVE",
"340 553 CURVE SMOOTH",
"180 553 OFFCURVE",
"60 433 OFFCURVE",
"60 273 CURVE SMOOTH",
"60 114 OFFCURVE",
"180 -6 OFFCURVE",
"340 -6 CURVE SMOOTH",
"479 -6 OFFCURVE",
"584 97 OFFCURVE",
"584 233 CURVE"
);
},
{
closed = 1;
nodes = (
"465 497 OFFCURVE",
"559 401 OFFCURVE",
"559 273 CURVE SMOOTH",
"559 146 OFFCURVE",
"465 50 OFFCURVE",
"340 50 CURVE SMOOTH",
"215 50 OFFCURVE",
"120 146 OFFCURVE",
"120 273 CURVE SMOOTH",
"120 401 OFFCURVE",
"215 497 OFFCURVE",
"340 497 CURVE SMOOTH"
);
},
{
closed = 1;
nodes = (
"619 273 LINE",
"578 273 LINE",
"559 213 LINE",
"559 30 LINE SMOOTH",
"559 12 OFFCURVE",
"571 0 OFFCURVE",
"589 0 CURVE SMOOTH",
"607 0 OFFCURVE",
"619 12 OFFCURVE",
"619 30 CURVE SMOOTH"
);
}
);
width = 679;
},
{
anchors = (
{
name = bottom;
position = "{338, 0}";
},
{
name = ogonek;
position = "{607, 10}";
},
{
name = top;
position = "{338, 547}";
}
);
associatedMasterId = UUID0;
background = {
paths = (
{
closed = 1;
nodes = (
"451 -6 OFFCURVE",
"537 62 OFFCURVE",
"571 167 CURVE",
"608 188 LINE",
"615 215 OFFCURVE",
"619 243 OFFCURVE",
"619 273 CURVE SMOOTH",
"619 437 OFFCURVE",
"503 553 OFFCURVE",
"340 553 CURVE SMOOTH",
"176 553 OFFCURVE",
"60 437 OFFCURVE",
"60 273 CURVE SMOOTH",
"60 110 OFFCURVE",
"176 -6 OFFCURVE",
"340 -6 CURVE SMOOTH"
);
}
);
};
layerId = "92088D85-D187-45E8-801B-ADBAA8E9B4AD";
name = old;
paths = (
{
closed = 1;
nodes = (
"613 273 LINE",
"612 431 OFFCURVE",
"494 551 OFFCURVE",
"338 551 CURVE SMOOTH",
"181 551 OFFCURVE",
"62 431 OFFCURVE",
"62 273 CURVE",
"62 115 OFFCURVE",
"172 -4 OFFCURVE",
"318 -4 CURVE SMOOTH",
"453 -4 OFFCURVE",
"554 115 OFFCURVE",
"554 273 CURVE"
);
},
{
closed = 1;
nodes = (
"439 461 OFFCURVE",
"515 380 OFFCURVE",
"515 273 CURVE SMOOTH",
"515 166 OFFCURVE",
"439 86 OFFCURVE",
"338 86 CURVE SMOOTH",
"237 86 OFFCURVE",
"160 166 OFFCURVE",
"160 273 CURVE SMOOTH",
"160 380 OFFCURVE",
"237 461 OFFCURVE",
"338 461 CURVE SMOOTH"
);
},
{
closed = 1;
nodes = (
"613 273 LINE",
"530 309 LINE",
"511 203 LINE",
"511 50 LINE SMOOTH",
"511 21 OFFCURVE",
"533 -1 OFFCURVE",
"562 -1 CURVE SMOOTH",
"591 -1 OFFCURVE",
"613 21 OFFCURVE",
"613 50 CURVE SMOOTH"
);
}
);
width = 675;
}
);
leftKerningGroup = o;
rightKerningGroup = n;
unicode = 0061;
},
{
glyphname = ae;
layers = (
{
anchors = (
{
name = bottom;
position = "{551, 0}";
},
{
name = top;
position = "{551, 547}";
}
);
components = (
{
name = a;
}
);
layerId = UUID0;
paths = (
{
closed = 1;
nodes = (
"990 318 LINE",
"590 318 LINE",
"590 238 LINE",
"993 238 LINE SMOOTH",
"1020 238 OFFCURVE",
"1039 256 OFFCURVE",
"1039 282 CURVE SMOOTH",
"1039 440 OFFCURVE",
"946 551 OFFCURVE",
"790 551 CURVE SMOOTH",
"638 551 OFFCURVE",
"530 436 OFFCURVE",
"530 273 CURVE SMOOTH",
"530 111 OFFCURVE",
"644 -4 OFFCURVE",
"805 -4 CURVE SMOOTH",
"866 -4 OFFCURVE",
"940 22 OFFCURVE",
"986 57 CURVE SMOOTH",
"1008 74 OFFCURVE",
"1006 99 OFFCURVE",
"984 121 CURVE SMOOTH",
"968 137 OFFCURVE",
"941 135 OFFCURVE",
"921 120 CURVE SMOOTH",
"894 100 OFFCURVE",
"846 82 OFFCURVE",
"805 82 CURVE SMOOTH",
"691 82 OFFCURVE",
"610 163 OFFCURVE",
"610 273 CURVE SMOOTH",
"610 383 OFFCURVE",
"675 465 OFFCURVE",
"790 465 CURVE SMOOTH",
"890 465 OFFCURVE",
"946 390 OFFCURVE",
"949 290 CURVE"
);
}
);
width = 1079;
},
{
anchors = (
{
name = bottom;
position = "{564, 0}";
},
{
name = top;
position = "{564, 547}";
}
);
background = {
components = (
{
name = a;
},
{
name = e;
transform = "{1, 0, 0, 1, 499, 0}";
}
);
};
components = (
{
name = a;
}
);
layerId = "952115DE-4B60-44C8-B7C0-A1F0450151B4";
paths = (
{
closed = 1;
nodes = (
"1055 307 LINE",
"599 307 LINE",
"599 255 LINE",
"1039 255 LINE SMOOTH",
"1056 255 OFFCURVE",
"1068 266 OFFCURVE",
"1068 283 CURVE SMOOTH",
"1068 440 OFFCURVE",
"964 552 OFFCURVE",
"816 552 CURVE SMOOTH",
"671 552 OFFCURVE",
"569 436 OFFCURVE",
"569 273 CURVE SMOOTH",
"569 110 OFFCURVE",
"678 -5 OFFCURVE",
"831 -5 CURVE SMOOTH",
"894 -5 OFFCURVE",
"970 23 OFFCURVE",
"1013 62 CURVE SMOOTH",
"1026 74 OFFCURVE",
"1025 90 OFFCURVE",
"1011 102 CURVE SMOOTH",
"1000 111 OFFCURVE",
"983 110 OFFCURVE",
"972 100 CURVE SMOOTH",
"941 71 OFFCURVE",
"894 51 OFFCURVE",
"831 51 CURVE SMOOTH",
"707 51 OFFCURVE",
"619 143 OFFCURVE",
"619 273 CURVE SMOOTH",
"619 404 OFFCURVE",
"701 496 OFFCURVE",
"816 496 CURVE SMOOTH",
"935 496 OFFCURVE",
"1015 404 OFFCURVE",
"1011 274 CURVE"
);
}
);
width = 1108;
}
);
leftKerningGroup = o;
leftMetricsKey = a;
rightKerningGroup = e;
rightMetricsKey = e;
unicode = 00E6;
},
{
color = 1;
glyphname = b;
layers = (
{
anchors = (
{
name = bottom;
position = "{372, 0}";
},
{
name = center;
position = "{203, 634}";
},
{
name = ogonek;
position = "{96, 537}";
},
{
name = top;
position = "{382, 547}";
},
{
name = topright;
position = "{20, 781}";
}
);
layerId = UUID0;
paths = (
{
closed = 1;
nodes = (
"522 -4 OFFCURVE",
"641 116 OFFCURVE",
"641 274 CURVE SMOOTH",
"641 432 OFFCURVE",
"531 551 OFFCURVE",
"385 551 CURVE SMOOTH",
"306 551 OFFCURVE",
"238 516 OFFCURVE",
"192 460 CURVE",
"192 730 LINE SMOOTH",
"192 760 OFFCURVE",
"171 781 OFFCURVE",
"141 781 CURVE SMOOTH",
"111 781 OFFCURVE",
"90 760 OFFCURVE",
"90 730 CURVE SMOOTH",
"90 274 LINE SMOOTH",
"91 116 OFFCURVE",
"209 -4 OFFCURVE",
"365 -4 CURVE SMOOTH"
);
},
{
closed = 1;
nodes = (
"264 86 OFFCURVE",
"188 167 OFFCURVE",
"188 274 CURVE SMOOTH",
"188 381 OFFCURVE",
"264 461 OFFCURVE",
"365 461 CURVE SMOOTH",
"466 461 OFFCURVE",
"543 381 OFFCURVE",
"543 274 CURVE SMOOTH",
"543 167 OFFCURVE",
"466 86 OFFCURVE",
"365 86 CURVE SMOOTH"
);
}
);
width = 703;
},
{
anchors = (
{
name = bottom;
position = "{375, 0}";
},
{
name = center;
position = "{185, 657}";
},
{
name = ogonek;
position = "{98, 537}";
},
{
name = top;
position = "{375, 547}";
},
{
name = topright;
position = "{50, 781}";
}
);
layerId = "952115DE-4B60-44C8-B7C0-A1F0450151B4";
paths = (
{
closed = 1;
nodes = (
"529 -6 OFFCURVE",
"649 114 OFFCURVE",
"649 274 CURVE SMOOTH",
"649 433 OFFCURVE",
"529 553 OFFCURVE",
"369 553 CURVE SMOOTH",
"273 553 OFFCURVE",
"193 508 OFFCURVE",
"150 439 CURVE",
"150 751 LINE SMOOTH",
"150 769 OFFCURVE",
"138 781 OFFCURVE",
"120 781 CURVE SMOOTH",
"102 781 OFFCURVE",
"90 769 OFFCURVE",
"90 751 CURVE SMOOTH",
"90 268 LINE SMOOTH",
"93 111 OFFCURVE",
"212 -6 OFFCURVE",
"369 -6 CURVE SMOOTH"
);
},
{
closed = 1;
nodes = (
"244 50 OFFCURVE",
"150 146 OFFCURVE",
"150 274 CURVE SMOOTH",
"150 401 OFFCURVE",
"244 497 OFFCURVE",
"369 497 CURVE SMOOTH",
"494 497 OFFCURVE",
"589 401 OFFCURVE",
"589 274 CURVE SMOOTH",
"589 146 OFFCURVE",
"494 50 OFFCURVE",
"369 50 CURVE SMOOTH"
);
}
);
width = 709;
}
);
leftKerningGroup = h;
rightKerningGroup = o;
unicode = 0062;
},
{
glyphname = c;
layers = (
{
anchors = (
{
name = bottom;
position = "{321, 0}";
},
{
name = top;
position = "{333, 547}";
}
);
background = {
components = (
{
name = o;
}
);
paths = (
{
closed = 0;
nodes = (
"513 130 LINE",
"477 81 OFFCURVE",
"424 46 OFFCURVE",
"338 46 CURVE SMOOTH",
"207 46 OFFCURVE",
"115 140 OFFCURVE",
"115 273 CURVE SMOOTH",
"115 404 OFFCURVE",
"205 497 OFFCURVE",
"333 497 CURVE SMOOTH",
"421 497 OFFCURVE",
"478 453 OFFCURVE",
"519 390 CURVE"
);
}
);
};
layerId = UUID0;
paths = (
{
closed = 1;
nodes = (
"175 551 OFFCURVE",
"62 435 OFFCURVE",
"62 273 CURVE SMOOTH",
"62 115 OFFCURVE",
"177 -4 OFFCURVE",
"338 -4 CURVE SMOOTH",
"411 -4 OFFCURVE",
"471 19 OFFCURVE",
"518 63 CURVE SMOOTH",
"537 81 OFFCURVE",
"534 107 OFFCURVE",
"511 126 CURVE SMOOTH",
"494 140 OFFCURVE",
"469 138 OFFCURVE",
"448 121 CURVE SMOOTH",
"419 97 OFFCURVE",
"384 86 OFFCURVE",
"338 86 CURVE SMOOTH",
"232 86 OFFCURVE",
"160 165 OFFCURVE",
"160 273 CURVE SMOOTH",
"160 386 OFFCURVE",
"230 461 OFFCURVE",
"333 461 CURVE SMOOTH",
"383 461 OFFCURVE",
"421 445 OFFCURVE",
"455 409 CURVE SMOOTH",
"473 390 OFFCURVE",
"498 385 OFFCURVE",
"517 398 CURVE SMOOTH",
"541 415 OFFCURVE",
"547 440 OFFCURVE",
"529 461 CURVE SMOOTH",
"477 521 OFFCURVE",
"412 551 OFFCURVE",
"333 551 CURVE SMOOTH"
);
}
);
width = 601;
},
{
anchors = (
{
name = bottom;
position = "{307, 0}";
},
{
name = top;
position = "{318, 547}";
}
);
background = {
paths = (
{
closed = 1;
nodes = (
"499 -6 OFFCURVE",
"619 114 OFFCURVE",
"619 273 CURVE SMOOTH",
"619 433 OFFCURVE",
"499 553 OFFCURVE",
"340 553 CURVE SMOOTH",
"180 553 OFFCURVE",
"60 433 OFFCURVE",
"60 273 CURVE SMOOTH",
"60 114 OFFCURVE",
"180 -6 OFFCURVE",
"340 -6 CURVE SMOOTH"
);
},
{
closed = 1;
nodes = (
"215 50 OFFCURVE",
"120 146 OFFCURVE",
"120 273 CURVE SMOOTH",
"120 401 OFFCURVE",
"215 497 OFFCURVE",
"340 497 CURVE SMOOTH",
"465 497 OFFCURVE",
"559 401 OFFCURVE",
"559 273 CURVE SMOOTH",
"559 146 OFFCURVE",
"465 50 OFFCURVE",
"340 50 CURVE SMOOTH"
);
}
);
};
layerId = "952115DE-4B60-44C8-B7C0-A1F0450151B4";
paths = (
{
closed = 1;
nodes = (
"168 552 OFFCURVE",
"60 433 OFFCURVE",
"60 273 CURVE SMOOTH",
"60 115 OFFCURVE",
"175 -6 OFFCURVE",
"332 -6 CURVE SMOOTH",
"403 -6 OFFCURVE",
"467 18 OFFCURVE",
"514 61 CURVE SMOOTH",
"526 72 OFFCURVE",
"525 89 OFFCURVE",
"512 101 CURVE",
"501 111 OFFCURVE",
"485 110 OFFCURVE",
"473 99 CURVE SMOOTH",
"437 66 OFFCURVE",
"387 50 OFFCURVE",
"332 50 CURVE SMOOTH",
"206 50 OFFCURVE",
"120 146 OFFCURVE",
"120 273 CURVE SMOOTH",
"120 402 OFFCURVE",
"199 496 OFFCURVE",
"317 496 CURVE SMOOTH",
"384 496 OFFCURVE",
"437 471 OFFCURVE",
"480 420 CURVE SMOOTH",
"491 407 OFFCURVE",
"507 405 OFFCURVE",
"519 414 CURVE",
"534 423 OFFCURVE",
"537 439 OFFCURVE",
"526 453 CURVE SMOOTH",
"474 519 OFFCURVE",
"402 552 OFFCURVE",
"317 552 CURVE SMOOTH"
);
}
);
width = 593;
},
{
associatedMasterId = "952115DE-4B60-44C8-B7C0-A1F0450151B4";
background = {
paths = (
{
closed = 1;
nodes = (
"381 2 OFFCURVE",
"445 26 OFFCURVE",
"492 69 CURVE SMOOTH",
"506 82 OFFCURVE",
"504 96 OFFCURVE",
"490 109 CURVE",
"477 120 OFFCURVE",
"464 119 OFFCURVE",
"451 107 CURVE SMOOTH",
"414 75 OFFCURVE",
"365 58 OFFCURVE",
"310 58 CURVE SMOOTH",
"184.47 58 OFFCURVE",
"98 145.639 OFFCURVE",
"98 273 CURVE SMOOTH",
"98 402.339 OFFCURVE",
"177.382 489 OFFCURVE",
"295 489 CURVE SMOOTH",
"362 489 OFFCURVE",
"415 464 OFFCURVE",
"458 413 CURVE SMOOTH",
"470 399 OFFCURVE",
"483 396 OFFCURVE",
"497 407 CURVE",
"513 417 OFFCURVE",
"516 431 OFFCURVE",
"504 446 CURVE SMOOTH",
"450 511 OFFCURVE",
"380 545 OFFCURVE",
"295 545 CURVE SMOOTH",
"145.73 545 OFFCURVE",
"42 433.175 OFFCURVE",
"42 273 CURVE SMOOTH",
"42 114.521 OFFCURVE",
"153.231 2 OFFCURVE",
"310 2 CURVE SMOOTH"
);
}
);
};
layerId = "A8E491AC-538A-406F-BFA1-3AE8243F8A5A";
name = "Oct 19 16, 18:02";
paths = (
{
closed = 1;
nodes = (
"163 547 OFFCURVE",
"39 423 OFFCURVE",
"39 273 CURVE SMOOTH",
"39 124 OFFCURVE",
"163 0 OFFCURVE",
"313 0 CURVE SMOOTH",
"379 0 OFFCURVE",
"442 23 OFFCURVE",
"491 66 CURVE SMOOTH",
"497 71 OFFCURVE",
"500 80 OFFCURVE",
"500 88 CURVE SMOOTH",
"500 105 OFFCURVE",
"487 119 OFFCURVE",
"470 119 CURVE SMOOTH",
"462 119 OFFCURVE",
"457 117 OFFCURVE",
"452 113 CURVE SMOOTH",
"413 81 OFFCURVE",
"364 61 OFFCURVE",
"313 61 CURVE SMOOTH",
"196 61 OFFCURVE",
"100 156 OFFCURVE",
"100 273 CURVE SMOOTH",
"100 391 OFFCURVE",
"196 486 OFFCURVE",
"313 486 CURVE SMOOTH",
"366 486 OFFCURVE",
"412 469 OFFCURVE",
"452 434 CURVE SMOOTH",
"457 429 OFFCURVE",
"463 427 OFFCURVE",
"471 427 CURVE SMOOTH",
"488 427 OFFCURVE",
"501 440 OFFCURVE",
"501 457 CURVE SMOOTH",
"501 466 OFFCURVE",
"497 476 OFFCURVE",
"491 481 CURVE SMOOTH",
"442 523 OFFCURVE",
"379 547 OFFCURVE",
"313 547 CURVE SMOOTH"
);
}
);
width = 547;
},
{
associatedMasterId = UUID0;
background = {
paths = (
{
closed = 0;
nodes = (
"485 130 LINE",
"449 81 OFFCURVE",
"396 46 OFFCURVE",
"310 46 CURVE SMOOTH",
"179 46 OFFCURVE",
"87 140 OFFCURVE",
"87 273 CURVE SMOOTH",
"87 404 OFFCURVE",
"177 497 OFFCURVE",
"305 497 CURVE SMOOTH",
"393 497 OFFCURVE",
"450 453 OFFCURVE",
"491 390 CURVE"
);
}
);
};
layerId = "2C550786-DBF6-480E-ADF4-4D2CB7A58078";
name = "Oct 19 16, 18:04";
paths = (
{
closed = 1;
nodes = (
"162 547 OFFCURVE",
"38 423 OFFCURVE",
"38 273 CURVE SMOOTH",
"38 124 OFFCURVE",
"162 0 OFFCURVE",
"312 0 CURVE SMOOTH",
"380 0 OFFCURVE",
"439 22 OFFCURVE",
"490 66 CURVE",
"500 77 OFFCURVE",
"506 90 OFFCURVE",
"506 104 CURVE SMOOTH",
"506 133 OFFCURVE",
"484 155 OFFCURVE",
"455 155 CURVE",
"443 154 OFFCURVE",
"431 151 OFFCURVE",
"423 144 CURVE SMOOTH",
"389 116 OFFCURVE",
"355 102 OFFCURVE",
"312 102 CURVE SMOOTH",
"216 102 OFFCURVE",
"140 178 OFFCURVE",
"140 273 CURVE SMOOTH",
"140 369 OFFCURVE",
"216 445 OFFCURVE",
"312 445 CURVE SMOOTH",
"354 445 OFFCURVE",
"390 430 OFFCURVE",
"423 402 CURVE SMOOTH",
"433 395 OFFCURVE",
"444 391 OFFCURVE",
"457 391 CURVE SMOOTH",
"486 391 OFFCURVE",
"507 413 OFFCURVE",
"507 442 CURVE SMOOTH",
"507 457 OFFCURVE",
"501 470 OFFCURVE",
"490 480 CURVE SMOOTH",
"439 525 OFFCURVE",
"380 547 OFFCURVE",
"312 547 CURVE SMOOTH"
);
}
);
width = 547;
}
);
leftKerningGroup = o;
leftMetricsKey = o;
rightKerningGroup = c;
rightMetricsKey = o;
unicode = 0063;
},
{
color = 1;
glyphname = d;
layers = (
{
anchors = (
{
name = bottom;
position = "{352, 0}";
},
{
name = center;
position = "{500, 634}";
},
{
name = ogonek;
position = "{607, 537}";
},
{
name = top;
position = "{352, 547}";
},
{
name = topright;
position = "{683, 781}";
}
);
layerId = UUID0;
paths = (
{
closed = 1;
nodes = (
"494 -4 OFFCURVE",
"612 116 OFFCURVE",
"613 274 CURVE SMOOTH",
"613 730 LINE SMOOTH",
"613 760 OFFCURVE",
"592 781 OFFCURVE",
"562 781 CURVE SMOOTH",
"532 781 OFFCURVE",
"511 760 OFFCURVE",
"511 730 CURVE SMOOTH",
"511 460 LINE",
"465 516 OFFCURVE",
"397 551 OFFCURVE",
"318 551 CURVE SMOOTH",
"172 551 OFFCURVE",
"62 432 OFFCURVE",
"62 274 CURVE SMOOTH",
"62 116 OFFCURVE",
"181 -4 OFFCURVE",
"338 -4 CURVE SMOOTH"
);
},
{
closed = 1;
nodes = (
"237 86 OFFCURVE",
"160 167 OFFCURVE",
"160 274 CURVE SMOOTH",
"160 381 OFFCURVE",
"237 461 OFFCURVE",
"338 461 CURVE SMOOTH",
"439 461 OFFCURVE",
"515 381 OFFCURVE",
"515 274 CURVE SMOOTH",
"515 167 OFFCURVE",
"439 86 OFFCURVE",
"338 86 CURVE SMOOTH"
);
}
);
width = 703;
},
{
anchors = (
{
name = bottom;
position = "{355, 0}";
},
{
name = center;
position = "{524, 657}";
},
{
name = ogonek;
position = "{611, 537}";
},
{
name = top;
position = "{355, 547}";
},
{
name = topright;
position = "{659, 781}";
}
);
background = {
components = (
{
name = a;
transform = "{1, 0, 0, -1, 0, 547}";
},
{
name = _part.stemh;
transform = "{1, 0, 0, 1, 469, 0}";
}
);
};
layerId = "952115DE-4B60-44C8-B7C0-A1F0450151B4";
paths = (
{
closed = 1;
nodes = (
"497 -6 OFFCURVE",
"616 111 OFFCURVE",
"619 268 CURVE SMOOTH",
"619 751 LINE SMOOTH",
"619 769 OFFCURVE",
"607 781 OFFCURVE",
"589 781 CURVE SMOOTH",
"571 781 OFFCURVE",
"559 769 OFFCURVE",
"559 751 CURVE SMOOTH",
"559 439 LINE",
"516 508 OFFCURVE",
"436 553 OFFCURVE",
"340 553 CURVE SMOOTH",
"180 553 OFFCURVE",
"60 433 OFFCURVE",
"60 274 CURVE SMOOTH",
"60 114 OFFCURVE",
"180 -6 OFFCURVE",
"340 -6 CURVE SMOOTH"
);
},
{
closed = 1;
nodes = (
"215 50 OFFCURVE",
"120 146 OFFCURVE",
"120 274 CURVE SMOOTH",
"120 401 OFFCURVE",
"215 497 OFFCURVE",
"340 497 CURVE SMOOTH",
"465 497 OFFCURVE",
"559 401 OFFCURVE",
"559 274 CURVE SMOOTH",
"559 146 OFFCURVE",
"465 50 OFFCURVE",
"340 50 CURVE SMOOTH"
);
}
);
width = 709;
}
);
leftKerningGroup = o;
leftMetricsKey = o;
rightKerningGroup = n;
rightMetricsKey = "=|h";
unicode = 0064;
},
{
glyphname = eth;
layers = (
{
background = {
paths = (
{
closed = 1;
nodes = (
"483 -6 OFFCURVE",
"593 117 OFFCURVE",
"593 291 CURVE",
"557 291 LINE",
"557 427 OFFCURVE",
"462 523 OFFCURVE",
"327 523 CURVE SMOOTH",
"171 523 OFFCURVE",
"60 414 OFFCURVE",
"60 261 CURVE SMOOTH",
"60 105 OFFCURVE",
"171 -6 OFFCURVE",
"327 -6 CURVE SMOOTH"
);
},
{
closed = 1;
nodes = (
"206 50 OFFCURVE",
"120 137 OFFCURVE",
"120 261 CURVE SMOOTH",
"120 382 OFFCURVE",
"206 467 OFFCURVE",
"327 467 CURVE SMOOTH",
"448 467 OFFCURVE",
"533 382 OFFCURVE",
"533 261 CURVE SMOOTH",
"533 137 OFFCURVE",
"448 50 OFFCURVE",
"327 50 CURVE SMOOTH"
);
},
{
closed = 1;
nodes = (
"593 286 LINE",
"593 347 LINE SMOOTH",
"593 539 OFFCURVE",
"507 696 OFFCURVE",
"319 765 CURVE SMOOTH",
"235 794 LINE SMOOTH",
"217 798 OFFCURVE",
"199 796 OFFCURVE",
"193 778 CURVE SMOOTH",
"187 760 OFFCURVE",
"201 743 OFFCURVE",
"219 739 CURVE SMOOTH",
"307 708 LINE SMOOTH",
"488 640 OFFCURVE",
"547 492 OFFCURVE",
"547 337 CURVE",
"547 286 LINE"
);
},
{
closed = 1;
nodes = (
"270 608 OFFCURVE",
"284 613 OFFCURVE",
"291 628 CURVE SMOOTH",
"378 807 LINE SMOOTH",
"384 820 OFFCURVE",
"381 834 OFFCURVE",
"368 841 CURVE SMOOTH",
"355 848 OFFCURVE",
"341 842 OFFCURVE",
"334 827 CURVE SMOOTH",
"248 648 LINE SMOOTH",
"242 635 OFFCURVE",
"245 621 OFFCURVE",
"258 614 CURVE SMOOTH"
);
}
);
};
layerId = UUID0;
paths = (
{
closed = 1;
nodes = (
"526 254 LINE",
"603 254 LINE",
"602 367 LINE SMOOTH",
"601 586 OFFCURVE",
"522 687 OFFCURVE",
"256 783 CURVE SMOOTH",
"229 793 OFFCURVE",
"204 793 OFFCURVE",
"195 769 CURVE SMOOTH",
"186 744 OFFCURVE",
"198 728 OFFCURVE",
"234 716 CURVE SMOOTH",
"459 640 OFFCURVE",
"519 573 OFFCURVE",
"524 357 CURVE SMOOTH"
);
},
{
closed = 1;
nodes = (
"237 644 LINE SMOOTH",
"226 624 OFFCURVE",
"235 612 OFFCURVE",
"251 603 CURVE SMOOTH",
"270 592 OFFCURVE",
"287 597 OFFCURVE",
"295 611 CURVE SMOOTH",
"391 785 LINE SMOOTH",
"399 800 OFFCURVE",
"395 814 OFFCURVE",
"375 826 CURVE SMOOTH",
"358 836 OFFCURVE",
"344 836 OFFCURVE",
"333 817 CURVE SMOOTH"
);
},
{
closed = 1;
nodes = (
"554 254 LINE",
"554 405 OFFCURVE",
"452 511 OFFCURVE",
"308 511 CURVE SMOOTH",
"164 511 OFFCURVE",
"62 405 OFFCURVE",
"62 254 CURVE SMOOTH",
"62 103 OFFCURVE",
"172 -4 OFFCURVE",
"328 -4 CURVE SMOOTH",
"488 -4 OFFCURVE",
"602 103 OFFCURVE",
"603 254 CURVE"
);
},
{
closed = 1;
nodes = (
"432 421 OFFCURVE",
"505 352 OFFCURVE",
"505 254 CURVE SMOOTH",
"505 156 OFFCURVE",
"432 86 OFFCURVE",
"328 86 CURVE SMOOTH",
"229 86 OFFCURVE",
"160 156 OFFCURVE",
"160 254 CURVE SMOOTH",
"160 352 OFFCURVE",
"229 421 OFFCURVE",
"328 421 CURVE SMOOTH"
);
}
);
width = 673;
},
{
background = {
components = (
{
name = o;
}
);
};
layerId = "952115DE-4B60-44C8-B7C0-A1F0450151B4";
paths = (
{
closed = 1;
nodes = (
"547 286 LINE",
"593 286 LINE",
"593 347 LINE SMOOTH",
"593 587 OFFCURVE",
"497 709 OFFCURVE",
"235 794 CURVE SMOOTH",
"217 800 OFFCURVE",
"199 796 OFFCURVE",
"193 778 CURVE SMOOTH",
"187 760 OFFCURVE",
"202 745 OFFCURVE",
"219 739 CURVE SMOOTH",
"454 662 OFFCURVE",
"547 560 OFFCURVE",
"547 337 CURVE"
);
},
{
closed = 1;
nodes = (
"248 648 LINE SMOOTH",
"242 635 OFFCURVE",
"245 621 OFFCURVE",
"258 614 CURVE SMOOTH",
"270 608 OFFCURVE",
"284 613 OFFCURVE",
"291 628 CURVE SMOOTH",
"378 807 LINE SMOOTH",
"384 820 OFFCURVE",
"381 834 OFFCURVE",
"368 841 CURVE SMOOTH",
"355 848 OFFCURVE",
"341 842 OFFCURVE",
"334 827 CURVE SMOOTH"
);
},
{
closed = 1;
nodes = (
"557 291 LINE",
"557 427 OFFCURVE",
"462 523 OFFCURVE",
"327 523 CURVE SMOOTH",
"171 523 OFFCURVE",
"60 414 OFFCURVE",
"60 261 CURVE SMOOTH",
"60 105 OFFCURVE",
"171 -6 OFFCURVE",
"327 -6 CURVE SMOOTH",
"483 -6 OFFCURVE",
"593 117 OFFCURVE",
"593 291 CURVE"
);
},
{
closed = 1;
nodes = (
"448 467 OFFCURVE",
"533 382 OFFCURVE",
"533 261 CURVE SMOOTH",
"533 137 OFFCURVE",
"448 50 OFFCURVE",
"327 50 CURVE SMOOTH",
"206 50 OFFCURVE",
"120 137 OFFCURVE",
"120 261 CURVE SMOOTH",
"120 382 OFFCURVE",
"206 467 OFFCURVE",
"327 467 CURVE SMOOTH"
);
}
);
width = 663;
}
);
leftKerningGroup = o;
leftMetricsKey = o;
rightKerningGroup = o;
unicode = 00F0;
},
{
glyphname = dcroat;
layers = (
{
components = (
{
name = d;
}
);
layerId = UUID0;
paths = (
{
closed = 1;
nodes = (
"369 689 LINE",
"339 689 OFFCURVE",
"318 677 OFFCURVE",
"318 649 CURVE SMOOTH",
"318 627 OFFCURVE",
"339 609 OFFCURVE",
"369 609 CURVE",
"651 609 LINE",
"681 609 OFFCURVE",
"703 627 OFFCURVE",
"703 649 CURVE SMOOTH",
"703 677 OFFCURVE",
"681 689 OFFCURVE",
"651 689 CURVE"
);
}
);
width = 703;
},
{
components = (
{
name = d;
}
);
layerId = "952115DE-4B60-44C8-B7C0-A1F0450151B4";
paths = (
{
closed = 1;
nodes = (
"384 684 LINE SMOOTH",
"368 684 OFFCURVE",
"357 673 OFFCURVE",
"357 657 CURVE SMOOTH",
"357 641 OFFCURVE",
"368 630 OFFCURVE",
"384 630 CURVE SMOOTH",
"682 630 LINE SMOOTH",
"698 630 OFFCURVE",
"709 641 OFFCURVE",
"709 657 CURVE SMOOTH",
"709 673 OFFCURVE",
"698 684 OFFCURVE",
"682 684 CURVE SMOOTH"
);
}
);
width = 709;
}
);
leftKerningGroup = o;
rightKerningGroup = hbar;
unicode = 0111;
},
{
glyphname = e;
layers = (
{
anchors = (
{
name = bottom;
position = "{322, 0}";
},
{
name = ogonek;
position = "{415, 93}";
},
{
name = top;
position = "{322, 547}";
}
);
background = {
components = (
{
name = o;
transform = "{1, 0, 0, 1, -1, 0}";
}
);
};
layerId = UUID0;
paths = (
{
closed = 1;
nodes = (
"532 318 LINE",
"132 318 LINE",
"132 238 LINE",
"535 238 LINE SMOOTH",
"562 238 OFFCURVE",
"581 256 OFFCURVE",
"581 282 CURVE SMOOTH",
"581 440 OFFCURVE",
"488 551 OFFCURVE",
"332 551 CURVE SMOOTH",
"174 551 OFFCURVE",
"62 436 OFFCURVE",
"62 273 CURVE SMOOTH",
"62 111 OFFCURVE",
"180 -4 OFFCURVE",
"347 -4 CURVE SMOOTH",
"408 -4 OFFCURVE",
"483 21 OFFCURVE",
"528 57 CURVE SMOOTH",
"550 74 OFFCURVE",
"549 101 OFFCURVE",
"526 121 CURVE",
"509 135 OFFCURVE",
"483 135 OFFCURVE",
"463 120 CURVE SMOOTH",
"436 100 OFFCURVE",
"388 82 OFFCURVE",
"347 82 CURVE SMOOTH",
"233 82 OFFCURVE",
"152 163 OFFCURVE",
"152 273 CURVE SMOOTH",
"152 383 OFFCURVE",
"217 465 OFFCURVE",
"332 465 CURVE SMOOTH",
"432 465 OFFCURVE",
"488 390 OFFCURVE",
"491 290 CURVE"
);
}
);
width = 621;
},
{
anchors = (
{
name = bottom;
position = "{315, 0}";
},
{
name = ogonek;
position = "{401, 60}";
},
{
name = top;
position = "{315, 547}";
}
);
background = {
components = (
{
name = o;
}
);
};
layerId = "952115DE-4B60-44C8-B7C0-A1F0450151B4";
paths = (
{
closed = 1;
nodes = (
"556 307 LINE",
"100 307 LINE",
"100 255 LINE",
"540 255 LINE SMOOTH",
"557 255 OFFCURVE",
"569 266 OFFCURVE",
"569 283 CURVE SMOOTH",
"569 440 OFFCURVE",
"465 552 OFFCURVE",
"317 552 CURVE SMOOTH",
"166 552 OFFCURVE",
"60 436 OFFCURVE",
"60 273 CURVE SMOOTH",
"60 110 OFFCURVE",
"173 -5 OFFCURVE",
"332 -5 CURVE SMOOTH",
"395 -5 OFFCURVE",
"471 23 OFFCURVE",
"514 62 CURVE SMOOTH",
"527 74 OFFCURVE",
"526 90 OFFCURVE",
"512 102 CURVE SMOOTH",
"501 111 OFFCURVE",
"484 110 OFFCURVE",
"473 100 CURVE SMOOTH",
"442 71 OFFCURVE",
"384 51 OFFCURVE",
"332 51 CURVE SMOOTH",
"208 51 OFFCURVE",
"120 143 OFFCURVE",
"120 273 CURVE SMOOTH",
"120 404 OFFCURVE",
"202 496 OFFCURVE",
"317 496 CURVE SMOOTH",
"436 496 OFFCURVE",
"516 404 OFFCURVE",
"512 274 CURVE"
);
}
);
width = 609;
},
{
associatedMasterId = "952115DE-4B60-44C8-B7C0-A1F0450151B4";
background = {
paths = (
{
closed = 0;
nodes = (
"491 108 LINE",
"449 59 OFFCURVE",
"385 30 OFFCURVE",
"310 30 CURVE SMOOTH",
"169 30 OFFCURVE",
"70 130 OFFCURVE",
"70 273 CURVE SMOOTH",
"70 416 OFFCURVE",
"160 517 OFFCURVE",
"295 517 CURVE SMOOTH",
"423 517 OFFCURVE",
"519 420 OFFCURVE",
"519 283 CURVE",
"70 283 LINE"
);
}
);
};
layerId = "D1A5971B-7350-41D3-9A4D-7E3DA535A08C";
name = "Oct 19 16, 17:43";
paths = (
{
closed = 1;
nodes = (
"556 243 LINE SMOOTH",
"573 243 OFFCURVE",
"586 256 OFFCURVE",
"586 273 CURVE SMOOTH",
"586 423 OFFCURVE",
"462 547 OFFCURVE",
"313 547 CURVE SMOOTH",
"163 547 OFFCURVE",
"39 423 OFFCURVE",
"39 273 CURVE SMOOTH",
"39 124 OFFCURVE",
"163 0 OFFCURVE",
"313 0 CURVE SMOOTH",
"380 0 OFFCURVE",
"440 21 OFFCURVE",
"491 66 CURVE SMOOTH",
"496 71 OFFCURVE",
"499 79 OFFCURVE",
"499 87 CURVE SMOOTH",
"499 104 OFFCURVE",
"485 118 OFFCURVE",
"468 118 CURVE SMOOTH",
"461 118 OFFCURVE",
"454 115 OFFCURVE",
"449 111 CURVE SMOOTH",
"411 78 OFFCURVE",
"366 61 OFFCURVE",
"313 61 CURVE SMOOTH",
"212 61 OFFCURVE",
"124 128 OFFCURVE",
"101 243 CURVE"
);
},
{
closed = 1;
nodes = (
"101 304 LINE",
"124 418 OFFCURVE",
"212 486 OFFCURVE",
"313 486 CURVE SMOOTH",
"413 486 OFFCURVE",
"502 417 OFFCURVE",
"524 304 CURVE"
);
}
);
width = 625;
},
{
associatedMasterId = UUID0;
background = {
paths = (
{
closed = 1;
nodes = (
"379 -15 OFFCURVE",
"442 7 OFFCURVE",
"491 46 CURVE SMOOTH",
"514 64 OFFCURVE",
"513 89 OFFCURVE",
"489 110 CURVE",
"468 128 OFFCURVE",
"449 126 OFFCURVE",
"426 109 CURVE SMOOTH",
"394 87 OFFCURVE",
"355 75 OFFCURVE",
"310 75 CURVE SMOOTH",
"193.788 75 OFFCURVE",
"115 154.906 OFFCURVE",
"115 273 CURVE SMOOTH",
"115 393.194 OFFCURVE",
"186.862 472 OFFCURVE",
"295 472 CURVE SMOOTH",
"384.714 472 OFFCURVE",
"452.282 414.336 OFFCURVE",
"469.637 328 CURVE",
"115 328 LINE SMOOTH",
"86 328 OFFCURVE",
"70 312 OFFCURVE",
"70 283 CURVE SMOOTH",
"70 254 OFFCURVE",
"86 238 OFFCURVE",
"115 238 CURVE SMOOTH",
"518 238 LINE SMOOTH",
"546 238 OFFCURVE",
"564 253 OFFCURVE",
"564 282 CURVE SMOOTH",
"565 442 OFFCURVE",
"450 562 OFFCURVE",
"295 562 CURVE SMOOTH",
"136.525 562 OFFCURVE",
"25 442.193 OFFCURVE",
"25 273 CURVE SMOOTH",
"25 105.443 OFFCURVE",
"144.124 -15 OFFCURVE",
"310 -15 CURVE SMOOTH"
);
}
);
};
layerId = "26F2D820-ABCD-4A92-A906-6A81E46BF4B2";
name = "Oct 19 16, 17:44";
paths = (
{
closed = 1;
nodes = (
"535 223 LINE SMOOTH",
"563 223 OFFCURVE",
"586 244 OFFCURVE",
"586 273 CURVE SMOOTH",
"586 426 OFFCURVE",
"459 547 OFFCURVE",
"313 547 CURVE SMOOTH",
"163 547 OFFCURVE",
"39 423 OFFCURVE",
"39 273 CURVE SMOOTH",
"39 124 OFFCURVE",
"163 0 OFFCURVE",
"313 0 CURVE SMOOTH",
"381 0 OFFCURVE",
"441 22 OFFCURVE",
"491 66 CURVE",
"501 77 OFFCURVE",
"506 89 OFFCURVE",
"506 103 CURVE SMOOTH",
"506 132 OFFCURVE",
"484 154 OFFCURVE",
"455 154 CURVE",
"442 153 OFFCURVE",
"431 149 OFFCURVE",
"421 141 CURVE SMOOTH",
"391 115 OFFCURVE",
"355 102 OFFCURVE",
"313 102 CURVE SMOOTH",
"237 102 OFFCURVE",
"170 151 OFFCURVE",
"148 223 CURVE"
);
},
{
closed = 1;
nodes = (
"148 324 LINE",
"169 396 OFFCURVE",
"238 445 OFFCURVE",
"313 445 CURVE SMOOTH",
"387 445 OFFCURVE",
"455 396 OFFCURVE",
"477 324 CURVE"
);
}
);
width = 625;
}
);
leftKerningGroup = o;
leftMetricsKey = o;
rightKerningGroup = e;
unicode = 0065;
},
{
color = 1;
glyphname = schwa;
layers = (
{
anchors = (
{
name = bottom;
position = "{299.161, 0.274}";
},
{
name = ogonek;
position = "{206.208, 454.047}";
},
{
name = top;
position = "{299.161, 547}";
}
);
layerId = UUID0;
paths = (
{
closed = 1;
nodes = (
"89.266 229.159 LINE",
"489.066 229.159 LINE",
"489.066 309.119 LINE",
"86.268 309.119 LINE SMOOTH",
"59.281 309.119 OFFCURVE",
"40.291 291.128 OFFCURVE",
"40.291 265.141 CURVE SMOOTH",
"40.291 107.22 OFFCURVE",
"133.244 -3.724 OFFCURVE",
"289.166 -3.724 CURVE SMOOTH",
"447.087 -3.724 OFFCURVE",
"559.031 111.218 OFFCURVE",
"559.031 274.137 CURVE SMOOTH",
"559.031 436.056 OFFCURVE",
"441.09 550.998 OFFCURVE",
"274.174 550.998 CURVE SMOOTH",
"213.204 550.998 OFFCURVE",
"138.242 526.011 OFFCURVE",
"93.264 490.029 CURVE SMOOTH",
"71.275 473.037 OFFCURVE",
"72.275 446.051 OFFCURVE",
"95.263 426.061 CURVE",
"112.255 412.068 OFFCURVE",
"138.242 412.068 OFFCURVE",
"158.232 427.06 CURVE SMOOTH",
"185.218 447.05 OFFCURVE",
"233.194 465.041 OFFCURVE",
"274.174 465.041 CURVE SMOOTH",
"388.117 465.041 OFFCURVE",
"469.076 384.082 OFFCURVE",
"469.076 274.137 CURVE SMOOTH",
"469.076 164.192 OFFCURVE",
"404.109 82.233 OFFCURVE",
"289.166 82.233 CURVE SMOOTH",
"189.216 82.233 OFFCURVE",
"133.244 157.195 OFFCURVE",
"130.246 257.145 CURVE"
);
}
);
width = 621;
},
{
anchors = (
{
name = bottom;
position = "{294.126, 0.219}";
},
{
name = ogonek;
position = "{208.16, 487.024}";
},
{
name = top;
position = "{294.126, 547}";
}
);
layerId = "952115DE-4B60-44C8-B7C0-A1F0450151B4";
paths = (
{
closed = 1;
nodes = (
"53.222 240.123 LINE",
"509.04 240.123 LINE",
"509.04 292.102 LINE",
"69.216 292.102 LINE SMOOTH",
"52.223 292.102 OFFCURVE",
"40.228 281.106 OFFCURVE",
"40.228 264.113 CURVE SMOOTH",
"40.228 107.176 OFFCURVE",
"144.186 -4.779 OFFCURVE",
"292.127 -4.779 CURVE SMOOTH",
"443.066 -4.779 OFFCURVE",
"549.024 111.174 OFFCURVE",
"549.024 274.109 CURVE SMOOTH",
"549.024 437.044 OFFCURVE",
"436.069 551.998 OFFCURVE",
"277.133 551.998 CURVE SMOOTH",
"214.158 551.998 OFFCURVE",
"138.188 524.009 OFFCURVE",
"95.206 485.025 CURVE SMOOTH",
"82.211 473.03 OFFCURVE",
"83.21 457.036 OFFCURVE",
"97.205 445.041 CURVE SMOOTH",
"108.2 436.044 OFFCURVE",
"125.194 437.044 OFFCURVE",
"136.189 447.04 CURVE SMOOTH",
"167.177 476.028 OFFCURVE",
"225.154 496.02 OFFCURVE",
"277.133 496.02 CURVE SMOOTH",
"401.083 496.02 OFFCURVE",
"489.048 404.057 OFFCURVE",
"489.048 274.109 CURVE SMOOTH",
"489.048 143.162 OFFCURVE",
"407.081 51.198 OFFCURVE",
"292.127 51.198 CURVE SMOOTH",
"173.174 51.198 OFFCURVE",
"93.206 143.162 OFFCURVE",
"97.205 273.11 CURVE"
);
}
);
width = 609;
}
);
leftKerningGroup = o;
rightKerningGroup = o;
unicode = 0259;
},
{
glyphname = f;
layers = (
{
anchors = (
{
name = bottom;
position = "{174, 0}";
},
{
name = top;
position = "{164, 781}";
}
);
background = {
paths = (
{
closed = 1;
nodes = (
"307 0 LINE SMOOTH",
"341 0 OFFCURVE",
"366 21 OFFCURVE",
"366 50 CURVE SMOOTH",
"366 79 OFFCURVE",
"347 100 OFFCURVE",
"323 100 CURVE SMOOTH",
"289 100 LINE SMOOTH",
"246 100 OFFCURVE",
"213 140 OFFCURVE",
"213 194 CURVE SMOOTH",
"213 671 LINE SMOOTH",
"213 700 OFFCURVE",
"192 721 OFFCURVE",
"163 721 CURVE SMOOTH",
"134 721 OFFCURVE",
"113 700 OFFCURVE",
"113 671 CURVE SMOOTH",
"113 194 LINE SMOOTH",
"113 83 OFFCURVE",
"189 0 OFFCURVE",
"289 0 CURVE SMOOTH"
);
},
{
closed = 1;
nodes = (
"298 441 LINE SMOOTH",
"326 441 OFFCURVE",
"345 459 OFFCURVE",
"345 483 CURVE SMOOTH",
"345 509 OFFCURVE",
"326 527 OFFCURVE",
"298 527 CURVE SMOOTH",
"67 527 LINE SMOOTH",
"39 527 OFFCURVE",
"20 509 OFFCURVE",
"20 483 CURVE SMOOTH",
"20 459 OFFCURVE",
"39 441 OFFCURVE",
"67 441 CURVE SMOOTH"
);
}
);
};
layerId = UUID0;
paths = (
{
closed = 1;
nodes = (
"100 51 LINE",
"100 20 OFFCURVE",
"123 0 OFFCURVE",
"149 0 CURVE SMOOTH",
"182 0 OFFCURVE",
"202 20 OFFCURVE",
"202 51 CURVE",
"202 554 LINE",
"202 635 OFFCURVE",
"251 689 OFFCURVE",
"326 689 CURVE SMOOTH",
"355 689 OFFCURVE",
"377 709 OFFCURVE",
"377 735 CURVE SMOOTH",
"377 761 OFFCURVE",
"355 781 OFFCURVE",
"326 781 CURVE SMOOTH",
"192 781 OFFCURVE",
"100 687 OFFCURVE",
"100 544 CURVE"
);
},
{
closed = 1;
nodes = (
"57 527 LINE SMOOTH",
"29 527 OFFCURVE",
"10 509 OFFCURVE",
"10 483 CURVE SMOOTH",
"10 459 OFFCURVE",
"29 441 OFFCURVE",
"57 441 CURVE SMOOTH",
"304 441 LINE SMOOTH",
"332 441 OFFCURVE",
"351 459 OFFCURVE",
"351 483 CURVE SMOOTH",
"351 509 OFFCURVE",
"332 527 OFFCURVE",
"304 527 CURVE SMOOTH"
);
}
);
width = 367;
},
{
anchors = (
{
name = bottom;
position = "{194, 0}";
},
{
name = top;
position = "{172, 781}";
}
);
background = {
paths = (
{
closed = 1;
nodes = (
"337 0 LINE",
"355 0 OFFCURVE",
"368 12 OFFCURVE",
"368 30 CURVE SMOOTH",
"368 48 OFFCURVE",
"355 61 OFFCURVE",
"337 61 CURVE",
"325 61 LINE SMOOTH",
"255 61 OFFCURVE",
"206 115 OFFCURVE",
"206 192 CURVE",
"206 710 LINE SMOOTH",
"206 728 OFFCURVE",
"193 741 OFFCURVE",
"175 741 CURVE SMOOTH",
"157 741 OFFCURVE",
"145 728 OFFCURVE",
"145 710 CURVE",
"145 192 LINE",
"145 80 OFFCURVE",
"223 1 OFFCURVE",
"334 0 CURVE"
);
},
{
closed = 1;
nodes = (
"318 473 LINE SMOOTH",
"334 473 OFFCURVE",
"345 484 OFFCURVE",
"345 500 CURVE SMOOTH",
"345 516 OFFCURVE",
"334 527 OFFCURVE",
"318 527 CURVE SMOOTH",
"67 527 LINE SMOOTH",
"51 527 OFFCURVE",
"40 516 OFFCURVE",
"40 500 CURVE SMOOTH",
"40 484 OFFCURVE",
"51 473 OFFCURVE",
"67 473 CURVE SMOOTH"
);
}
);
};
guideLines = (
{
angle = 90;
position = "{355, 620}";
}
);
layerId = "952115DE-4B60-44C8-B7C0-A1F0450151B4";
paths = (
{
closed = 1;
nodes = (
"135 30 LINE",
"135 12 OFFCURVE",
"147 0 OFFCURVE",
"165 0 CURVE SMOOTH",
"183 0 OFFCURVE",
"196 12 OFFCURVE",
"196 30 CURVE",
"196 548 LINE",
"196 649 OFFCURVE",
"232 727 OFFCURVE",
"335 727 CURVE SMOOTH",
"353 727 OFFCURVE",
"365 738 OFFCURVE",
"365 754 CURVE SMOOTH",
"365 770 OFFCURVE",
"353 781 OFFCURVE",
"335 781 CURVE SMOOTH",
"196 781 OFFCURVE",
"135 684 OFFCURVE",
"135 548 CURVE"
);
},
{
closed = 1;
nodes = (
"57 527 LINE SMOOTH",
"41 527 OFFCURVE",
"30 516 OFFCURVE",
"30 500 CURVE SMOOTH",
"30 484 OFFCURVE",
"41 473 OFFCURVE",
"57 473 CURVE SMOOTH",
"328 473 LINE SMOOTH",
"344 473 OFFCURVE",
"355 484 OFFCURVE",
"355 500 CURVE SMOOTH",
"355 516 OFFCURVE",
"344 527 OFFCURVE",
"328 527 CURVE SMOOTH"
);
}
);
width = 365;
},
{
anchors = (
{
name = bottom;
position = "{174, 0}";
},
{
name = top;
position = "{152, 781}";
}
);
associatedMasterId = "952115DE-4B60-44C8-B7C0-A1F0450151B4";
background = {
paths = (
{
closed = 1;
nodes = (
"307 0 LINE",
"325 0 OFFCURVE",
"338 12 OFFCURVE",
"338 30 CURVE SMOOTH",
"338 48 OFFCURVE",
"325 61 OFFCURVE",
"307 61 CURVE",
"295 61 LINE SMOOTH",
"225 61 OFFCURVE",
"176 115 OFFCURVE",
"176 192 CURVE",
"176 670 LINE SMOOTH",
"176 688 OFFCURVE",
"163 701 OFFCURVE",
"145 701 CURVE SMOOTH",
"127 701 OFFCURVE",
"115 688 OFFCURVE",
"115 670 CURVE",
"115 192 LINE",
"115 80 OFFCURVE",
"193 1 OFFCURVE",
"304 0 CURVE"
);
},
{
closed = 1;
nodes = (
"288 493 LINE SMOOTH",
"304 493 OFFCURVE",
"315 504 OFFCURVE",
"315 520 CURVE SMOOTH",
"315 536 OFFCURVE",
"304 547 OFFCURVE",
"288 547 CURVE SMOOTH",
"37 547 LINE SMOOTH",
"21 547 OFFCURVE",
"10 536 OFFCURVE",
"10 520 CURVE SMOOTH",
"10 504 OFFCURVE",
"21 493 OFFCURVE",
"37 493 CURVE SMOOTH"
);
}
);
};
layerId = "3D633DC3-FAE8-45DD-914D-2BD965D10DA9";
name = old;
paths = (
{
closed = 1;
nodes = (
"115 30 LINE",
"115 13 OFFCURVE",
"128 0 OFFCURVE",
"145 0 CURVE SMOOTH",
"162 0 OFFCURVE",
"176 13 OFFCURVE",
"176 30 CURVE",
"176 548 LINE",
"176 663 OFFCURVE",
"233 720 OFFCURVE",
"348 720 CURVE SMOOTH",
"365 720 OFFCURVE",
"378 734 OFFCURVE",
"378 751 CURVE SMOOTH",
"378 768 OFFCURVE",
"365 781 OFFCURVE",
"348 781 CURVE SMOOTH",
"192 781 OFFCURVE",
"115 704 OFFCURVE",
"115 548 CURVE"
);
},
{
closed = 1;
nodes = (
"37 547 LINE SMOOTH",
"21 547 OFFCURVE",
"10 536 OFFCURVE",
"10 520 CURVE SMOOTH",
"10 504 OFFCURVE",
"21 493 OFFCURVE",
"37 493 CURVE SMOOTH",
"288 493 LINE SMOOTH",
"304 493 OFFCURVE",
"315 504 OFFCURVE",
"315 520 CURVE SMOOTH",
"315 536 OFFCURVE",
"304 547 OFFCURVE",
"288 547 CURVE SMOOTH"
);
}
);
width = 348;
},
{
anchors = (
{
name = bottom;
position = "{174, 0}";
},
{
name = top;
position = "{164, 781}";
}
);
associatedMasterId = UUID0;
background = {
paths = (
{
closed = 1;
nodes = (
"284 461 LINE SMOOTH",
"312 461 OFFCURVE",
"331 479 OFFCURVE",
"331 503 CURVE SMOOTH",
"331 529 OFFCURVE",
"312 547 OFFCURVE",
"284 547 CURVE SMOOTH",
"53 547 LINE SMOOTH",
"25 547 OFFCURVE",
"6 529 OFFCURVE",
"6 503 CURVE SMOOTH",
"6 479 OFFCURVE",
"25 461 OFFCURVE",
"53 461 CURVE SMOOTH"
);
}
);
};
layerId = "B182D037-3459-4413-8680-6FDBDB43E421";
name = old;
paths = (
{
closed = 1;
nodes = (
"104 51 LINE",
"104 23 OFFCURVE",
"122 0 OFFCURVE",
"151 0 CURVE SMOOTH",
"180 0 OFFCURVE",
"202 23 OFFCURVE",
"202 51 CURVE",
"202 554 LINE",
"202 654 OFFCURVE",
"236 679 OFFCURVE",
"336 679 CURVE SMOOTH",
"381 679 OFFCURVE",
"397 701 OFFCURVE",
"397 730 CURVE SMOOTH",
"397 758 OFFCURVE",
"381 781 OFFCURVE",
"336 781 CURVE SMOOTH",
"179 781 OFFCURVE",
"104 702 OFFCURVE",
"104 544 CURVE"
);
},
{
closed = 1;
nodes = (
"57 547 LINE SMOOTH",
"29 547 OFFCURVE",
"10 529 OFFCURVE",
"10 503 CURVE SMOOTH",
"10 479 OFFCURVE",
"29 461 OFFCURVE",
"57 461 CURVE SMOOTH",
"284 461 LINE SMOOTH",
"312 461 OFFCURVE",
"331 479 OFFCURVE",
"331 503 CURVE SMOOTH",
"331 529 OFFCURVE",
"312 547 OFFCURVE",
"284 547 CURVE SMOOTH"
);
}
);
width = 347;
}
);
leftKerningGroup = f;
rightKerningGroup = f;
unicode = 0066;
},
{
glyphname = g;
layers = (
{
anchors = (
{
name = bottom;
position = "{335, -227}";
},
{
name = top;
position = "{338, 547}";
}
);
background = {
paths = (
{
closed = 0;
nodes = (
"565 977 LINE",
"565 837 LINE",
"565 709 OFFCURVE",
"464 618 OFFCURVE",
"322 618 CURVE SMOOTH",
"197 618 OFFCURVE",
"108 671 OFFCURVE",
"108 746 CURVE"
);
},
{
closed = 1;
nodes = (
"172 328 OFFCURVE",
"62 209 OFFCURVE",
"62 51 CURVE",
"62 -107 OFFCURVE",
"181 -227 OFFCURVE",
"338 -227 CURVE SMOOTH",
"494 -227 OFFCURVE",
"612 -107 OFFCURVE",
"613 51 CURVE",
"574 51 LINE",
"574 209 OFFCURVE",
"464 328 OFFCURVE",
"318 328 CURVE SMOOTH"
);
},
{
closed = 1;
nodes = (
"439 238 OFFCURVE",
"515 158 OFFCURVE",
"515 51 CURVE SMOOTH",
"515 -56 OFFCURVE",
"439 -137 OFFCURVE",
"338 -137 CURVE SMOOTH",
"237 -137 OFFCURVE",
"160 -56 OFFCURVE",
"160 51 CURVE SMOOTH",
"160 158 OFFCURVE",
"237 238 OFFCURVE",
"338 238 CURVE SMOOTH"
);
},
{
closed = 1;
nodes = (
"533 325 OFFCURVE",
"511 303 OFFCURVE",
"511 274 CURVE SMOOTH",
"511 121 LINE",
"530 15 LINE",
"613 51 LINE",
"613 274 LINE SMOOTH",
"613 303 OFFCURVE",
"591 325 OFFCURVE",
"562 325 CURVE SMOOTH"
);
}
);
};
guideLines = (
{
angle = 90;
position = "{62, 276}";
},
{
angle = 90;
position = "{112, 276}";
}
);
layerId = UUID0;
paths = (
{
closed = 1;
nodes = (
"613 273 LINE",
"548 294 LINE",
"515 206 LINE",
"515 64 LINE SMOOTH",
"515 -66 OFFCURVE",
"434 -137 OFFCURVE",
"338 -137 CURVE SMOOTH",
"268 -137 OFFCURVE",
"213 -111 OFFCURVE",
"177 -65 CURVE SMOOTH",
"161 -44 OFFCURVE",
"132 -37 OFFCURVE",
"108 -53 CURVE SMOOTH",
"86 -68 OFFCURVE",
"80 -95 OFFCURVE",
"98 -117 CURVE SMOOTH",
"155 -189 OFFCURVE",
"241 -227 OFFCURVE",
"336 -227 CURVE SMOOTH",
"500 -227 OFFCURVE",
"613 -101 OFFCURVE",
"613 57 CURVE SMOOTH"
);
},
{
closed = 1;
nodes = (
"613 273 LINE",
"612 436 OFFCURVE",
"498 551 OFFCURVE",
"338 551 CURVE SMOOTH",
"176 551 OFFCURVE",
"62 436 OFFCURVE",
"62 273 CURVE SMOOTH",
"62 111 OFFCURVE",
"168 -4 OFFCURVE",
"318 -4 CURVE SMOOTH",
"456 -4 OFFCURVE",
"554 111 OFFCURVE",
"554 273 CURVE"
);
},
{
closed = 1;
nodes = (
"442 461 OFFCURVE",
"515 383 OFFCURVE",
"515 273 CURVE SMOOTH",
"515 163 OFFCURVE",
"442 86 OFFCURVE",
"338 86 CURVE SMOOTH",
"234 86 OFFCURVE",
"160 163 OFFCURVE",
"160 273 CURVE SMOOTH",
"160 383 OFFCURVE",
"234 461 OFFCURVE",
"338 461 CURVE SMOOTH"
);
}
);
width = 675;
},
{
anchors = (
{
name = bottom;
position = "{338, -210}";
},
{
name = top;
position = "{340, 547}";
}
);
background = {
components = (
{
name = o;
transform = "{1, 0, 0, 1, 0, -203}";
}
);
paths = (
{
closed = 0;
nodes = (
"590 1077 LINE",
"590 907 LINE",
"590 792 OFFCURVE",
"482 718 OFFCURVE",
"337 718 CURVE SMOOTH",
"215 718 OFFCURVE",
"123 768 OFFCURVE",
"123 846 CURVE"
);
}
);
};
guideLines = (
{
angle = 90;
position = "{93, 273}";
}
);
layerId = "952115DE-4B60-44C8-B7C0-A1F0450151B4";
paths = (
{
closed = 1;
nodes = (
"619 273 LINE",
"586 273 LINE",
"559 236 LINE",
"559 77 LINE SMOOTH",
"559 -54 OFFCURVE",
"467 -153 OFFCURVE",
"344 -153 CURVE SMOOTH",
"257 -153 OFFCURVE",
"193 -117 OFFCURVE",
"152 -67 CURVE SMOOTH",
"142 -53 OFFCURVE",
"121 -50 OFFCURVE",
"108 -60 CURVE SMOOTH",
"95 -69 OFFCURVE",
"95 -86 OFFCURVE",
"106 -99 CURVE SMOOTH",
"156 -163 OFFCURVE",
"233 -209 OFFCURVE",
"344 -209 CURVE SMOOTH",
"501 -209 OFFCURVE",
"619 -86 OFFCURVE",
"619 77 CURVE SMOOTH"
);
},
{
closed = 1;
nodes = (
"619 273 LINE",
"619 437 OFFCURVE",
"503 553 OFFCURVE",
"340 553 CURVE SMOOTH",
"182 553 OFFCURVE",
"60 437 OFFCURVE",
"60 273 CURVE SMOOTH",
"60 110 OFFCURVE",
"176 -6 OFFCURVE",
"340 -6 CURVE SMOOTH",
"483 -6 OFFCURVE",
"584 93 OFFCURVE",
"584 233 CURVE"
);
},
{
closed = 1;
nodes = (
"468 497 OFFCURVE",
"559 404 OFFCURVE",
"559 273 CURVE SMOOTH",
"559 142 OFFCURVE",
"468 50 OFFCURVE",
"340 50 CURVE SMOOTH",
"211 50 OFFCURVE",
"120 142 OFFCURVE",
"120 273 CURVE SMOOTH",
"120 404 OFFCURVE",
"211 497 OFFCURVE",
"340 497 CURVE SMOOTH"
);
}
);
width = 679;
},
{
associatedMasterId = UUID0;
background = {
paths = (
{
closed = 1;
nodes = (
"448 -234 OFFCURVE",
"586 -139 OFFCURVE",
"586 2 CURVE SMOOTH",
"586 273 LINE SMOOTH",
"586 425 OFFCURVE",
"460 547 OFFCURVE",
"313 547 CURVE SMOOTH",
"163 547 OFFCURVE",
"39 423 OFFCURVE",
"39 273 CURVE SMOOTH",
"39 124 OFFCURVE",
"163 0 OFFCURVE",
"313 0 CURVE SMOOTH",
"378 0 OFFCURVE",
"435 20 OFFCURVE",
"484 60 CURVE",
"484 2 LINE SMOOTH",
"484 -73 OFFCURVE",
"399 -132 OFFCURVE",
"316 -132 CURVE SMOOTH",
"249 -132 OFFCURVE",
"198 -104 OFFCURVE",
"153 -41 CURVE SMOOTH",
"130 -9 OFFCURVE",
"122 -4 OFFCURVE",
"103 -4 CURVE SMOOTH",
"73 -4 OFFCURVE",
"51 -25 OFFCURVE",
"51 -55 CURVE SMOOTH",
"51 -65 OFFCURVE",
"54 -75 OFFCURVE",
"59 -82 CURVE",
"112 -179 OFFCURVE",
"212 -234 OFFCURVE",
"316 -234 CURVE SMOOTH"
);
},
{
closed = 1;
nodes = (
"217 102 OFFCURVE",
"141 180 OFFCURVE",
"141 273 CURVE SMOOTH",
"141 367 OFFCURVE",
"217 445 OFFCURVE",
"313 445 CURVE SMOOTH",
"408 445 OFFCURVE",
"484 367 OFFCURVE",
"484 273 CURVE SMOOTH",
"484 180 OFFCURVE",
"408 102 OFFCURVE",
"313 102 CURVE SMOOTH"
);
}
);
};
layerId = "40E3BCD7-0CCB-4DCD-BEC1-414BA02D5BEA";
name = "Oct 19 16, 17:50";
paths = (
{
closed = 1;
nodes = (
"586 273 LINE SMOOTH",
"586 425 OFFCURVE",
"460 547 OFFCURVE",
"313 547 CURVE SMOOTH",
"163 547 OFFCURVE",
"39 423 OFFCURVE",
"39 273 CURVE SMOOTH",
"39 124 OFFCURVE",
"163 0 OFFCURVE",
"313 0 CURVE SMOOTH",
"378 0 OFFCURVE",
"435 20 OFFCURVE",
"484 60 CURVE",
"484 2 LINE SMOOTH",
"484 -73 OFFCURVE",
"399 -132 OFFCURVE",
"316 -132 CURVE SMOOTH",
"249 -132 OFFCURVE",
"198 -104 OFFCURVE",
"153 -41 CURVE SMOOTH",
"130 -9 OFFCURVE",
"122 -4 OFFCURVE",
"103 -4 CURVE SMOOTH",
"73 -4 OFFCURVE",
"51 -25 OFFCURVE",
"51 -55 CURVE SMOOTH",
"51 -65 OFFCURVE",
"54 -75 OFFCURVE",
"59 -82 CURVE",
"112 -179 OFFCURVE",
"212 -234 OFFCURVE",
"316 -234 CURVE SMOOTH",
"448 -234 OFFCURVE",
"586 -139 OFFCURVE",
"586 2 CURVE SMOOTH"
);
},
{
closed = 1;
nodes = (
"408 445 OFFCURVE",
"484 367 OFFCURVE",
"484 273 CURVE SMOOTH",
"484 180 OFFCURVE",
"408 102 OFFCURVE",
"313 102 CURVE SMOOTH",
"217 102 OFFCURVE",
"141 180 OFFCURVE",
"141 273 CURVE SMOOTH",
"141 367 OFFCURVE",
"217 445 OFFCURVE",
"313 445 CURVE SMOOTH"
);
}
);
width = 625;
},
{
anchors = (
{
name = bottom;
position = "{338, -210}";
},
{
name = top;
position = "{340, 547}";
}
);
associatedMasterId = "952115DE-4B60-44C8-B7C0-A1F0450151B4";
background = {
paths = (
{
closed = 0;
nodes = (
"590 177 LINE",
"590 7 LINE",
"590 -108 OFFCURVE",
"482 -182 OFFCURVE",
"337 -182 CURVE SMOOTH",
"215 -182 OFFCURVE",
"123 -132 OFFCURVE",
"123 -54 CURVE"
);
}
);
};
guideLines = (
{
angle = 90;
position = "{93, 273}";
}
);
layerId = "95A1D4E7-E637-400B-8202-B9482081C103";
name = "Oct 28 16, 12:49";
paths = (
{
closed = 1;
nodes = (
"619 273 LINE",
"586 273 LINE",
"559 236 LINE",
"559 77 LINE SMOOTH",
"559 -79 OFFCURVE",
"468 -154 OFFCURVE",
"338 -154 CURVE SMOOTH",
"244 -154 OFFCURVE",
"166 -123 OFFCURVE",
"146 -78 CURVE SMOOTH",
"139 -62 OFFCURVE",
"130 -54 OFFCURVE",
"115 -54 CURVE SMOOTH",
"96 -54 OFFCURVE",
"85 -66 OFFCURVE",
"89 -83 CURVE SMOOTH",
"106 -157 OFFCURVE",
"208 -210 OFFCURVE",
"338 -210 CURVE SMOOTH",
"503 -210 OFFCURVE",
"619 -112 OFFCURVE",
"619 77 CURVE SMOOTH"
);
},
{
closed = 1;
nodes = (
"619 273 LINE",
"619 437 OFFCURVE",
"503 553 OFFCURVE",
"340 553 CURVE SMOOTH",
"182 553 OFFCURVE",
"60 437 OFFCURVE",
"60 273 CURVE SMOOTH",
"60 110 OFFCURVE",
"176 -6 OFFCURVE",
"340 -6 CURVE SMOOTH",
"483 -6 OFFCURVE",
"584 93 OFFCURVE",
"584 233 CURVE"
);
},
{
closed = 1;
nodes = (
"468 497 OFFCURVE",
"559 404 OFFCURVE",
"559 273 CURVE SMOOTH",
"559 142 OFFCURVE",
"468 50 OFFCURVE",
"340 50 CURVE SMOOTH",
"211 50 OFFCURVE",
"120 142 OFFCURVE",
"120 273 CURVE SMOOTH",
"120 404 OFFCURVE",
"211 497 OFFCURVE",
"340 497 CURVE SMOOTH"
);
}
);
width = 679;
}
);
leftKerningGroup = o;
leftMetricsKey = o;
rightKerningGroup = g;
rightMetricsKey = o;
unicode = 0067;
},
{
glyphname = idotless;
layers = (
{
anchors = (
{
name = bottom;
position = "{151, 0}";
},
{
name = ogonek;
position = "{151, 10}";
},
{
name = top;
position = "{151, 547}";
}
);
background = {
paths = (
{
closed = 1;
nodes = (
"181 0 OFFCURVE",
"202 21 OFFCURVE",
"202 51 CURVE SMOOTH",
"202 496 LINE SMOOTH",
"202 526 OFFCURVE",
"181 547 OFFCURVE",
"151 547 CURVE SMOOTH",
"121 547 OFFCURVE",
"100 526 OFFCURVE",
"100 496 CURVE SMOOTH",
"100 51 LINE SMOOTH",
"100 21 OFFCURVE",
"121 0 OFFCURVE",
"151 0 CURVE SMOOTH"
);
}
);
};
layerId = UUID0;
paths = (
{
closed = 1;
nodes = (
"100 51 LINE SMOOTH",
"100 21 OFFCURVE",
"121 0 OFFCURVE",
"151 0 CURVE SMOOTH",
"181 0 OFFCURVE",
"202 21 OFFCURVE",
"202 51 CURVE SMOOTH",
"202 496 LINE SMOOTH",
"202 526 OFFCURVE",
"181 547 OFFCURVE",
"151 547 CURVE SMOOTH",
"121 547 OFFCURVE",
"100 526 OFFCURVE",
"100 496 CURVE SMOOTH"
);
}
);
width = 302;
},
{
anchors = (
{
name = bottom;
position = "{140, 0}";
},
{
name = ogonek;
position = "{140, 10}";
},
{
name = top;
position = "{140, 547}";
}
);
layerId = "952115DE-4B60-44C8-B7C0-A1F0450151B4";
paths = (
{
closed = 1;
nodes = (
"110 30 LINE SMOOTH",
"110 12 OFFCURVE",
"122 0 OFFCURVE",
"140 0 CURVE SMOOTH",
"158 0 OFFCURVE",
"170 12 OFFCURVE",
"170 30 CURVE SMOOTH",
"170 517 LINE SMOOTH",
"170 535 OFFCURVE",
"158 547 OFFCURVE",
"140 547 CURVE SMOOTH",
"122 547 OFFCURVE",
"110 535 OFFCURVE",
"110 517 CURVE SMOOTH"
);
}
);
width = 280;
}
);
leftKerningGroup = idotless;
rightKerningGroup = idotless;
unicode = 0131;
},
{
glyphname = idieresis;
layers = (
{
components = (
{
name = idotless;
}
);
layerId = UUID0;
paths = (
{
closed = 1;
nodes = (
"16 781 OFFCURVE",
"-11 753 OFFCURVE",
"-11 721 CURVE SMOOTH",
"-11 687 OFFCURVE",
"16 661 OFFCURVE",
"50 661 CURVE SMOOTH",
"82 661 OFFCURVE",
"110 687 OFFCURVE",
"110 721 CURVE SMOOTH",
"110 753 OFFCURVE",
"82 781 OFFCURVE",
"50 781 CURVE SMOOTH"
);
},
{
closed = 1;
nodes = (
"218 781 OFFCURVE",
"192 753 OFFCURVE",
"192 721 CURVE SMOOTH",
"192 687 OFFCURVE",
"218 661 OFFCURVE",
"252 661 CURVE SMOOTH",
"284 661 OFFCURVE",
"312 687 OFFCURVE",
"312 721 CURVE SMOOTH",
"312 753 OFFCURVE",
"284 781 OFFCURVE",
"252 781 CURVE SMOOTH"
);
}
);
width = 302;
},
{
components = (
{
name = idotless;
}
);
layerId = "952115DE-4B60-44C8-B7C0-A1F0450151B4";
paths = (
{
closed = 1;
nodes = (
"21 780 OFFCURVE",
"-2 757 OFFCURVE",
"-2 729 CURVE SMOOTH",
"-2 700 OFFCURVE",
"21 677 OFFCURVE",
"50 677 CURVE SMOOTH",
"79 677 OFFCURVE",
"101 700 OFFCURVE",
"101 729 CURVE SMOOTH",
"101 757 OFFCURVE",
"79 780 OFFCURVE",
"50 780 CURVE SMOOTH"
);
},
{
closed = 1;
nodes = (
"201 780 OFFCURVE",
"178 757 OFFCURVE",
"178 729 CURVE SMOOTH",
"178 700 OFFCURVE",
"201 677 OFFCURVE",
"230 677 CURVE SMOOTH",
"259 677 OFFCURVE",
"281 700 OFFCURVE",
"281 729 CURVE SMOOTH",
"281 757 OFFCURVE",
"259 780 OFFCURVE",
"230 780 CURVE SMOOTH"
);
}
);
width = 280;
}
);
leftKerningGroup = idotless;
rightKerningGroup = idotless;
unicode = 00EF;
},
{
glyphname = jdotless;
layers = (
{
anchors = (
{
name = bottom;
position = "{143, -234}";
},
{
name = top;
position = "{143, 547}";
}
);
layerId = "952115DE-4B60-44C8-B7C0-A1F0450151B4";
paths = (
{
closed = 1;
nodes = (
"174 517 LINE SMOOTH",
"174 535 OFFCURVE",
"161 547 OFFCURVE",
"143 547 CURVE SMOOTH",
"125 547 OFFCURVE",
"113 535 OFFCURVE",
"113 517 CURVE SMOOTH",
"113 -1 LINE SMOOTH",
"113 -102 OFFCURVE",
"42 -173 OFFCURVE",
"-59 -173 CURVE SMOOTH",
"-77 -173 OFFCURVE",
"-90 -186 OFFCURVE",
"-90 -204 CURVE SMOOTH",
"-90 -222 OFFCURVE",
"-77 -234 OFFCURVE",
"-59 -234 CURVE SMOOTH",
"77 -234 OFFCURVE",
"174 -137 OFFCURVE",
"174 -1 CURVE SMOOTH"
);
}
);
width = 284;
},
{
anchors = (
{
name = bottom;
position = "{142, -234}";
},
{
name = top;
position = "{136, 547}";
}
);
layerId = UUID0;
paths = (
{
closed = 1;
nodes = (
"187 496 LINE SMOOTH",
"187 526 OFFCURVE",
"166 547 OFFCURVE",
"136 547 CURVE SMOOTH",
"106 547 OFFCURVE",
"85 526 OFFCURVE",
"85 496 CURVE SMOOTH",
"85 2 LINE SMOOTH",
"85 -76 OFFCURVE",
"29 -132 OFFCURVE",
"-50 -132 CURVE SMOOTH",
"-79 -132 OFFCURVE",
"-100 -153 OFFCURVE",
"-100 -183 CURVE SMOOTH",
"-100 -213 OFFCURVE",
"-79 -234 OFFCURVE",
"-50 -234 CURVE SMOOTH",
"89 -234 OFFCURVE",
"187 -136 OFFCURVE",
"187 2 CURVE SMOOTH"
);
}
);
width = 287;
}
);
leftKerningGroup = jdotless;
rightKerningGroup = jdotless;
rightMetricsKey = idotless;
unicode = 0237;
},
{
glyphname = k;
layers = (
{
anchors = (
{
name = bottom;
position = "{275, 0}";
},
{
name = top;
position = "{139, 781}";
}
);
background = {
paths = (
{
closed = 1;
nodes = (
"497 504 LINE SMOOTH",
"510 515 OFFCURVE",
"510 529 OFFCURVE",
"498 542 CURVE SMOOTH",
"486 555 OFFCURVE",
"473 555 OFFCURVE",
"460 544 CURVE SMOOTH",
"94 211 LINE",
"130 171 LINE"
);
},
{
closed = 1;
nodes = (
"517 12 OFFCURVE",
"518 25 OFFCURVE",
"507 39 CURVE SMOOTH",
"266 334 LINE",
"223 299 LINE",
"464 4 LINE SMOOTH",
"475 -10 OFFCURVE",
"489 -12 OFFCURVE",
"503 0 CURVE SMOOTH"
);
},
{
closed = 1;
nodes = (
"138 0 OFFCURVE",
"150 12 OFFCURVE",
"150 30 CURVE SMOOTH",
"150 751 LINE SMOOTH",
"150 769 OFFCURVE",
"138 781 OFFCURVE",
"120 781 CURVE SMOOTH",
"102 781 OFFCURVE",
"90 769 OFFCURVE",
"90 751 CURVE SMOOTH",
"90 30 LINE SMOOTH",
"90 12 OFFCURVE",
"102 0 OFFCURVE",
"120 0 CURVE SMOOTH"
);
}
);
};
layerId = UUID0;
paths = (
{
closed = 1;
nodes = (
"90 49 LINE SMOOTH",
"90 20 OFFCURVE",
"110 0 OFFCURVE",
"139 0 CURVE SMOOTH",
"168 0 OFFCURVE",
"188 20 OFFCURVE",
"188 49 CURVE SMOOTH",
"188 732 LINE SMOOTH",
"188 761 OFFCURVE",
"168 781 OFFCURVE",
"139 781 CURVE SMOOTH",
"110 781 OFFCURVE",
"90 761 OFFCURVE",
"90 732 CURVE SMOOTH"
);
},
{
closed = 1;
nodes = (
"124 268 LINE",
"186 200 LINE",
"493 474 LINE SMOOTH",
"513 492 OFFCURVE",
"514 519 OFFCURVE",
"496 539 CURVE SMOOTH",
"478 559 OFFCURVE",
"451 560 OFFCURVE",
"431 542 CURVE SMOOTH"
);
},
{
closed = 1;
nodes = (
"295 328 LINE",
"225 262 LINE",
"428 11 LINE SMOOTH",
"445 -10 OFFCURVE",
"474 -13 OFFCURVE",
"496 5 CURVE SMOOTH",
"518 23 OFFCURVE",
"520 51 OFFCURVE",
"503 72 CURVE SMOOTH"
);
}
);
width = 569;
},
{
anchors = (
{
name = bottom;
position = "{287, 0}";
},
{
name = top;
position = "{120, 781}";
}
);
background = {
paths = (
{
closed = 1;
nodes = (
"138 0 OFFCURVE",
"150 12 OFFCURVE",
"150 30 CURVE SMOOTH",
"150 751 LINE SMOOTH",
"150 769 OFFCURVE",
"138 781 OFFCURVE",
"120 781 CURVE SMOOTH",
"102 781 OFFCURVE",
"90 769 OFFCURVE",
"90 751 CURVE SMOOTH",
"90 30 LINE SMOOTH",
"90 12 OFFCURVE",
"102 0 OFFCURVE",
"120 0 CURVE SMOOTH"
);
},
{
closed = 0;
nodes = (
"112 173 LINE",
"524 547 LINE"
);
},
{
closed = 0;
nodes = (
"274 317 LINE",
"533 0 LINE"
);
}
);
};
layerId = "952115DE-4B60-44C8-B7C0-A1F0450151B4";
paths = (
{
closed = 1;
nodes = (
"90 30 LINE SMOOTH",
"90 12 OFFCURVE",
"102 0 OFFCURVE",
"120 0 CURVE SMOOTH",
"138 0 OFFCURVE",
"150 12 OFFCURVE",
"150 30 CURVE SMOOTH",
"150 751 LINE SMOOTH",
"150 769 OFFCURVE",
"138 781 OFFCURVE",
"120 781 CURVE SMOOTH",
"102 781 OFFCURVE",
"90 769 OFFCURVE",
"90 751 CURVE SMOOTH"
);
},
{
closed = 1;
nodes = (
"94 211 LINE",
"130 171 LINE",
"497 504 LINE SMOOTH",
"510 515 OFFCURVE",
"510 529 OFFCURVE",
"498 542 CURVE SMOOTH",
"486 555 OFFCURVE",
"473 555 OFFCURVE",
"460 544 CURVE SMOOTH"
);
},
{
closed = 1;
nodes = (
"266 334 LINE",
"223 299 LINE",
"460 9 LINE SMOOTH",
"471 -5 OFFCURVE",
"485 -7 OFFCURVE",
"499 5 CURVE SMOOTH",
"513 17 OFFCURVE",
"514 30 OFFCURVE",
"503 44 CURVE SMOOTH"
);
}
);
width = 574;
}
);
leftKerningGroup = h;
leftMetricsKey = n;
rightKerningGroup = k;
unicode = 006B;
},
{
glyphname = kgreenlandic;
layers = (
{
layerId = UUID0;
paths = (
{
closed = 1;
nodes = (
"90 49 LINE SMOOTH",
"90 20 OFFCURVE",
"110 0 OFFCURVE",
"139 0 CURVE SMOOTH",
"168 0 OFFCURVE",
"188 20 OFFCURVE",
"188 49 CURVE SMOOTH",
"188 498 LINE SMOOTH",
"188 527 OFFCURVE",
"168 547 OFFCURVE",
"139 547 CURVE SMOOTH",
"110 547 OFFCURVE",
"90 527 OFFCURVE",
"90 498 CURVE SMOOTH"
);
},
{
closed = 1;
nodes = (
"124 268 LINE",
"186 200 LINE",
"493 474 LINE SMOOTH",
"513 492 OFFCURVE",
"514 519 OFFCURVE",
"496 539 CURVE SMOOTH",
"478 559 OFFCURVE",
"451 560 OFFCURVE",
"431 542 CURVE SMOOTH"
);
},
{
closed = 1;
nodes = (
"295 328 LINE",
"225 262 LINE",
"428 11 LINE SMOOTH",
"445 -10 OFFCURVE",
"474 -13 OFFCURVE",
"496 5 CURVE SMOOTH",
"518 23 OFFCURVE",
"520 51 OFFCURVE",
"503 72 CURVE SMOOTH"
);
}
);
width = 569;
},
{
layerId = "952115DE-4B60-44C8-B7C0-A1F0450151B4";
paths = (
{
closed = 1;
nodes = (
"90 30 LINE SMOOTH",
"90 12 OFFCURVE",
"102 0 OFFCURVE",
"120 0 CURVE SMOOTH",
"138 0 OFFCURVE",
"150 12 OFFCURVE",
"150 30 CURVE SMOOTH",
"150 517 LINE SMOOTH",
"150 535 OFFCURVE",
"138 547 OFFCURVE",
"120 547 CURVE SMOOTH",
"102 547 OFFCURVE",
"90 535 OFFCURVE",
"90 517 CURVE SMOOTH"
);
},
{
closed = 1;
nodes = (
"94 211 LINE",
"130 171 LINE",
"497 504 LINE SMOOTH",
"510 515 OFFCURVE",
"510 529 OFFCURVE",
"498 542 CURVE SMOOTH",
"486 555 OFFCURVE",
"473 555 OFFCURVE",
"460 544 CURVE SMOOTH"
);
},
{
closed = 1;
nodes = (
"266 334 LINE",
"223 299 LINE",
"460 9 LINE SMOOTH",
"471 -5 OFFCURVE",
"485 -7 OFFCURVE",
"499 5 CURVE SMOOTH",
"513 17 OFFCURVE",
"514 30 OFFCURVE",
"503 44 CURVE SMOOTH"
);
}
);
width = 574;
}
);
leftKerningGroup = n;
rightKerningGroup = k;
unicode = 0138;
},
{
glyphname = l;
layers = (
{
anchors = (
{
name = bottom;
position = "{222, 0}";
},
{
name = center;
position = "{150, 274}";
},
{
name = top;
position = "{120, 781}";
},
{
name = topright;
position = "{280, 781}";
}
);
background = {
paths = (
{
closed = 0;
nodes = (
"120 781 LINE",
"120 188 LINE SMOOTH",
"120 109 OFFCURVE",
"161 53 OFFCURVE",
"220 53 CURVE SMOOTH",
"270 53 LINE"
);
}
);
};
layerId = UUID0;
paths = (
{
closed = 1;
nodes = (
"70 185 LINE SMOOTH",
"70 77 OFFCURVE",
"132 0 OFFCURVE",
"220 0 CURVE SMOOTH",
"222 0 LINE SMOOTH",
"262 0 OFFCURVE",
"290 21 OFFCURVE",
"290 50 CURVE SMOOTH",
"290 79 OFFCURVE",
"271 100 OFFCURVE",
"245 100 CURVE SMOOTH",
"220 100 LINE SMOOTH",
"191 100 OFFCURVE",
"170 135 OFFCURVE",
"170 185 CURVE SMOOTH",
"170 731 LINE SMOOTH",
"170 760 OFFCURVE",
"149 781 OFFCURVE",
"120 781 CURVE SMOOTH",
"91 781 OFFCURVE",
"70 760 OFFCURVE",
"70 731 CURVE SMOOTH"
);
}
);
width = 300;
},
{
anchors = (
{
name = bottom;
position = "{200, 0}";
},
{
name = center;
position = "{105, 274}";
},
{
name = top;
position = "{100, 781}";
},
{
name = topright;
position = "{210, 781}";
}
);
background = {
paths = (
{
closed = 0;
nodes = (
"70 781 LINE",
"70 113 LINE",
"70 63 OFFCURVE",
"107 28 OFFCURVE",
"160 28 CURVE"
);
}
);
};
layerId = "952115DE-4B60-44C8-B7C0-A1F0450151B4";
paths = (
{
closed = 1;
nodes = (
"70 165 LINE SMOOTH",
"70 68 OFFCURVE",
"124 0 OFFCURVE",
"200 0 CURVE SMOOTH",
"220 0 LINE SMOOTH",
"238 0 OFFCURVE",
"250 12 OFFCURVE",
"250 30 CURVE SMOOTH",
"250 48 OFFCURVE",
"240 60 OFFCURVE",
"225 60 CURVE SMOOTH",
"200 60 LINE SMOOTH",
"159 60 OFFCURVE",
"130 103 OFFCURVE",
"130 165 CURVE SMOOTH",
"130 751 LINE SMOOTH",
"130 769 OFFCURVE",
"118 781 OFFCURVE",
"100 781 CURVE SMOOTH",
"82 781 OFFCURVE",
"70 769 OFFCURVE",
"70 751 CURVE SMOOTH"
);
}
);
width = 270;
}
);
leftKerningGroup = h;
leftMetricsKey = "=n-20";
rightKerningGroup = l;
unicode = 006C;
},
{
glyphname = lacute;
layers = (
{
background = {
paths = (
{
closed = 1;
nodes = (
"250 0 LINE SMOOTH",
"268 0 OFFCURVE",
"280 12 OFFCURVE",
"280 30 CURVE SMOOTH",
"280 48 OFFCURVE",
"270 60 OFFCURVE",
"255 60 CURVE SMOOTH",
"230 60 LINE SMOOTH",
"189 60 OFFCURVE",
"160 103 OFFCURVE",
"160 165 CURVE SMOOTH",
"160 651 LINE SMOOTH",
"160 669 OFFCURVE",
"148 681 OFFCURVE",
"130 681 CURVE SMOOTH",
"112 681 OFFCURVE",
"100 669 OFFCURVE",
"100 651 CURVE SMOOTH",
"100 165 LINE SMOOTH",
"100 68 OFFCURVE",
"154 0 OFFCURVE",
"230 0 CURVE SMOOTH"
);
},
{
closed = 1;
nodes = (
"123 762 OFFCURVE",
"130 765 OFFCURVE",
"135 770 CURVE SMOOTH",
"258 893 LINE SMOOTH",
"264 899 OFFCURVE",
"267 907 OFFCURVE",
"267 914 CURVE SMOOTH",
"267 932 OFFCURVE",
"253 945 OFFCURVE",
"236 945 CURVE SMOOTH",
"228 945 OFFCURVE",
"220 942 OFFCURVE",
"214 936 CURVE SMOOTH",
"91 813 LINE",
"87 808 OFFCURVE",
"84 801 OFFCURVE",
"84 793 CURVE SMOOTH",
"84 776 OFFCURVE",
"98 762 OFFCURVE",
"115 762 CURVE SMOOTH"
);
}
);
};
layerId = UUID0;
paths = (
{
closed = 1;
nodes = (
"70 185 LINE SMOOTH",
"70 77 OFFCURVE",
"132 0 OFFCURVE",
"220 0 CURVE SMOOTH",
"222 0 LINE SMOOTH",
"262 0 OFFCURVE",
"290 21 OFFCURVE",
"290 50 CURVE SMOOTH",
"290 79 OFFCURVE",
"271 100 OFFCURVE",
"245 100 CURVE SMOOTH",
"220 100 LINE SMOOTH",
"191 100 OFFCURVE",
"170 135 OFFCURVE",
"170 185 CURVE SMOOTH",
"170 631 LINE SMOOTH",
"170 660 OFFCURVE",
"149 681 OFFCURVE",
"120 681 CURVE SMOOTH",
"91 681 OFFCURVE",
"70 660 OFFCURVE",
"70 631 CURVE SMOOTH"
);
},
{
closed = 1;
nodes = (
"85 832 LINE",
"77 823 OFFCURVE",
"73 812 OFFCURVE",
"73 798 CURVE SMOOTH",
"73 768 OFFCURVE",
"94 747 OFFCURVE",
"124 747 CURVE SMOOTH",
"138 747 OFFCURVE",
"149 751 OFFCURVE",
"159 761 CURVE SMOOTH",
"256 858 LINE SMOOTH",
"266 868 OFFCURVE",
"270 879 OFFCURVE",
"270 893 CURVE SMOOTH",
"270 922 OFFCURVE",
"249 945 OFFCURVE",
"219 945 CURVE SMOOTH",
"206 945 OFFCURVE",
"193 940 OFFCURVE",
"183 930 CURVE SMOOTH"
);
}
);
width = 300;
},
{
layerId = "952115DE-4B60-44C8-B7C0-A1F0450151B4";
paths = (
{
closed = 1;
nodes = (
"70 165 LINE SMOOTH",
"70 68 OFFCURVE",
"124 0 OFFCURVE",
"200 0 CURVE SMOOTH",
"220 0 LINE SMOOTH",
"238 0 OFFCURVE",
"250 12 OFFCURVE",
"250 30 CURVE SMOOTH",
"250 48 OFFCURVE",
"240 60 OFFCURVE",
"225 60 CURVE SMOOTH",
"200 60 LINE SMOOTH",
"159 60 OFFCURVE",
"130 103 OFFCURVE",
"130 165 CURVE SMOOTH",
"130 651 LINE SMOOTH",
"130 669 OFFCURVE",
"118 681 OFFCURVE",
"100 681 CURVE SMOOTH",
"82 681 OFFCURVE",
"70 669 OFFCURVE",
"70 651 CURVE SMOOTH"
);
},
{
closed = 1;
nodes = (
"61 813 LINE",
"57 808 OFFCURVE",
"54 801 OFFCURVE",
"54 793 CURVE SMOOTH",
"54 776 OFFCURVE",
"68 762 OFFCURVE",
"85 762 CURVE SMOOTH",
"93 762 OFFCURVE",
"100 765 OFFCURVE",
"105 770 CURVE SMOOTH",
"228 893 LINE SMOOTH",
"234 899 OFFCURVE",
"237 907 OFFCURVE",
"237 914 CURVE SMOOTH",
"237 932 OFFCURVE",
"223 945 OFFCURVE",
"206 945 CURVE SMOOTH",
"198 945 OFFCURVE",
"190 942 OFFCURVE",
"184 936 CURVE SMOOTH"
);
}
);
width = 270;
}
);
leftKerningGroup = h;
rightKerningGroup = l;
unicode = 013A;
},
{
glyphname = lslash;
layers = (
{
layerId = UUID0;
paths = (
{
closed = 1;
nodes = (
"211 102 LINE",
"211 365 LINE",
"308 460 LINE SMOOTH",
"317 470 OFFCURVE",
"322 482 OFFCURVE",
"322 496 CURVE SMOOTH",
"322 524 OFFCURVE",
"299 547 OFFCURVE",
"271 547 CURVE SMOOTH",
"257 547 OFFCURVE",
"246 542 OFFCURVE",
"235 532 CURVE SMOOTH",
"211 508 LINE",
"211 718 LINE SMOOTH",
"211 747 OFFCURVE",
"188 770 OFFCURVE",
"160 770 CURVE SMOOTH",
"131 770 OFFCURVE",
"109 747 OFFCURVE",
"109 718 CURVE SMOOTH",
"109 407 LINE",
"24 323 LINE SMOOTH",
"15 313 OFFCURVE",
"10 301 OFFCURVE",
"10 287 CURVE SMOOTH",
"10 258 OFFCURVE",
"34 236 OFFCURVE",
"61 236 CURVE SMOOTH",
"75 236 OFFCURVE",
"86 240 OFFCURVE",
"97 251 CURVE SMOOTH",
"109 264 LINE",
"109 51 LINE SMOOTH",
"109 23 OFFCURVE",
"131 0 OFFCURVE",
"160 0 CURVE SMOOTH",
"234 0 LINE SMOOTH",
"263 0 OFFCURVE",
"285 23 OFFCURVE",
"285 51 CURVE SMOOTH",
"285 80 OFFCURVE",
"264 102 OFFCURVE",
"234 102 CURVE SMOOTH"
);
}
);
width = 352;
},
{
layerId = "952115DE-4B60-44C8-B7C0-A1F0450151B4";
paths = (
{
closed = 1;
nodes = (
"184 61 LINE",
"184 383 LINE",
"296 495 LINE SMOOTH",
"302 501 OFFCURVE",
"305 509 OFFCURVE",
"305 517 CURVE SMOOTH",
"305 533 OFFCURVE",
"291 547 OFFCURVE",
"275 547 CURVE SMOOTH",
"266 547 OFFCURVE",
"259 544 OFFCURVE",
"253 538 CURVE",
"184 469 LINE",
"184 760 LINE SMOOTH",
"184 777 OFFCURVE",
"170 790 OFFCURVE",
"153 790 CURVE SMOOTH",
"136 790 OFFCURVE",
"123 777 OFFCURVE",
"123 760 CURVE SMOOTH",
"123 409 LINE",
"22 310 LINE SMOOTH",
"17 305 OFFCURVE",
"14 296 OFFCURVE",
"14 289 CURVE SMOOTH",
"14 269 OFFCURVE",
"30 258 OFFCURVE",
"46 258 CURVE SMOOTH",
"53 258 OFFCURVE",
"59 261 OFFCURVE",
"65 267 CURVE SMOOTH",
"123 324 LINE",
"123 30 LINE SMOOTH",
"123 13 OFFCURVE",
"136 0 OFFCURVE",
"153 0 CURVE SMOOTH",
"234 0 LINE SMOOTH",
"251 0 OFFCURVE",
"265 13 OFFCURVE",
"265 30 CURVE SMOOTH",
"265 47 OFFCURVE",
"251 61 OFFCURVE",
"234 61 CURVE SMOOTH"
);
}
);
width = 352;
}
);
leftKerningGroup = hbar;
rightKerningGroup = l;
unicode = 0142;
},
{
glyphname = m;
layers = (
{
anchors = (
{
name = bottom;
position = "{469, 0}";
},
{
name = top;
position = "{469, 547}";
}
);
background = {
paths = (
{
closed = 1;
nodes = (
"838 -1 OFFCURVE",
"859 20 OFFCURVE",
"859 50 CURVE SMOOTH",
"859 336 LINE SMOOTH",
"859 474 OFFCURVE",
"779 552 OFFCURVE",
"665 552 CURVE SMOOTH",
"546 552 OFFCURVE",
"462 461 OFFCURVE",
"462 332 CURVE",
"525 332 LINE",
"525 407 OFFCURVE",
"575 460 OFFCURVE",
"645 460 CURVE SMOOTH",
"711 460 OFFCURVE",
"757 420 OFFCURVE",
"757 336 CURVE SMOOTH",
"757 50 LINE SMOOTH",
"757 20 OFFCURVE",
"778 -1 OFFCURVE",
"808 -1 CURVE SMOOTH"
);
}
);
};
layerId = UUID0;
paths = (
{
closed = 1;
nodes = (
"838 -1 OFFCURVE",
"859 20 OFFCURVE",
"859 50 CURVE SMOOTH",
"859 336 LINE SMOOTH",
"859 474 OFFCURVE",
"779 552 OFFCURVE",
"665 552 CURVE SMOOTH",
"534 552 OFFCURVE",
"443 461 OFFCURVE",
"443 332 CURVE",
"526 332 LINE",
"526 407 OFFCURVE",
"575 460 OFFCURVE",
"645 460 CURVE SMOOTH",
"711 460 OFFCURVE",
"757 420 OFFCURVE",
"757 336 CURVE SMOOTH",
"757 50 LINE SMOOTH",
"757 20 OFFCURVE",
"778 -1 OFFCURVE",
"808 -1 CURVE SMOOTH"
);
},
{
closed = 1;
nodes = (
"171 -1 OFFCURVE",
"192 20 OFFCURVE",
"192 50 CURVE SMOOTH",
"192 495 LINE SMOOTH",
"192 525 OFFCURVE",
"171 546 OFFCURVE",
"141 546 CURVE SMOOTH",
"111 546 OFFCURVE",
"90 525 OFFCURVE",
"90 495 CURVE SMOOTH",
"90 50 LINE SMOOTH",
"90 20 OFFCURVE",
"111 -1 OFFCURVE",
"141 -1 CURVE SMOOTH"
);
},
{
closed = 1;
nodes = (
"505 -1 OFFCURVE",
"526 20 OFFCURVE",
"526 50 CURVE SMOOTH",
"526 336 LINE SMOOTH",
"526 474 OFFCURVE",
"446 552 OFFCURVE",
"332 552 CURVE SMOOTH",
"213 552 OFFCURVE",
"129 461 OFFCURVE",
"129 332 CURVE",
"192 332 LINE",
"192 407 OFFCURVE",
"242 460 OFFCURVE",
"312 460 CURVE SMOOTH",
"378 460 OFFCURVE",
"424 420 OFFCURVE",
"424 336 CURVE SMOOTH",
"424 50 LINE SMOOTH",
"424 20 OFFCURVE",
"445 -1 OFFCURVE",
"475 -1 CURVE SMOOTH"
);
}
);
width = 938;
},
{
anchors = (
{
name = bottom;
position = "{477, 0}";
},
{
name = top;
position = "{477, 547}";
}
);
background = {
paths = (
{
closed = 1;
nodes = (
"465 0 OFFCURVE",
"453 12 OFFCURVE",
"453 30 CURVE SMOOTH",
"453 319 LINE SMOOTH",
"453 422 OFFCURVE",
"393 494 OFFCURVE",
"307 494 CURVE SMOOTH",
"215 494 OFFCURVE",
"150 429 OFFCURVE",
"150 336 CURVE",
"110 338 LINE",
"116 465 OFFCURVE",
"198 554 OFFCURVE",
"307 554 CURVE SMOOTH",
"428 554 OFFCURVE",
"513 457 OFFCURVE",
"513 319 CURVE SMOOTH",
"513 30 LINE SMOOTH",
"513 12 OFFCURVE",
"501 0 OFFCURVE",
"483 0 CURVE SMOOTH"
);
},
{
closed = 1;
nodes = (
"102 0 OFFCURVE",
"90 12 OFFCURVE",
"90 30 CURVE SMOOTH",
"90 517 LINE SMOOTH",
"90 535 OFFCURVE",
"102 547 OFFCURVE",
"120 547 CURVE SMOOTH",
"138 547 OFFCURVE",
"150 535 OFFCURVE",
"150 517 CURVE SMOOTH",
"150 30 LINE SMOOTH",
"150 12 OFFCURVE",
"138 0 OFFCURVE",
"120 0 CURVE SMOOTH"
);
},
{
closed = 1;
nodes = (
"825 0 OFFCURVE",
"813 12 OFFCURVE",
"813 30 CURVE SMOOTH",
"813 319 LINE SMOOTH",
"813 422 OFFCURVE",
"753 494 OFFCURVE",
"667 494 CURVE SMOOTH",
"575 494 OFFCURVE",
"510 429 OFFCURVE",
"513 326 CURVE",
"473 326 LINE",
"476 463 OFFCURVE",
"558 554 OFFCURVE",
"667 554 CURVE SMOOTH",
"788 554 OFFCURVE",
"873 457 OFFCURVE",
"873 319 CURVE SMOOTH",
"873 30 LINE SMOOTH",
"873 12 OFFCURVE",
"861 0 OFFCURVE",
"843 0 CURVE SMOOTH"
);
}
);
};
layerId = "952115DE-4B60-44C8-B7C0-A1F0450151B4";
paths = (
{
closed = 1;
nodes = (
"861 0 OFFCURVE",
"873 12 OFFCURVE",
"873 30 CURVE SMOOTH",
"873 319 LINE SMOOTH",
"873 457 OFFCURVE",
"788 554 OFFCURVE",
"667 554 CURVE SMOOTH",
"547 554 OFFCURVE",
"456 463 OFFCURVE",
"453 326 CURVE",
"513 326 LINE",
"510 429 OFFCURVE",
"575 494 OFFCURVE",
"667 494 CURVE SMOOTH",
"753 494 OFFCURVE",
"813 422 OFFCURVE",
"813 319 CURVE SMOOTH",
"813 30 LINE SMOOTH",
"813 12 OFFCURVE",
"825 0 OFFCURVE",
"843 0 CURVE SMOOTH"
);
},
{
closed = 1;
nodes = (
"138 0 OFFCURVE",
"150 12 OFFCURVE",
"150 30 CURVE SMOOTH",
"150 517 LINE SMOOTH",
"150 535 OFFCURVE",
"138 547 OFFCURVE",
"120 547 CURVE SMOOTH",
"102 547 OFFCURVE",
"90 535 OFFCURVE",
"90 517 CURVE SMOOTH",
"90 30 LINE SMOOTH",
"90 12 OFFCURVE",
"102 0 OFFCURVE",
"120 0 CURVE SMOOTH"
);
},
{
closed = 1;
nodes = (
"501 0 OFFCURVE",
"513 12 OFFCURVE",
"513 30 CURVE SMOOTH",
"513 319 LINE SMOOTH",
"513 457 OFFCURVE",
"428 554 OFFCURVE",
"307 554 CURVE SMOOTH",
"192 554 OFFCURVE",
"106 463 OFFCURVE",
"100 336 CURVE",
"150 336 LINE",
"150 429 OFFCURVE",
"215 494 OFFCURVE",
"307 494 CURVE SMOOTH",
"393 494 OFFCURVE",
"453 422 OFFCURVE",
"453 319 CURVE SMOOTH",
"453 30 LINE SMOOTH",
"453 12 OFFCURVE",
"465 0 OFFCURVE",
"483 0 CURVE SMOOTH"
);
}
);
width = 953;
},
{
anchors = (
{
name = bottom;
position = "{477, 0}";
},
{
name = top;
position = "{477, 547}";
}
);
associatedMasterId = "952115DE-4B60-44C8-B7C0-A1F0450151B4";
background = {
paths = (
{
closed = 1;
nodes = (
"465 0 OFFCURVE",
"453 12 OFFCURVE",
"453 30 CURVE SMOOTH",
"453 319 LINE SMOOTH",
"453 422 OFFCURVE",
"393 494 OFFCURVE",
"307 494 CURVE SMOOTH",
"215 494 OFFCURVE",
"150 429 OFFCURVE",
"150 336 CURVE",
"110 338 LINE",
"116 465 OFFCURVE",
"198 554 OFFCURVE",
"307 554 CURVE SMOOTH",
"428 554 OFFCURVE",
"513 457 OFFCURVE",
"513 319 CURVE SMOOTH",
"513 30 LINE SMOOTH",
"513 12 OFFCURVE",
"501 0 OFFCURVE",
"483 0 CURVE SMOOTH"
);
},
{
closed = 1;
nodes = (
"102 0 OFFCURVE",
"90 12 OFFCURVE",
"90 30 CURVE SMOOTH",
"90 517 LINE SMOOTH",
"90 535 OFFCURVE",
"102 547 OFFCURVE",
"120 547 CURVE SMOOTH",
"138 547 OFFCURVE",
"150 535 OFFCURVE",
"150 517 CURVE SMOOTH",
"150 30 LINE SMOOTH",
"150 12 OFFCURVE",
"138 0 OFFCURVE",
"120 0 CURVE SMOOTH"
);
},
{
closed = 1;
nodes = (
"825 0 OFFCURVE",
"813 12 OFFCURVE",
"813 30 CURVE SMOOTH",
"813 319 LINE SMOOTH",
"813 422 OFFCURVE",
"753 494 OFFCURVE",
"667 494 CURVE SMOOTH",
"575 494 OFFCURVE",
"510 429 OFFCURVE",
"513 326 CURVE",
"473 326 LINE",
"476 463 OFFCURVE",
"558 554 OFFCURVE",
"667 554 CURVE SMOOTH",
"788 554 OFFCURVE",
"873 457 OFFCURVE",
"873 319 CURVE SMOOTH",
"873 30 LINE SMOOTH",
"873 12 OFFCURVE",
"861 0 OFFCURVE",
"843 0 CURVE SMOOTH"
);
}
);
};
layerId = "5620E74B-8942-4577-9A96-5004800399CC";
name = old;
paths = (
{
closed = 1;
nodes = (
"150 336 LINE",
"150 429 OFFCURVE",
"215 494 OFFCURVE",
"307 494 CURVE SMOOTH",
"393 494 OFFCURVE",
"453 422 OFFCURVE",
"453 319 CURVE SMOOTH",
"453 30 LINE SMOOTH",
"453 12 OFFCURVE",
"465 0 OFFCURVE",
"483 0 CURVE SMOOTH",
"501 0 OFFCURVE",
"513 12 OFFCURVE",
"513 30 CURVE SMOOTH",
"513 319 LINE SMOOTH",
"513 457 OFFCURVE",
"428 554 OFFCURVE",
"307 554 CURVE SMOOTH",
"198 554 OFFCURVE",
"116 465 OFFCURVE",
"110 338 CURVE"
);
},
{
closed = 1;
nodes = (
"513 326 LINE",
"510 429 OFFCURVE",
"575 494 OFFCURVE",
"667 494 CURVE SMOOTH",
"753 494 OFFCURVE",
"813 422 OFFCURVE",
"813 319 CURVE SMOOTH",
"813 30 LINE SMOOTH",
"813 12 OFFCURVE",
"825 0 OFFCURVE",
"843 0 CURVE SMOOTH",
"861 0 OFFCURVE",
"873 12 OFFCURVE",
"873 30 CURVE SMOOTH",
"873 319 LINE SMOOTH",
"873 457 OFFCURVE",
"788 554 OFFCURVE",
"667 554 CURVE SMOOTH",
"558 554 OFFCURVE",
"476 463 OFFCURVE",
"473 326 CURVE"
);
},
{
closed = 1;
nodes = (
"90 30 LINE SMOOTH",
"90 12 OFFCURVE",
"102 0 OFFCURVE",
"120 0 CURVE SMOOTH",
"138 0 OFFCURVE",
"150 12 OFFCURVE",
"150 30 CURVE SMOOTH",
"150 517 LINE SMOOTH",
"150 535 OFFCURVE",
"138 547 OFFCURVE",
"120 547 CURVE SMOOTH",
"102 547 OFFCURVE",
"90 535 OFFCURVE",
"90 517 CURVE SMOOTH"
);
}
);
width = 953;
},
{
anchors = (
{
name = bottom;
position = "{469, 0}";
},
{
name = top;
position = "{469, 547}";
}
);
associatedMasterId = UUID0;
background = {
paths = (
{
closed = 1;
nodes = (
"505 -1 OFFCURVE",
"526 20 OFFCURVE",
"526 50 CURVE SMOOTH",
"526 336 LINE SMOOTH",
"526 474 OFFCURVE",
"446 552 OFFCURVE",
"332 552 CURVE SMOOTH",
"225 552 OFFCURVE",
"149 461 OFFCURVE",
"149 332 CURVE",
"192 332 LINE",
"192 407 OFFCURVE",
"242 460 OFFCURVE",
"312 460 CURVE SMOOTH",
"378 460 OFFCURVE",
"424 420 OFFCURVE",
"424 336 CURVE SMOOTH",
"424 50 LINE SMOOTH",
"424 20 OFFCURVE",
"445 -1 OFFCURVE",
"475 -1 CURVE SMOOTH"
);
},
{
closed = 1;
nodes = (
"171 -1 OFFCURVE",
"192 20 OFFCURVE",
"192 50 CURVE SMOOTH",
"192 495 LINE SMOOTH",
"192 525 OFFCURVE",
"171 546 OFFCURVE",
"141 546 CURVE SMOOTH",
"111 546 OFFCURVE",
"90 525 OFFCURVE",
"90 495 CURVE SMOOTH",
"90 50 LINE SMOOTH",
"90 20 OFFCURVE",
"111 -1 OFFCURVE",
"141 -1 CURVE SMOOTH"
);
},
{
closed = 1;
nodes = (
"838 -1 OFFCURVE",
"859 20 OFFCURVE",
"859 50 CURVE SMOOTH",
"859 336 LINE SMOOTH",
"859 474 OFFCURVE",
"779 552 OFFCURVE",
"665 552 CURVE SMOOTH",
"558 552 OFFCURVE",
"483 461 OFFCURVE",
"483 332 CURVE",
"526 332 LINE",
"526 407 OFFCURVE",
"575 460 OFFCURVE",
"645 460 CURVE SMOOTH",
"711 460 OFFCURVE",
"757 420 OFFCURVE",
"757 336 CURVE SMOOTH",
"757 50 LINE SMOOTH",
"757 20 OFFCURVE",
"778 -1 OFFCURVE",
"808 -1 CURVE SMOOTH"
);
}
);
};
layerId = "E6D53B41-070E-4BC6-997D-5D534F25AD20";
name = old;
paths = (
{
closed = 1;
nodes = (
"424 50 LINE SMOOTH",
"424 20 OFFCURVE",
"445 -1 OFFCURVE",
"475 -1 CURVE SMOOTH",
"505 -1 OFFCURVE",
"526 20 OFFCURVE",
"526 50 CURVE SMOOTH",
"526 336 LINE SMOOTH",
"526 474 OFFCURVE",
"446 552 OFFCURVE",
"332 552 CURVE SMOOTH",
"225 552 OFFCURVE",
"149 461 OFFCURVE",
"149 332 CURVE",
"192 332 LINE",
"192 407 OFFCURVE",
"242 460 OFFCURVE",
"312 460 CURVE SMOOTH",
"378 460 OFFCURVE",
"424 420 OFFCURVE",
"424 336 CURVE SMOOTH"
);
},
{
closed = 1;
nodes = (
"757 50 LINE SMOOTH",
"757 20 OFFCURVE",
"778 -1 OFFCURVE",
"808 -1 CURVE SMOOTH",
"838 -1 OFFCURVE",
"859 20 OFFCURVE",
"859 50 CURVE SMOOTH",
"859 336 LINE SMOOTH",
"859 474 OFFCURVE",
"779 552 OFFCURVE",
"665 552 CURVE SMOOTH",
"558 552 OFFCURVE",
"483 461 OFFCURVE",
"483 332 CURVE",
"526 332 LINE",
"526 407 OFFCURVE",
"575 460 OFFCURVE",
"645 460 CURVE SMOOTH",
"711 460 OFFCURVE",
"757 420 OFFCURVE",
"757 336 CURVE SMOOTH"
);
},
{
closed = 1;
nodes = (
"90 50 LINE SMOOTH",
"90 20 OFFCURVE",
"111 -1 OFFCURVE",
"141 -1 CURVE SMOOTH",
"171 -1 OFFCURVE",
"192 20 OFFCURVE",
"192 50 CURVE SMOOTH",
"192 495 LINE SMOOTH",
"192 525 OFFCURVE",
"171 546 OFFCURVE",
"141 546 CURVE SMOOTH",
"111 546 OFFCURVE",
"90 525 OFFCURVE",
"90 495 CURVE SMOOTH"
);
}
);
width = 938;
}
);
leftKerningGroup = n;
leftMetricsKey = n;
rightKerningGroup = n;
rightMetricsKey = n;
unicode = 006D;
},
{
glyphname = n;
layers = (
{
anchors = (
{
name = bottom;
position = "{341, 0}";
},
{
name = top;
position = "{341, 547}";
}
);
background = {
paths = (
{
closed = 1;
nodes = (
"572 -1 OFFCURVE",
"593 20 OFFCURVE",
"593 50 CURVE SMOOTH",
"593 296 LINE SMOOTH",
"593 446 OFFCURVE",
"493 552 OFFCURVE",
"352 552 CURVE SMOOTH",
"227 552 OFFCURVE",
"139 461 OFFCURVE",
"139 332 CURVE",
"192 332 LINE",
"192 407 OFFCURVE",
"250 460 OFFCURVE",
"332 460 CURVE SMOOTH",
"425 460 OFFCURVE",
"491 392 OFFCURVE",
"491 296 CURVE SMOOTH",
"491 50 LINE SMOOTH",
"491 20 OFFCURVE",
"512 -1 OFFCURVE",
"542 -1 CURVE SMOOTH"
);
},
{
closed = 1;
nodes = (
"171 -1 OFFCURVE",
"192 20 OFFCURVE",
"192 50 CURVE SMOOTH",
"192 495 LINE SMOOTH",
"192 525 OFFCURVE",
"171 546 OFFCURVE",
"141 546 CURVE SMOOTH",
"111 546 OFFCURVE",
"90 525 OFFCURVE",
"90 495 CURVE SMOOTH",
"90 50 LINE SMOOTH",
"90 20 OFFCURVE",
"111 -1 OFFCURVE",
"141 -1 CURVE SMOOTH"
);
}
);
};
layerId = UUID0;
paths = (
{
closed = 1;
nodes = (
"192 332 LINE",
"192 405 OFFCURVE",
"257 460 OFFCURVE",
"342 460 CURVE SMOOTH",
"433 460 OFFCURVE",
"501 409 OFFCURVE",
"501 296 CURVE SMOOTH",
"501 50 LINE SMOOTH",
"501 21 OFFCURVE",
"523 -1 OFFCURVE",
"552 -1 CURVE SMOOTH",
"581 -1 OFFCURVE",
"603 21 OFFCURVE",
"603 50 CURVE SMOOTH",
"603 296 LINE SMOOTH",
"603 462 OFFCURVE",
"499 552 OFFCURVE",
"362 552 CURVE SMOOTH",
"229 552 OFFCURVE",
"129 457 OFFCURVE",
"129 332 CURVE"
);
},
{
closed = 1;
nodes = (
"90 50 LINE SMOOTH",
"90 20 OFFCURVE",
"111 -1 OFFCURVE",
"141 -1 CURVE SMOOTH",
"171 -1 OFFCURVE",
"192 20 OFFCURVE",
"192 50 CURVE SMOOTH",
"192 496 LINE SMOOTH",
"192 526 OFFCURVE",
"171 547 OFFCURVE",
"141 547 CURVE SMOOTH",
"111 547 OFFCURVE",
"90 526 OFFCURVE",
"90 496 CURVE SMOOTH"
);
}
);
width = 682;
},
{
anchors = (
{
name = bottom;
position = "{337, 0}";
},
{
name = top;
position = "{337, 547}";
}
);
background = {
paths = (
{
closed = 1;
nodes = (
"501 0 OFFCURVE",
"513 12 OFFCURVE",
"513 30 CURVE SMOOTH",
"513 319 LINE SMOOTH",
"513 457 OFFCURVE",
"428 554 OFFCURVE",
"307 554 CURVE SMOOTH",
"192 554 OFFCURVE",
"106 463 OFFCURVE",
"100 336 CURVE",
"150 336 LINE",
"150 429 OFFCURVE",
"215 494 OFFCURVE",
"307 494 CURVE SMOOTH",
"393 494 OFFCURVE",
"453 422 OFFCURVE",
"453 319 CURVE SMOOTH",
"453 30 LINE SMOOTH",
"453 12 OFFCURVE",
"465 0 OFFCURVE",
"483 0 CURVE SMOOTH"
);
},
{
closed = 1;
nodes = (
"138 0 OFFCURVE",
"150 12 OFFCURVE",
"150 30 CURVE SMOOTH",
"150 517 LINE SMOOTH",
"150 535 OFFCURVE",
"138 547 OFFCURVE",
"120 547 CURVE SMOOTH",
"102 547 OFFCURVE",
"90 535 OFFCURVE",
"90 517 CURVE SMOOTH",
"90 30 LINE SMOOTH",
"90 12 OFFCURVE",
"102 0 OFFCURVE",
"120 0 CURVE SMOOTH"
);
},
{
closed = 1;
nodes = (
"861 0 OFFCURVE",
"873 12 OFFCURVE",
"873 30 CURVE SMOOTH",
"873 319 LINE SMOOTH",
"873 457 OFFCURVE",
"788 554 OFFCURVE",
"667 554 CURVE SMOOTH",
"547 554 OFFCURVE",
"456 463 OFFCURVE",
"453 326 CURVE",
"513 326 LINE",
"510 429 OFFCURVE",
"575 494 OFFCURVE",
"667 494 CURVE SMOOTH",
"753 494 OFFCURVE",
"813 422 OFFCURVE",
"813 319 CURVE SMOOTH",
"813 30 LINE SMOOTH",
"813 12 OFFCURVE",
"825 0 OFFCURVE",
"843 0 CURVE SMOOTH"
);
}
);
};
layerId = "952115DE-4B60-44C8-B7C0-A1F0450151B4";
paths = (
{
closed = 1;
nodes = (
"150 336 LINE",
"150 426 OFFCURVE",
"232 494 OFFCURVE",
"340 494 CURVE SMOOTH",
"450 494 OFFCURVE",
"533 430 OFFCURVE",
"533 299 CURVE SMOOTH",
"533 30 LINE SMOOTH",
"533 13 OFFCURVE",
"546 0 OFFCURVE",
"563 0 CURVE SMOOTH",
"580 0 OFFCURVE",
"593 13 OFFCURVE",
"593 30 CURVE SMOOTH",
"593 299 LINE SMOOTH",
"593 464 OFFCURVE",
"484 554 OFFCURVE",
"340 554 CURVE SMOOTH",
"211 554 OFFCURVE",
"108 460 OFFCURVE",
"100 336 CURVE"
);
},
{
closed = 1;
nodes = (
"90 30 LINE SMOOTH",
"90 12 OFFCURVE",
"102 0 OFFCURVE",
"120 0 CURVE SMOOTH",
"138 0 OFFCURVE",
"150 12 OFFCURVE",
"150 30 CURVE SMOOTH",
"150 517 LINE SMOOTH",
"150 535 OFFCURVE",
"138 547 OFFCURVE",
"120 547 CURVE SMOOTH",
"102 547 OFFCURVE",
"90 535 OFFCURVE",
"90 517 CURVE SMOOTH"
);
}
);
width = 673;
},
{
associatedMasterId = UUID0;
background = {
paths = (
{
closed = 1;
nodes = (
"531 -1 OFFCURVE",
"552 20 OFFCURVE",
"552 50 CURVE SMOOTH",
"552 296 LINE SMOOTH",
"552 446 OFFCURVE",
"452 552 OFFCURVE",
"311 552 CURVE SMOOTH",
"186 552 OFFCURVE",
"98 461 OFFCURVE",
"98 332 CURVE",
"151 332 LINE",
"151 407 OFFCURVE",
"209 460 OFFCURVE",
"291 460 CURVE SMOOTH",
"384 460 OFFCURVE",
"450 392 OFFCURVE",
"450 296 CURVE SMOOTH",
"450 50 LINE SMOOTH",
"450 20 OFFCURVE",
"471 -1 OFFCURVE",
"501 -1 CURVE SMOOTH"
);
},
{
closed = 1;
nodes = (
"130 -1 OFFCURVE",
"151 20 OFFCURVE",
"151 50 CURVE SMOOTH",
"151 495 LINE SMOOTH",
"151 525 OFFCURVE",
"130 546 OFFCURVE",
"100 546 CURVE SMOOTH",
"70 546 OFFCURVE",
"49 525 OFFCURVE",
"49 495 CURVE SMOOTH",
"49 50 LINE SMOOTH",
"49 20 OFFCURVE",
"70 -1 OFFCURVE",
"100 -1 CURVE SMOOTH"
);
}
);
};
layerId = "501D7DEB-9CE7-4B98-A9DD-780E284E8CBD";
name = old;
paths = (
{
closed = 1;
nodes = (
"151 332 LINE",
"151 407 OFFCURVE",
"209 460 OFFCURVE",
"291 460 CURVE SMOOTH",
"384 460 OFFCURVE",
"450 392 OFFCURVE",
"450 296 CURVE SMOOTH",
"450 51 LINE SMOOTH",
"450 21 OFFCURVE",
"471 0 OFFCURVE",
"501 0 CURVE SMOOTH",
"531 0 OFFCURVE",
"552 21 OFFCURVE",
"552 51 CURVE SMOOTH",
"552 296 LINE SMOOTH",
"552 446 OFFCURVE",
"452 552 OFFCURVE",
"311 552 CURVE SMOOTH",
"186 552 OFFCURVE",
"98 461 OFFCURVE",
"98 332 CURVE"
);
},
{
closed = 1;
nodes = (
"49 51 LINE SMOOTH",
"49 21 OFFCURVE",
"70 0 OFFCURVE",
"100 0 CURVE SMOOTH",
"130 0 OFFCURVE",
"151 21 OFFCURVE",
"151 51 CURVE SMOOTH",
"151 496 LINE SMOOTH",
"151 526 OFFCURVE",
"130 547 OFFCURVE",
"100 547 CURVE SMOOTH",
"70 547 OFFCURVE",
"49 526 OFFCURVE",
"49 496 CURVE SMOOTH"
);
}
);
width = 586;
},
{
anchors = (
{
name = bottom;
position = "{337, 0}";
},
{
name = top;
position = "{337, 547}";
}
);
associatedMasterId = "952115DE-4B60-44C8-B7C0-A1F0450151B4";
background = {
paths = (
{
closed = 1;
nodes = (
"157 0 OFFCURVE",
"180 22 OFFCURVE",
"180 51 CURVE SMOOTH",
"180 292 LINE SMOOTH",
"180 376 OFFCURVE",
"248 445 OFFCURVE",
"332 445 CURVE SMOOTH",
"416 445 OFFCURVE",
"485 375 OFFCURVE",
"485 292 CURVE SMOOTH",
"485 51 LINE SMOOTH",
"485 22 OFFCURVE",
"508 0 OFFCURVE",
"537 0 CURVE SMOOTH",
"564 0 OFFCURVE",
"587 22 OFFCURVE",
"587 51 CURVE SMOOTH",
"587 292 LINE SMOOTH",
"587 433 OFFCURVE",
"469 547 OFFCURVE",
"332 547 CURVE SMOOTH",
"274 547 OFFCURVE",
"223 530 OFFCURVE",
"180 497 CURVE",
"180 522 OFFCURVE",
"157 547 OFFCURVE",
"129 547 CURVE SMOOTH",
"101 547 OFFCURVE",
"78 524 OFFCURVE",
"78 496 CURVE SMOOTH",
"78 51 LINE SMOOTH",
"78 22 OFFCURVE",
"100 0 OFFCURVE",
"129 0 CURVE SMOOTH"
);
}
);
};
layerId = "25F4539A-92B2-4FAC-80CF-8F316E19B858";
name = old;
paths = (
{
closed = 1;
nodes = (
"150 336 LINE",
"150 429 OFFCURVE",
"229 494 OFFCURVE",
"340 494 CURVE SMOOTH",
"453 494 OFFCURVE",
"533 413 OFFCURVE",
"533 299 CURVE SMOOTH",
"533 30 LINE SMOOTH",
"533 12 OFFCURVE",
"545 0 OFFCURVE",
"563 0 CURVE SMOOTH",
"581 0 OFFCURVE",
"593 12 OFFCURVE",
"593 30 CURVE SMOOTH",
"593 299 LINE SMOOTH",
"593 448 OFFCURVE",
"488 554 OFFCURVE",
"340 554 CURVE SMOOTH",
"207 554 OFFCURVE",
"107 463 OFFCURVE",
"100 336 CURVE"
);
},
{
closed = 1;
nodes = (
"90 30 LINE SMOOTH",
"90 12 OFFCURVE",
"102 0 OFFCURVE",
"120 0 CURVE SMOOTH",
"138 0 OFFCURVE",
"150 12 OFFCURVE",
"150 30 CURVE SMOOTH",
"150 517 LINE SMOOTH",
"150 535 OFFCURVE",
"138 547 OFFCURVE",
"120 547 CURVE SMOOTH",
"102 547 OFFCURVE",
"90 535 OFFCURVE",
"90 517 CURVE SMOOTH"
);
}
);
width = 673;
}
);
leftKerningGroup = n;
rightKerningGroup = n;
unicode = 006E;
},
{
glyphname = eng;
layers = (
{
background = {
anchors = (
{
name = bottom;
position = "{742, -234}";
},
{
name = top;
position = "{338, 547}";
}
);
paths = (
{
closed = 1;
nodes = (
"500 -227 OFFCURVE",
"603 -118 OFFCURVE",
"603 67 CURVE SMOOTH",
"603 273 LINE",
"501 206 LINE",
"501 67 LINE SMOOTH",
"501 -65 OFFCURVE",
"441 -137 OFFCURVE",
"355 -137 CURVE SMOOTH",
"301 -137 OFFCURVE",
"255 -126 OFFCURVE",
"229 -97 CURVE SMOOTH",
"208 -73 OFFCURVE",
"191 -54 OFFCURVE",
"155 -63 CURVE SMOOTH",
"132 -69 OFFCURVE",
"124 -85 OFFCURVE",
"134 -112 CURVE SMOOTH",
"161 -185 OFFCURVE",
"249 -227 OFFCURVE",
"355 -227 CURVE SMOOTH"
);
}
);
};
layerId = UUID0;
paths = (
{
closed = 1;
nodes = (
"603 296 LINE SMOOTH",
"603 446 OFFCURVE",
"503 552 OFFCURVE",
"362 552 CURVE SMOOTH",
"291 552 OFFCURVE",
"232 525 OFFCURVE",
"192 480 CURVE",
"192 496 LINE SMOOTH",
"192 526 OFFCURVE",
"171 547 OFFCURVE",
"141 547 CURVE SMOOTH",
"111 547 OFFCURVE",
"90 526 OFFCURVE",
"90 496 CURVE SMOOTH",
"90 50 LINE SMOOTH",
"90 20 OFFCURVE",
"111 -1 OFFCURVE",
"141 -1 CURVE SMOOTH",
"171 -1 OFFCURVE",
"192 20 OFFCURVE",
"192 50 CURVE SMOOTH",
"192 332 LINE SMOOTH",
"192 407 OFFCURVE",
"254 460 OFFCURVE",
"342 460 CURVE SMOOTH",
"435 460 OFFCURVE",
"501 392 OFFCURVE",
"501 296 CURVE SMOOTH",
"501 127 LINE SMOOTH",
"501 -56 OFFCURVE",
"453 -132 OFFCURVE",
"375 -132 CURVE SMOOTH",
"324 -132 OFFCURVE",
"295 -119 OFFCURVE",
"281 -87 CURVE SMOOTH",
"271 -64 OFFCURVE",
"249 -53 OFFCURVE",
"229 -61 CURVE SMOOTH",
"209 -68 OFFCURVE",
"200 -88 OFFCURVE",
"208 -110 CURVE SMOOTH",
"235 -183 OFFCURVE",
"303 -217 OFFCURVE",
"385 -217 CURVE SMOOTH",
"512 -217 OFFCURVE",
"603 -101 OFFCURVE",
"603 127 CURVE SMOOTH"
);
}
);
width = 673;
},
{
background = {
anchors = (
{
name = bottom;
position = "{938, -210}";
}
);
paths = (
{
closed = 1;
nodes = (
"259 554 OFFCURVE",
"191 518 OFFCURVE",
"150 459 CURVE",
"150 517 LINE SMOOTH",
"150 535 OFFCURVE",
"138 547 OFFCURVE",
"120 547 CURVE SMOOTH",
"102 547 OFFCURVE",
"90 535 OFFCURVE",
"90 517 CURVE SMOOTH",
"90 30 LINE SMOOTH",
"90 12 OFFCURVE",
"102 0 OFFCURVE",
"120 0 CURVE SMOOTH",
"138 0 OFFCURVE",
"150 12 OFFCURVE",
"150 30 CURVE SMOOTH",
"150 336 LINE SMOOTH",
"150 429 OFFCURVE",
"229 494 OFFCURVE",
"340 494 CURVE SMOOTH",
"453 494 OFFCURVE",
"533 413 OFFCURVE",
"533 299 CURVE SMOOTH",
"533 127 LINE SMOOTH",
"533 -56 OFFCURVE",
"467 -144 OFFCURVE",
"372 -144 CURVE SMOOTH",
"288 -144 OFFCURVE",
"217 -117 OFFCURVE",
"200 -78 CURVE SMOOTH",
"193 -62 OFFCURVE",
"184 -54 OFFCURVE",
"169 -54 CURVE SMOOTH",
"150 -54 OFFCURVE",
"141 -66 OFFCURVE",
"145 -83 CURVE SMOOTH",
"161 -151 OFFCURVE",
"252 -200 OFFCURVE",
"372 -200 CURVE SMOOTH",
"502 -200 OFFCURVE",
"593 -88 OFFCURVE",
"593 127 CURVE SMOOTH",
"593 299 LINE SMOOTH",
"593 448 OFFCURVE",
"488 554 OFFCURVE",
"340 554 CURVE SMOOTH"
);
}
);
};
layerId = "952115DE-4B60-44C8-B7C0-A1F0450151B4";
paths = (
{
closed = 1;
nodes = (
"593 299 LINE SMOOTH",
"593 448 OFFCURVE",
"488 554 OFFCURVE",
"340 554 CURVE SMOOTH",
"259 554 OFFCURVE",
"191 518 OFFCURVE",
"150 459 CURVE",
"150 517 LINE SMOOTH",
"150 535 OFFCURVE",
"138 547 OFFCURVE",
"120 547 CURVE SMOOTH",
"102 547 OFFCURVE",
"90 535 OFFCURVE",
"90 517 CURVE SMOOTH",
"90 30 LINE SMOOTH",
"90 12 OFFCURVE",
"102 0 OFFCURVE",
"120 0 CURVE SMOOTH",
"138 0 OFFCURVE",
"150 12 OFFCURVE",
"150 30 CURVE SMOOTH",
"150 336 LINE SMOOTH",
"150 429 OFFCURVE",
"229 494 OFFCURVE",
"340 494 CURVE SMOOTH",
"453 494 OFFCURVE",
"533 413 OFFCURVE",
"533 299 CURVE SMOOTH",
"533 127 LINE SMOOTH",
"533 -49 OFFCURVE",
"471 -134 OFFCURVE",
"382 -134 CURVE SMOOTH",
"322 -134 OFFCURVE",
"277 -111 OFFCURVE",
"260 -78 CURVE SMOOTH",
"254 -64 OFFCURVE",
"241 -54 OFFCURVE",
"229 -54 CURVE SMOOTH",
"211 -54 OFFCURVE",
"201 -66 OFFCURVE",
"205 -83 CURVE SMOOTH",
"221 -145 OFFCURVE",
"288 -190 OFFCURVE",
"382 -190 CURVE SMOOTH",
"506 -190 OFFCURVE",
"593 -81 OFFCURVE",
"593 127 CURVE SMOOTH"
);
}
);
width = 673;
}
);
leftKerningGroup = n;
leftMetricsKey = n;
rightKerningGroup = j;
unicode = 014B;
},
{
glyphname = o;
layers = (
{
anchors = (
{
name = bottom;
position = "{338, 0}";
},
{
name = center;
position = "{338, 274}";
},
{
name = ogonek;
position = "{431, 49}";
},
{
name = top;
position = "{338, 547}";
},
{
name = topright;
position = "{455, 528}";
}
);
background = {
paths = (
{
closed = 1;
nodes = (
"610 422 OFFCURVE",
"485 547 OFFCURVE",
"338 547 CURVE SMOOTH",
"189 547 OFFCURVE",
"64 422 OFFCURVE",
"64 273 CURVE SMOOTH",
"64 125 OFFCURVE",
"189 0 OFFCURVE",
"338 0 CURVE SMOOTH",
"486 0 OFFCURVE",
"611 125 OFFCURVE",
"611 273 CURVE"
);
},
{
closed = 1;
nodes = (
"431 445 OFFCURVE",
"509 366 OFFCURVE",
"509 273 CURVE SMOOTH",
"509 180 OFFCURVE",
"431 102 OFFCURVE",
"338 102 CURVE SMOOTH",
"245 102 OFFCURVE",
"166 180 OFFCURVE",
"166 273 CURVE SMOOTH",
"166 366 OFFCURVE",
"245 445 OFFCURVE",
"338 445 CURVE SMOOTH"
);
}
);
};
layerId = UUID0;
paths = (
{
closed = 1;
nodes = (
"176 551 OFFCURVE",
"62 436 OFFCURVE",
"62 273 CURVE",
"62 111 OFFCURVE",
"176 -4 OFFCURVE",
"338 -4 CURVE SMOOTH",
"499 -4 OFFCURVE",
"613 111 OFFCURVE",
"613 273 CURVE SMOOTH",
"612 436 OFFCURVE",
"498 551 OFFCURVE",
"338 551 CURVE SMOOTH"
);
},
{
closed = 1;
nodes = (
"442 461 OFFCURVE",
"515 383 OFFCURVE",
"515 273 CURVE SMOOTH",
"515 163 OFFCURVE",
"442 86 OFFCURVE",
"338 86 CURVE SMOOTH",
"234 86 OFFCURVE",
"160 163 OFFCURVE",
"160 273 CURVE SMOOTH",
"160 383 OFFCURVE",
"234 461 OFFCURVE",
"338 461 CURVE SMOOTH"
);
}
);
width = 675;
},
{
anchors = (
{
name = bottom;
position = "{340, 0}";
},
{
name = center;
position = "{340, 274}";
},
{
name = ogonek;
position = "{430, 40}";
},
{
name = top;
position = "{340, 547}";
},
{
name = topright;
position = "{469, 521}";
}
);
background = {
paths = (
{
closed = 1;
nodes = (
"503 -6 OFFCURVE",
"619 110 OFFCURVE",
"619 273 CURVE SMOOTH",
"619 437 OFFCURVE",
"503 553 OFFCURVE",
"340 553 CURVE SMOOTH",
"176 553 OFFCURVE",
"60 437 OFFCURVE",
"60 273 CURVE SMOOTH",
"60 110 OFFCURVE",
"176 -6 OFFCURVE",
"340 -6 CURVE SMOOTH"
);
},
{
closed = 1;
nodes = (
"211 50 OFFCURVE",
"120 142 OFFCURVE",
"120 273 CURVE SMOOTH",
"120 404 OFFCURVE",
"211 497 OFFCURVE",
"340 497 CURVE SMOOTH",
"468 497 OFFCURVE",
"559 404 OFFCURVE",
"559 273 CURVE SMOOTH",
"559 142 OFFCURVE",
"468 50 OFFCURVE",
"340 50 CURVE SMOOTH"
);
}
);
};
layerId = "952115DE-4B60-44C8-B7C0-A1F0450151B4";
paths = (
{
closed = 1;
nodes = (
"180 553 OFFCURVE",
"60 433 OFFCURVE",
"60 273 CURVE SMOOTH",
"60 114 OFFCURVE",
"180 -6 OFFCURVE",
"340 -6 CURVE SMOOTH",
"499 -6 OFFCURVE",
"619 114 OFFCURVE",
"619 273 CURVE SMOOTH",
"619 433 OFFCURVE",
"499 553 OFFCURVE",
"340 553 CURVE SMOOTH"
);
},
{
closed = 1;
nodes = (
"465 497 OFFCURVE",
"559 401 OFFCURVE",
"559 273 CURVE SMOOTH",
"559 146 OFFCURVE",
"465 50 OFFCURVE",
"340 50 CURVE SMOOTH",
"215 50 OFFCURVE",
"120 146 OFFCURVE",
"120 273 CURVE SMOOTH",
"120 401 OFFCURVE",
"215 497 OFFCURVE",
"340 497 CURVE SMOOTH"
);
}
);
width = 679;
}
);
leftKerningGroup = o;
rightKerningGroup = o;
unicode = 006F;
},
{
glyphname = oslash;
layers = (
{
components = (
{
name = o;
transform = "{1, 0, 0, 1, 20, -5}";
}
);
layerId = UUID0;
paths = (
{
closed = 1;
nodes = (
"525 475 LINE",
"492 444 LINE",
"185 137 LINE",
"145 105 LINE",
"72 31 LINE SMOOTH",
"51 11 OFFCURVE",
"66 -21 OFFCURVE",
"94 -21 CURVE SMOOTH",
"101 -21 OFFCURVE",
"108 -19 OFFCURVE",
"116 -12 CURVE SMOOTH",
"196 69 LINE",
"227 95 LINE",
"536 403 LINE",
"566 428 LINE",
"638 500 LINE SMOOTH",
"654 516 OFFCURVE",
"646 552 OFFCURVE",
"616 552 CURVE SMOOTH",
"606 552 OFFCURVE",
"599 548 OFFCURVE",
"593 542 CURVE SMOOTH"
);
}
);
width = 708;
},
{
background = {
components = (
{
name = o;
transform = "{1, 0, 0, 1, 15, 0}";
}
);
};
components = (
{
name = o;
transform = "{1, 0, 0, 1, 15, 0}";
}
);
layerId = "952115DE-4B60-44C8-B7C0-A1F0450151B4";
paths = (
{
closed = 1;
nodes = (
"529 485 LINE",
"515 468 LINE",
"170 124 LINE",
"144 109 LINE",
"69 35 LINE SMOOTH",
"49 15 OFFCURVE",
"64 -17 OFFCURVE",
"91 -17 CURVE SMOOTH",
"99 -17 OFFCURVE",
"106 -15 OFFCURVE",
"113 -8 CURVE SMOOTH",
"187 66 LINE",
"209 79 LINE",
"555 424 LINE",
"568 438 LINE",
"626 495 LINE SMOOTH",
"641 511 OFFCURVE",
"633 547 OFFCURVE",
"604 547 CURVE SMOOTH",
"593 547 OFFCURVE",
"586 543 OFFCURVE",
"581 537 CURVE SMOOTH"
);
}
);
width = 694;
}
);
leftKerningGroup = o;
leftMetricsKey = o;
rightKerningGroup = o;
rightMetricsKey = o;
unicode = 00F8;
},
{
glyphname = oe;
layers = (
{
background = {
anchors = (
{
name = bottom;
position = "{775, 0}";
},
{
name = center;
position = "{338, 274}";
},
{
name = ogonek;
position = "{868, 92.667}";
},
{
name = top;
position = "{775, 547}";
},
{
name = topright;
position = "{655, 547}";
}
);
paths = (
{
closed = 1;
nodes = (
"493 -4 OFFCURVE",
"603 111 OFFCURVE",
"603 273 CURVE SMOOTH",
"602 436 OFFCURVE",
"492 551 OFFCURVE",
"338 551 CURVE SMOOTH",
"176 551 OFFCURVE",
"62 436 OFFCURVE",
"62 273 CURVE",
"62 111 OFFCURVE",
"176 -4 OFFCURVE",
"338 -4 CURVE SMOOTH"
);
},
{
closed = 1;
nodes = (
"234 86 OFFCURVE",
"160 163 OFFCURVE",
"160 273 CURVE SMOOTH",
"160 383 OFFCURVE",
"234 461 OFFCURVE",
"338 461 CURVE SMOOTH",
"442 461 OFFCURVE",
"515 383 OFFCURVE",
"515 273 CURVE SMOOTH",
"515 163 OFFCURVE",
"442 86 OFFCURVE",
"338 86 CURVE SMOOTH"
);
},
{
closed = 1;
nodes = (
"861 -4 OFFCURVE",
"936 21 OFFCURVE",
"981 57 CURVE SMOOTH",
"1003 74 OFFCURVE",
"1002 101 OFFCURVE",
"979 121 CURVE",
"962 135 OFFCURVE",
"936 135 OFFCURVE",
"916 120 CURVE SMOOTH",
"889 100 OFFCURVE",
"841 82 OFFCURVE",
"800 82 CURVE SMOOTH",
"686 82 OFFCURVE",
"605 163 OFFCURVE",
"605 273 CURVE SMOOTH",
"605 383 OFFCURVE",
"670 465 OFFCURVE",
"785 465 CURVE SMOOTH",
"885 465 OFFCURVE",
"941 390 OFFCURVE",
"944 290 CURVE",
"985 318 LINE",
"585 318 LINE",
"585 238 LINE",
"988 238 LINE SMOOTH",
"1015 238 OFFCURVE",
"1034 256 OFFCURVE",
"1034 282 CURVE SMOOTH",
"1034 440 OFFCURVE",
"941 551 OFFCURVE",
"785 551 CURVE SMOOTH",
"633 551 OFFCURVE",
"525 436 OFFCURVE",
"525 273 CURVE SMOOTH",
"525 111 OFFCURVE",
"639 -4 OFFCURVE",
"800 -4 CURVE SMOOTH"
);
}
);
};
layerId = UUID0;
paths = (
{
closed = 1;
nodes = (
"985 318 LINE",
"585 318 LINE",
"585 238 LINE",
"988 238 LINE SMOOTH",
"1015 238 OFFCURVE",
"1034 256 OFFCURVE",
"1034 282 CURVE SMOOTH",
"1034 440 OFFCURVE",
"941 551 OFFCURVE",
"785 551 CURVE SMOOTH",
"633 551 OFFCURVE",
"525 436 OFFCURVE",
"525 273 CURVE SMOOTH",
"525 111 OFFCURVE",
"639 -4 OFFCURVE",
"800 -4 CURVE SMOOTH",
"861 -4 OFFCURVE",
"936 21 OFFCURVE",
"981 57 CURVE SMOOTH",
"1003 74 OFFCURVE",
"1002 101 OFFCURVE",
"979 121 CURVE",
"962 135 OFFCURVE",
"936 135 OFFCURVE",
"916 120 CURVE SMOOTH",
"889 100 OFFCURVE",
"841 82 OFFCURVE",
"800 82 CURVE SMOOTH",
"686 82 OFFCURVE",
"605 163 OFFCURVE",
"605 273 CURVE SMOOTH",
"605 383 OFFCURVE",
"670 465 OFFCURVE",
"785 465 CURVE SMOOTH",
"885 465 OFFCURVE",
"941 390 OFFCURVE",
"944 290 CURVE"
);
},
{
closed = 1;
nodes = (
"176 551 OFFCURVE",
"62 436 OFFCURVE",
"62 273 CURVE",
"62 111 OFFCURVE",
"176 -4 OFFCURVE",
"338 -4 CURVE SMOOTH",
"493 -4 OFFCURVE",
"603 111 OFFCURVE",
"603 273 CURVE SMOOTH",
"602 436 OFFCURVE",
"492 551 OFFCURVE",
"338 551 CURVE SMOOTH"
);
},
{
closed = 1;
nodes = (
"442 461 OFFCURVE",
"515 383 OFFCURVE",
"515 273 CURVE SMOOTH",
"515 163 OFFCURVE",
"442 86 OFFCURVE",
"338 86 CURVE SMOOTH",
"234 86 OFFCURVE",
"160 163 OFFCURVE",
"160 273 CURVE SMOOTH",
"160 383 OFFCURVE",
"234 461 OFFCURVE",
"338 461 CURVE SMOOTH"
);
}
);
width = 1074;
},
{
background = {
anchors = (
{
name = bottom;
position = "{319, 0}";
},
{
name = center;
position = "{319, 274}";
},
{
name = ogonek;
position = "{409, 10}";
},
{
name = top;
position = "{319, 547}";
},
{
name = topright;
position = "{638, 547}";
}
);
paths = (
{
closed = 1;
nodes = (
"503 -6 OFFCURVE",
"611 110 OFFCURVE",
"611 273 CURVE SMOOTH",
"611 437 OFFCURVE",
"503 553 OFFCURVE",
"340 553 CURVE SMOOTH",
"176 553 OFFCURVE",
"60 437 OFFCURVE",
"60 273 CURVE SMOOTH",
"60 110 OFFCURVE",
"176 -6 OFFCURVE",
"340 -6 CURVE SMOOTH"
);
},
{
closed = 1;
nodes = (
"211 50 OFFCURVE",
"120 142 OFFCURVE",
"120 273 CURVE SMOOTH",
"120 404 OFFCURVE",
"211 497 OFFCURVE",
"340 497 CURVE SMOOTH",
"468 497 OFFCURVE",
"559 404 OFFCURVE",
"559 273 CURVE SMOOTH",
"559 142 OFFCURVE",
"468 50 OFFCURVE",
"340 50 CURVE SMOOTH"
);
},
{
closed = 1;
nodes = (
"894 -5 OFFCURVE",
"970 23 OFFCURVE",
"1013 62 CURVE SMOOTH",
"1026 74 OFFCURVE",
"1025 90 OFFCURVE",
"1011 102 CURVE SMOOTH",
"1000 111 OFFCURVE",
"983 110 OFFCURVE",
"972 100 CURVE SMOOTH",
"941 71 OFFCURVE",
"883 51 OFFCURVE",
"831 51 CURVE SMOOTH",
"707 51 OFFCURVE",
"619 143 OFFCURVE",
"619 273 CURVE SMOOTH",
"619 404 OFFCURVE",
"701 496 OFFCURVE",
"816 496 CURVE SMOOTH",
"935 496 OFFCURVE",
"1015 404 OFFCURVE",
"1011 274 CURVE",
"1055 307 LINE",
"599 307 LINE",
"599 255 LINE",
"1039 255 LINE SMOOTH",
"1056 255 OFFCURVE",
"1068 266 OFFCURVE",
"1068 283 CURVE SMOOTH",
"1068 440 OFFCURVE",
"964 552 OFFCURVE",
"816 552 CURVE SMOOTH",
"665 552 OFFCURVE",
"564 436 OFFCURVE",
"564 273 CURVE SMOOTH",
"564 110 OFFCURVE",
"672 -5 OFFCURVE",
"831 -5 CURVE SMOOTH"
);
}
);
};
layerId = "952115DE-4B60-44C8-B7C0-A1F0450151B4";
paths = (
{
closed = 1;
nodes = (
"1055 307 LINE",
"599 307 LINE",
"599 255 LINE",
"1039 255 LINE SMOOTH",
"1056 255 OFFCURVE",
"1068 266 OFFCURVE",
"1068 283 CURVE SMOOTH",
"1068 440 OFFCURVE",
"964 552 OFFCURVE",
"816 552 CURVE SMOOTH",
"665 552 OFFCURVE",
"564 436 OFFCURVE",
"564 273 CURVE SMOOTH",
"564 110 OFFCURVE",
"672 -5 OFFCURVE",
"831 -5 CURVE SMOOTH",
"894 -5 OFFCURVE",
"970 23 OFFCURVE",
"1013 62 CURVE SMOOTH",
"1026 74 OFFCURVE",
"1025 90 OFFCURVE",
"1011 102 CURVE SMOOTH",
"1000 111 OFFCURVE",
"983 110 OFFCURVE",
"972 100 CURVE SMOOTH",
"941 71 OFFCURVE",
"883 51 OFFCURVE",
"831 51 CURVE SMOOTH",
"707 51 OFFCURVE",
"619 143 OFFCURVE",
"619 273 CURVE SMOOTH",
"619 404 OFFCURVE",
"701 496 OFFCURVE",
"816 496 CURVE SMOOTH",
"935 496 OFFCURVE",
"1015 404 OFFCURVE",
"1011 274 CURVE"
);
},
{
closed = 1;
nodes = (
"176 553 OFFCURVE",
"60 437 OFFCURVE",
"60 273 CURVE SMOOTH",
"60 110 OFFCURVE",
"176 -6 OFFCURVE",
"340 -6 CURVE SMOOTH",
"503 -6 OFFCURVE",
"611 110 OFFCURVE",
"611 273 CURVE SMOOTH",
"611 437 OFFCURVE",
"503 553 OFFCURVE",
"340 553 CURVE SMOOTH"
);
},
{
closed = 1;
nodes = (
"468 497 OFFCURVE",
"559 404 OFFCURVE",
"559 273 CURVE SMOOTH",
"559 142 OFFCURVE",
"468 50 OFFCURVE",
"340 50 CURVE SMOOTH",
"211 50 OFFCURVE",
"120 142 OFFCURVE",
"120 273 CURVE SMOOTH",
"120 404 OFFCURVE",
"211 497 OFFCURVE",
"340 497 CURVE SMOOTH"
);
}
);
width = 1108;
}
);
leftKerningGroup = o;
leftMetricsKey = o;
rightKerningGroup = e;
rightMetricsKey = e;
unicode = 0153;
},
{
glyphname = p;
layers = (
{
anchors = (
{
name = bottom;
position = "{372, 0}";
},
{
name = bottomleft;
position = "{20, -234}";
},
{
name = center;
position = "{203, -87}";
},
{
name = ogonek;
position = "{96, 10}";
},
{
name = top;
position = "{372, 547}";
}
);
layerId = UUID0;
paths = (
{
closed = 1;
nodes = (
"209 551 OFFCURVE",
"91 431 OFFCURVE",
"90 273 CURVE SMOOTH",
"90 -183 LINE SMOOTH",
"90 -213 OFFCURVE",
"111 -234 OFFCURVE",
"141 -234 CURVE SMOOTH",
"171 -234 OFFCURVE",
"192 -213 OFFCURVE",
"192 -183 CURVE SMOOTH",
"192 87 LINE",
"238 31 OFFCURVE",
"306 -4 OFFCURVE",
"385 -4 CURVE SMOOTH",
"531 -4 OFFCURVE",
"641 115 OFFCURVE",
"641 273 CURVE SMOOTH",
"641 431 OFFCURVE",
"522 551 OFFCURVE",
"365 551 CURVE SMOOTH"
);
},
{
closed = 1;
nodes = (
"466 461 OFFCURVE",
"543 380 OFFCURVE",
"543 273 CURVE SMOOTH",
"543 166 OFFCURVE",
"466 86 OFFCURVE",
"365 86 CURVE SMOOTH",
"264 86 OFFCURVE",
"188 166 OFFCURVE",
"188 273 CURVE SMOOTH",
"188 380 OFFCURVE",
"264 461 OFFCURVE",
"365 461 CURVE SMOOTH"
);
}
);
width = 703;
},
{
anchors = (
{
name = bottom;
position = "{365, 0}";
},
{
name = bottomleft;
position = "{50, -234}";
},
{
name = center;
position = "{185, -110}";
},
{
name = ogonek;
position = "{98, 10}";
},
{
name = top;
position = "{365, 547}";
}
);
background = {
paths = (
{
closed = 1;
nodes = (
"586 433 OFFCURVE",
"473 547 OFFCURVE",
"313 547 CURVE SMOOTH",
"153 547 OFFCURVE",
"39 433 OFFCURVE",
"39 273 CURVE SMOOTH",
"39 113 OFFCURVE",
"153 0 OFFCURVE",
"313 0 CURVE SMOOTH",
"473 0 OFFCURVE",
"586 113 OFFCURVE",
"586 273 CURVE SMOOTH"
);
},
{
closed = 1;
nodes = (
"437 486 OFFCURVE",
"525 398 OFFCURVE",
"525 273 CURVE SMOOTH",
"525 149 OFFCURVE",
"437 61 OFFCURVE",
"313 61 CURVE SMOOTH",
"188 61 OFFCURVE",
"100 149 OFFCURVE",
"100 273 CURVE SMOOTH",
"100 398 OFFCURVE",
"188 486 OFFCURVE",
"313 486 CURVE SMOOTH"
);
}
);
};
layerId = "952115DE-4B60-44C8-B7C0-A1F0450151B4";
paths = (
{
closed = 1;
nodes = (
"212 553 OFFCURVE",
"93 436 OFFCURVE",
"90 279 CURVE SMOOTH",
"90 -204 LINE SMOOTH",
"90 -222 OFFCURVE",
"102 -234 OFFCURVE",
"120 -234 CURVE SMOOTH",
"138 -234 OFFCURVE",
"150 -222 OFFCURVE",
"150 -204 CURVE SMOOTH",
"150 108 LINE",
"193 39 OFFCURVE",
"273 -6 OFFCURVE",
"369 -6 CURVE SMOOTH",
"529 -6 OFFCURVE",
"649 114 OFFCURVE",
"649 273 CURVE SMOOTH",
"649 433 OFFCURVE",
"529 553 OFFCURVE",
"369 553 CURVE SMOOTH"
);
},
{
closed = 1;
nodes = (
"494 497 OFFCURVE",
"589 401 OFFCURVE",
"589 273 CURVE SMOOTH",
"589 146 OFFCURVE",
"494 50 OFFCURVE",
"369 50 CURVE SMOOTH",
"244 50 OFFCURVE",
"150 146 OFFCURVE",
"150 273 CURVE SMOOTH",
"150 401 OFFCURVE",
"244 497 OFFCURVE",
"369 497 CURVE SMOOTH"
);
}
);
width = 709;
},
{
associatedMasterId = "952115DE-4B60-44C8-B7C0-A1F0450151B4";
background = {
components = (
{
name = o;
}
);
};
layerId = "EF63A930-FA2C-4C4D-849F-CA4B1BA17F52";
name = "Oct 19 16, 15:41";
paths = (
{
closed = 1;
nodes = (
"39 -204 LINE SMOOTH",
"39 -221 OFFCURVE",
"52 -234 OFFCURVE",
"69 -234 CURVE SMOOTH",
"86 -234 OFFCURVE",
"100 -221 OFFCURVE",
"100 -204 CURVE SMOOTH",
"100 99 LINE",
"171 29 OFFCURVE",
"224 0 OFFCURVE",
"313 0 CURVE SMOOTH",
"462 0 OFFCURVE",
"586 124 OFFCURVE",
"586 273 CURVE SMOOTH",
"586 423 OFFCURVE",
"462 547 OFFCURVE",
"313 547 CURVE SMOOTH",
"163 547 OFFCURVE",
"39 423 OFFCURVE",
"39 273 CURVE SMOOTH"
);
},
{
closed = 1;
nodes = (
"429 486 OFFCURVE",
"525 391 OFFCURVE",
"525 273 CURVE SMOOTH",
"525 156 OFFCURVE",
"429 61 OFFCURVE",
"313 61 CURVE SMOOTH",
"196 61 OFFCURVE",
"100 157 OFFCURVE",
"100 273 CURVE SMOOTH",
"100 390 OFFCURVE",
"196 486 OFFCURVE",
"313 486 CURVE SMOOTH"
);
}
);
width = 625;
}
);
leftKerningGroup = n;
rightKerningGroup = o;
unicode = 0070;
},
